<?xml version="1.0" encoding="utf-8"?>
<!-- Generator: Adobe Illustrator 16.0.0, SVG Export Plug-In . SVG Version: 6.00 Build 0)  -->
<!DOCTYPE svg PUBLIC "-//W3C//DTD SVG 1.1//EN" "http://www.w3.org/Graphics/SVG/1.1/DTD/svg11.dtd">
<svg version="1.1" id="Capa_1" xmlns="http://www.w3.org/2000/svg" xmlns:xlink="http://www.w3.org/1999/xlink" x="0px" y="0px"
	 width="512px" height="512px" viewBox="0 0 512 512" enable-background="new 0 0 512 512" xml:space="preserve">
<g>
	<g>
		<g>
			<path fill="#231F20" d="M427.381,0H84.619c-4.782,0-8.659,3.877-8.659,8.659V503.34c0,4.782,3.877,8.659,8.659,8.659H427.38
				c4.782,0,8.659-3.877,8.659-8.659V8.659C436.04,3.877,432.163,0,427.381,0z M418.721,494.681H93.279V17.319h325.441V494.681z"/>
		</g>
	</g>
	<g>
		<g>
			<path fill="#231F20" d="M228.131,55.112c-11.475-11.49-26.739-17.823-42.982-17.833c-0.011,0-0.019,0-0.03,0
				c-16.227,0-31.488,6.316-42.969,17.784c-3.384,3.38-3.386,8.863-0.007,12.247l36.848,36.889c1.624,1.625,3.825,2.538,6.122,2.539
				c0.001,0,0.003,0,0.004,0c2.296,0,4.496-0.911,6.12-2.533l36.886-36.848C231.507,63.978,231.511,58.495,228.131,55.112z
				 M185.126,85.832l-24.003-24.03c7.056-4.688,15.334-7.206,23.997-7.205c0.008,0,0.014,0,0.022,0
				c8.673,0.005,16.956,2.532,24.013,7.232L185.126,85.832z"/>
		</g>
	</g>
	<g>
		<g>
			<path fill="#ED2F59" d="M161.227,91.941l-29.64-29.672c-3.379-3.383-8.862-3.387-12.245-0.007
				c-9.563,9.551-14.833,22.256-14.841,35.772c-0.008,13.516,5.249,26.226,14.801,35.788c1.624,1.626,3.828,2.591,6.127,2.539
				c2.296,0,4.496-0.911,6.12-2.534l29.672-29.64C164.604,100.807,164.606,95.325,161.227,91.941z M126.235,114.656
				c-2.885-4.999-4.42-10.688-4.416-16.613c0.004-5.925,1.545-11.613,4.435-16.608l16.601,16.62L126.235,114.656z"/>
		</g>
	</g>
	<g>
		<g>
			<path fill="#231F20" d="M228.132,55.109c-3.379-3.384-8.863-3.386-12.245-0.005l-36.888,36.848
				c-3.384,3.379-3.386,8.862-0.006,12.245l36.848,36.889c1.624,1.625,3.825,2.538,6.122,2.539c0.002,0,0.003,0,0.004,0
				c2.295,0,4.496-0.91,6.121-2.533c11.489-11.478,17.821-26.743,17.83-42.982C245.926,81.869,239.611,66.597,228.132,55.109z
				 M221.367,122.115l-24.003-24.03l24.029-24.003c4.692,7.062,7.209,15.347,7.205,24.02
				C228.594,106.773,226.067,115.056,221.367,122.115z"/>
		</g>
	</g>
	<g>
		<g>
			<path fill="#231F20" d="M188.437,90.08c-3.236-1.344-6.96-0.604-9.438,1.871L142.111,128.8c-3.384,3.38-3.386,8.863-0.006,12.247
				c11.477,11.49,26.741,17.822,42.982,17.831c0.001,0,0.003,0,0.004,0c2.295,0,4.495-0.911,6.12-2.532
				c1.625-1.624,2.538-3.825,2.539-6.122l0.028-52.139C193.781,94.581,191.672,91.422,188.437,90.08z M176.436,140.697
				c-5.493-1.107-10.69-3.263-15.353-6.369l15.365-15.348L176.436,140.697z"/>
		</g>
	</g>
	<g>
		<g>
			<path fill="#231F20" d="M228.094,128.848l-36.848-36.889c-2.476-2.478-6.199-3.222-9.437-1.882
				c-3.235,1.338-5.347,4.494-5.349,7.997l-0.028,52.139c-0.001,2.297,0.909,4.5,2.533,6.124c1.63,1.632,3.854,2.595,6.154,2.539
				c16.228,0,31.487-6.315,42.968-17.782c1.626-1.624,2.539-3.825,2.54-6.122C230.627,132.677,229.717,130.473,228.094,128.848z
				 M193.755,140.705l0.012-21.717l15.348,15.365C204.448,137.454,199.248,139.604,193.755,140.705z"/>
		</g>
	</g>
	<g>
		<g>
			<rect x="261.254" y="36.762" fill="#ED2F59" width="16.889" height="16.888"/>
		</g>
	</g>
	<g>
		<g>
			<rect x="261.243" y="66.461" fill="#ED2F59" width="16.888" height="16.889"/>
		</g>
	</g>
	<g>
		<g>
			<rect x="261.232" y="96.162" fill="#ED2F59" width="16.888" height="16.889"/>
		</g>
	</g>
	<g>
		<g>
			<rect x="261.221" y="125.864" fill="#ED2F59" width="16.89" height="16.888"/>
		</g>
	</g>
	<g>
		<g>
			<rect x="261.199" y="155.566" fill="#ED2F59" width="16.888" height="16.889"/>
		</g>
	</g>
	<g>
		<g>
			<path fill="#231F20" d="M385.364,190.161l-256.914-0.139c-0.001,0-0.003,0-0.004,0c-4.78,0-8.657,3.874-8.659,8.655
				c-0.002,4.782,3.873,8.662,8.655,8.664l256.916,0.139c0,0,0.002,0,0.004,0c4.779,0,8.656-3.874,8.658-8.655
				C394.021,194.043,390.146,190.163,385.364,190.161z"/>
		</g>
	</g>
	<g>
		<g>
			<path fill="#231F20" d="M385.35,155.226c-0.008,0-0.016,0-0.024,0l-86.3,0.242c-4.781,0.013-8.649,3.901-8.635,8.683
				c0.014,4.775,3.888,8.636,8.657,8.636c0.009,0,0.017,0,0.025,0l86.299-0.242c4.782-0.013,8.649-3.901,8.636-8.683
				C393.994,159.087,390.12,155.226,385.35,155.226z"/>
		</g>
	</g>
	<g>
		<g>
			<path fill="#231F20" d="M385.354,125.525c-0.009,0-0.017,0-0.025,0l-86.3,0.241c-4.782,0.013-8.65,3.901-8.636,8.683
				c0.014,4.775,3.888,8.636,8.657,8.636c0.009,0,0.017,0,0.025,0l86.3-0.241c4.782-0.013,8.65-3.901,8.636-8.683
				C393.998,129.386,390.124,125.525,385.354,125.525z"/>
		</g>
	</g>
	<g>
		<g>
			<path fill="#231F20" d="M385.355,95.825c-0.008,0-0.016,0-0.024,0l-86.3,0.242c-4.782,0.013-8.65,3.901-8.637,8.683
				c0.015,4.775,3.889,8.636,8.659,8.636c0.009,0,0.017,0,0.024,0l86.3-0.242c4.782-0.013,8.65-3.901,8.636-8.683
				C394.001,99.686,390.127,95.825,385.355,95.825z"/>
		</g>
	</g>
	<g>
		<g>
			<path fill="#231F20" d="M385.359,66.126c-0.008,0-0.016,0-0.024,0l-86.3,0.241c-4.782,0.013-8.65,3.901-8.637,8.683
				c0.015,4.775,3.889,8.636,8.66,8.636c0.008,0,0.016,0,0.023,0l86.3-0.241c4.782-0.013,8.65-3.901,8.636-8.683
				C394.004,69.987,390.13,66.126,385.359,66.126z"/>
		</g>
	</g>
	<g>
		<g>
			<path fill="#231F20" d="M385.362,36.426c-0.009,0-0.017,0-0.025,0l-86.299,0.241c-4.782,0.013-8.65,3.901-8.636,8.683
				c0.014,4.775,3.888,8.636,8.658,8.636c0.009,0,0.017,0,0.024,0l86.299-0.241c4.782-0.013,8.65-3.901,8.636-8.683
				C394.006,40.287,390.132,36.426,385.362,36.426z"/>
		</g>
	</g>
	<g>
		<g>
			<path fill="#231F20" d="M385.314,224.034L128.4,223.896c-0.001,0-0.003,0-0.004,0c-4.78,0-8.657,3.874-8.659,8.655
				c-0.002,4.782,3.873,8.662,8.655,8.664l256.915,0.139c0.002,0,0.002,0,0.004,0c4.78,0,8.657-3.874,8.658-8.655
				C393.972,227.916,390.098,224.037,385.314,224.034z"/>
		</g>
	</g>
	<g>
		<g>
			<path fill="#231F20" d="M385.214,257.908L128.3,257.77c-0.002,0-0.003,0-0.004,0c-4.78,0-8.657,3.873-8.659,8.654
				c-0.002,4.782,3.873,8.662,8.655,8.664l256.915,0.139c0.001,0,0.002,0,0.004,0c4.78,0,8.657-3.875,8.658-8.654
				C393.871,261.789,389.997,257.91,385.214,257.908z"/>
		</g>
	</g>
	<g>
		<g>
			<path fill="#231F20" d="M267.537,291.671c-0.001,0-0.003,0-0.005,0l-139.289,0.078c-4.783,0.003-8.657,3.882-8.655,8.665
				c0.002,4.781,3.878,8.654,8.659,8.654c0.001,0,0.003,0,0.005,0l139.29-0.078c4.782-0.003,8.657-3.883,8.654-8.665
				C276.193,295.544,272.316,291.671,267.537,291.671z"/>
		</g>
	</g>
	<g>
		<g>
			<path fill="#231F20" d="M385.206,456.664l-248.228-0.134l0.069-128.757c0.002-4.782-3.873-8.662-8.655-8.664
				c-0.001,0-0.003,0-0.004,0c-4.78,0-8.657,3.874-8.659,8.654l-0.074,137.416c-0.002,4.782,3.872,8.66,8.654,8.664l256.888,0.141
				c0.001,0,0.002,0,0.004,0c4.779,0,8.656-3.874,8.659-8.655C393.863,460.546,389.989,456.667,385.206,456.664z"/>
		</g>
	</g>
	<g>
		<g>
			<path fill="#ED2F59" d="M358.922,348.281c-1.46-0.593-3.116,0.108-3.711,1.565l-16.047,39.459l-35.352,19.828l-39.597-15.735
				L232.17,418.07l-51.601-25.019l-35.561,43.739c-0.993,1.22-0.806,3.015,0.414,4.007c0.527,0.429,1.161,0.64,1.792,0.64
				c0.828,0,1.651-0.359,2.213-1.052l32.713-40.241l50.711,24.589l32.271-24.845l39.109,15.541l39.457-22.135l16.798-41.304
				C361.08,350.535,360.379,348.874,358.922,348.281z"/>
		</g>
	</g>
	<g>
		<g>
			<circle fill="#ED2F59" cx="181.403" cy="397.682" r="6.865"/>
		</g>
	</g>
	<g>
		<g>
			<circle fill="#ED2F59" cx="232.082" cy="420.565" r="6.865"/>
		</g>
	</g>
	<g>
		<g>
			<circle fill="#ED2F59" cx="265.204" cy="397.736" r="6.865"/>
		</g>
	</g>
	<g>
		<g>
			<circle fill="#ED2F59" cx="303.814" cy="411.483" r="6.865"/>
		</g>
	</g>
	<g>
		<g>
			<circle fill="#ED2F59" cx="341.028" cy="390.906" r="6.865"/>
		</g>
	</g>
</g>
</svg>
