<?xml version="1.0" encoding="utf-8"?>
<!-- Generator: Adobe Illustrator 16.0.0, SVG Export Plug-In . SVG Version: 6.00 Build 0)  -->
<!DOCTYPE svg PUBLIC "-//W3C//DTD SVG 1.1//EN" "http://www.w3.org/Graphics/SVG/1.1/DTD/svg11.dtd">
<svg version="1.1" id="Capa_1" xmlns="http://www.w3.org/2000/svg" xmlns:xlink="http://www.w3.org/1999/xlink" x="0px" y="0px"
	 width="512px" height="512px" viewBox="0 0 512 512" enable-background="new 0 0 512 512" xml:space="preserve">
<g>
	<g>
		<g>
			<path fill="#231F20" d="M427.381,0H84.619c-4.782,0-8.659,3.877-8.659,8.659V503.34c0,4.782,3.877,8.659,8.659,8.659H427.38
				c4.782,0,8.659-3.877,8.659-8.659V8.659C436.04,3.877,432.163,0,427.381,0z M418.721,494.681H93.279V17.319h325.441V494.681z"/>
		</g>
	</g>
	<g>
		<g>
			<path fill="#ED2F59" d="M104.501,98.034"/>
		</g>
	</g>
	<g>
		<g>
			<path fill="#231F20" d="M245.918,98.11"/>
		</g>
	</g>
	<g>
		<g>
			<path fill="#231F20" d="M385.364,190.161l-256.914-0.139c-0.001,0-0.003,0-0.004,0c-4.78,0-8.657,3.874-8.659,8.655
				c-0.002,4.782,3.873,8.662,8.655,8.664l256.916,0.139c0,0,0.002,0,0.004,0c4.779,0,8.656-3.874,8.658-8.655
				C394.021,194.043,390.146,190.163,385.364,190.161z"/>
		</g>
	</g>
	<g>
		<g>
			<path fill="#231F20" d="M385.314,224.034L128.4,223.896c-0.001,0-0.003,0-0.004,0c-4.78,0-8.657,3.874-8.659,8.655
				c-0.002,4.782,3.873,8.662,8.655,8.664l256.915,0.139c0.002,0,0.002,0,0.004,0c4.78,0,8.657-3.874,8.658-8.655
				C393.972,227.916,390.098,224.037,385.314,224.034z"/>
		</g>
	</g>
	<g>
		<g>
			<path fill="#231F20" d="M385.214,257.908L128.3,257.77c-0.002,0-0.003,0-0.004,0c-4.78,0-8.657,3.873-8.659,8.654
				c-0.002,4.782,3.873,8.662,8.655,8.664l256.915,0.139c0.001,0,0.002,0,0.004,0c4.78,0,8.657-3.875,8.658-8.654
				C393.871,261.789,389.997,257.91,385.214,257.908z"/>
		</g>
	</g>
	<g>
		<g>
			<path fill="#231F20" d="M267.537,291.671c-0.001,0-0.003,0-0.005,0l-139.289,0.078c-4.783,0.003-8.657,3.882-8.655,8.665
				c0.002,4.781,3.878,8.654,8.659,8.654c0.001,0,0.003,0,0.005,0l139.29-0.078c4.782-0.003,8.657-3.883,8.654-8.665
				C276.193,295.544,272.316,291.671,267.537,291.671z"/>
		</g>
	</g>
	<g>
		<g>
			<path fill="#231F20" d="M385.206,456.664l-248.228-0.134l0.069-128.757c0.002-4.782-3.873-8.662-8.655-8.664
				c-0.001,0-0.003,0-0.004,0c-4.78,0-8.657,3.874-8.659,8.654l-0.074,137.416c-0.002,4.782,3.872,8.66,8.654,8.664l256.888,0.141
				c0.001,0,0.002,0,0.004,0c4.779,0,8.656-3.874,8.659-8.655C393.863,460.546,389.989,456.667,385.206,456.664z"/>
		</g>
	</g>
	<g>
		<g>
			<path fill="#ED2F59" d="M358.922,348.281c-1.46-0.593-3.116,0.108-3.711,1.565l-16.047,39.459l-35.352,19.828l-39.597-15.735
				L232.17,418.07l-51.601-25.019l-35.561,43.739c-0.993,1.22-0.806,3.015,0.414,4.007c0.527,0.429,1.161,0.64,1.792,0.64
				c0.828,0,1.651-0.359,2.213-1.052l32.713-40.241l50.711,24.589l32.271-24.845l39.109,15.541l39.457-22.135l16.798-41.304
				C361.08,350.535,360.379,348.874,358.922,348.281z"/>
		</g>
	</g>
	<g>
		<g>
			<circle fill="#ED2F59" cx="181.403" cy="397.682" r="6.865"/>
		</g>
	</g>
	<g>
		<g>
			<circle fill="#ED2F59" cx="232.082" cy="420.565" r="6.865"/>
		</g>
	</g>
	<g>
		<g>
			<circle fill="#ED2F59" cx="265.204" cy="397.736" r="6.865"/>
		</g>
	</g>
	<g>
		<g>
			<circle fill="#ED2F59" cx="303.814" cy="411.483" r="6.865"/>
		</g>
	</g>
	<g>
		<g>
			<circle fill="#ED2F59" cx="341.028" cy="390.906" r="6.865"/>
		</g>
	</g>
</g>
<g>
	<g>
		<path fill="#231F20" d="M384.364,123.161l-256.914-0.139c-0.001,0-0.003,0-0.004,0c-4.78,0-8.657,3.874-8.659,8.655
			c-0.002,4.782,3.873,8.662,8.655,8.664l256.916,0.139c0,0,0.002,0,0.004,0c4.779,0,8.656-3.874,8.658-8.655
			C393.021,127.043,389.146,123.163,384.364,123.161z"/>
	</g>
</g>
<g>
	<g>
		<path fill="#231F20" d="M384.314,157.034L127.4,156.896c-0.001,0-0.003,0-0.004,0c-4.78,0-8.657,3.873-8.659,8.654
			c-0.002,4.782,3.873,8.662,8.655,8.664l256.915,0.139c0.002,0,0.002,0,0.004,0c4.78,0,8.657-3.873,8.658-8.654
			C392.972,160.916,389.098,157.037,384.314,157.034z"/>
	</g>
</g>
<g>
	<g>
		<path fill="#231F20" d="M384.364,55.161L127.45,55.022c-0.001,0-0.003,0-0.004,0c-4.78,0-8.657,3.874-8.659,8.655
			c-0.002,4.782,3.873,8.662,8.655,8.664l256.916,0.139c0,0,0.002,0,0.004,0c4.779,0,8.656-3.874,8.658-8.655
			C393.021,59.043,389.146,55.163,384.364,55.161z"/>
	</g>
</g>
<g>
	<g>
		<path fill="#231F20" d="M384.314,89.034L127.4,88.896c-0.001,0-0.003,0-0.004,0c-4.78,0-8.657,3.873-8.659,8.654
			c-0.002,4.782,3.873,8.662,8.655,8.664l256.915,0.139c0.002,0,0.002,0,0.004,0c4.78,0,8.657-3.873,8.658-8.654
			C392.972,92.916,389.098,89.037,384.314,89.034z"/>
	</g>
</g>
</svg>
