<svg id="Layer_1" data-name="Layer 1" xmlns="http://www.w3.org/2000/svg" viewBox="0 0 119.65 204.72"><defs><style>.cls-1{fill:#231f20;}</style></defs><title>Artboard 2</title><path class="cls-1" d="M11.44 152.26v42h25.12v9.53H.11v-51.53zM43.19 172a12.3 12.3 0 0 1 4-3.82 17.62 17.62 0 0 1 5.52-2.06 31.42 31.42 0 0 1 6.17-.61 41.93 41.93 0 0 1 5.7.4 17.49 17.49 0 0 1 5.27 1.55 10.38 10.38 0 0 1 3.9 3.21 9 9 0 0 1 1.51 5.45v19.41a39 39 0 0 0 .29 4.83 8.71 8.71 0 0 0 1 3.46H66.22a14.46 14.46 0 0 1-.47-1.77 15 15 0 0 1-.25-1.84 13.36 13.36 0 0 1-5.77 3.54 23.2 23.2 0 0 1-6.78 1 18.33 18.33 0 0 1-5-.65 11.4 11.4 0 0 1-4-2 9.41 9.41 0 0 1-2.71-3.46 11.72 11.72 0 0 1-1-5 10.88 10.88 0 0 1 1.12-5.23 9.36 9.36 0 0 1 2.89-3.28 13 13 0 0 1 4-1.84 43.49 43.49 0 0 1 4.58-1q2.31-.36 4.55-.58a27.33 27.33 0 0 0 4-.65 6.92 6.92 0 0 0 2.74-1.26 2.77 2.77 0 0 0 .94-2.42 5.44 5.44 0 0 0-.54-2.63 4 4 0 0 0-1.44-1.52 5.68 5.68 0 0 0-2.08-.73 17.21 17.21 0 0 0-2.56-.18 7.78 7.78 0 0 0-4.76 1.3 5.8 5.8 0 0 0-2 4.33H41.39a11.91 11.91 0 0 1 1.8-5.95zm20.24 14.47a16.53 16.53 0 0 1-2.09.54c-.75.14-1.53.27-2.35.36s-1.64.22-2.45.36a18.58 18.58 0 0 0-2.27.58 6.73 6.73 0 0 0-1.95 1 4.63 4.63 0 0 0-1.32 1.48 5 5 0 0 0-.51 2.38 4.8 4.8 0 0 0 .51 2.31 3.86 3.86 0 0 0 1.36 1.52 5.78 5.78 0 0 0 2 .76 12.89 12.89 0 0 0 2.38.22 9.05 9.05 0 0 0 4.69-1 6.75 6.75 0 0 0 2.45-2.42 7.73 7.73 0 0 0 1-2.85 19.72 19.72 0 0 0 .18-2.31v-3.82a4.58 4.58 0 0 1-1.62.84zM92 152.26V171h.14a10.94 10.94 0 0 1 5.09-4.22 17.22 17.22 0 0 1 6.67-1.34 14.23 14.23 0 0 1 10.5 4.69 18.08 18.08 0 0 1 3.57 6.1 29.18 29.18 0 0 1 0 17.68 18.07 18.07 0 0 1-3.57 6.1 14.23 14.23 0 0 1-10.5 4.69 19.68 19.68 0 0 1-7.36-1.3 9.34 9.34 0 0 1-4.91-4.4h-.14v4.76H81.8v-51.5zm16.6 28.36a11.89 11.89 0 0 0-1.59-3.82 8.33 8.33 0 0 0-2.71-2.63 8.36 8.36 0 0 0-7.83 0 8.19 8.19 0 0 0-2.74 2.63 11.85 11.85 0 0 0-1.59 3.82 19.92 19.92 0 0 0-.5 4.55 19.6 19.6 0 0 0 .5 4.47 11.85 11.85 0 0 0 1.59 3.82 8.17 8.17 0 0 0 2.74 2.63 8.35 8.35 0 0 0 7.83 0 8.3 8.3 0 0 0 2.71-2.63 11.88 11.88 0 0 0 1.59-3.82 19.69 19.69 0 0 0 .51-4.47 20 20 0 0 0-.46-4.55zM34.79 25.68h24.76c6 0 14 0 18.08 2.49a16.2 16.2 0 0 1 8 14.25 15.76 15.76 0 0 1-10.13 15.3v.19c8.42 1.72 13 8 13 16.45 0 10-7.17 19.6-20.75 19.6h-33zM43.87 55H62c10.32 0 14.54-3.73 14.54-10.9 0-9.47-6.69-10.8-14.54-10.8H43.87zm0 31.27h22.77c7.84 0 12.82-4.78 12.82-12.24 0-8.9-7.17-11.38-14.83-11.38H43.87z"/><path class="cls-1" d="M111.76 59.85A51.94 51.94 0 1 1 59.82 7.92a51.94 51.94 0 0 1 51.94 51.93zM59.82 0a59.82 59.82 0 1 0 59.83 59.82A59.82 59.82 0 0 0 59.82 0zM0 132.26h119.4v7.85H0zM115.67 123.62h.42a1 1 0 0 0 .34-.08.59.59 0 0 0 .25-.21.69.69 0 0 0 .09-.39.56.56 0 0 0-.08-.33.48.48 0 0 0-.21-.19.85.85 0 0 0-.29-.1H115v1.33zm.29-1.85a1.73 1.73 0 0 1 1.1.29 1.11 1.11 0 0 1 .36.9 1 1 0 0 1-.32.83 1.5 1.5 0 0 1-.79.31l1.19 1.83h-.69l-1.14-1.79H115v1.79h-.66v-4.16zm-2.96 3.28a2.72 2.72 0 0 0 .61 1 2.83 2.83 0 0 0 .94.64 2.89 2.89 0 0 0 1.16.22 2.85 2.85 0 0 0 1.16-.22 3.05 3.05 0 0 0 .94-.64 3 3 0 0 0 .61-1 3.09 3.09 0 0 0 .23-1.2 3.05 3.05 0 0 0-.23-1.2 3 3 0 0 0-.61-1 3.1 3.1 0 0 0-.94-.64 2.93 2.93 0 0 0-1.16-.23 3 3 0 0 0-1.16.23 2.87 2.87 0 0 0-.94.64 2.71 2.71 0 0 0-.61 1 3.07 3.07 0 0 0-.23 1.2 3.11 3.11 0 0 0 .23 1.2m-.59-2.62a3.75 3.75 0 0 1 .77-1.12 3.64 3.64 0 0 1 1.15-.75 3.51 3.51 0 0 1 1.38-.27 3.56 3.56 0 0 1 3.29 2.13 3.37 3.37 0 0 1 .29 1.41 3.33 3.33 0 0 1-.29 1.41 3.47 3.47 0 0 1-.77 1.14 3.42 3.42 0 0 1-1.12.75 3.71 3.71 0 0 1-1.4.26 3.64 3.64 0 0 1-1.38-.26 3.49 3.49 0 0 1-1.15-.75 3.61 3.61 0 0 1-.77-1.14 3.31 3.31 0 0 1-.28-1.41 3.35 3.35 0 0 1 .28-1.41"/></svg>