<?xml version="1.0" encoding="UTF-8" standalone="no"?>
<svg width="455px" height="432px" viewBox="0 0 455 432" version="1.1" xmlns="http://www.w3.org/2000/svg" xmlns:xlink="http://www.w3.org/1999/xlink">
    <!-- Generator: Sketch 40.3 (33839) - http://www.bohemiancoding.com/sketch -->
    <title>bookshelf_lg</title>
    <desc>Created with Sketch.</desc>
    <defs>
        <rect id="path-1" x="135" y="31" width="39" height="114" rx="2"></rect>
        <mask id="mask-2" maskContentUnits="userSpaceOnUse" maskUnits="objectBoundingBox" x="0" y="0" width="39" height="114" fill="white">
            <use xlink:href="#path-1"></use>
        </mask>
        <rect id="path-3" x="135" y="71" width="39" height="35"></rect>
        <mask id="mask-4" maskContentUnits="userSpaceOnUse" maskUnits="objectBoundingBox" x="0" y="0" width="39" height="35" fill="white">
            <use xlink:href="#path-3"></use>
        </mask>
        <rect id="path-5" x="0" y="0" width="30" height="114" rx="2"></rect>
        <mask id="mask-6" maskContentUnits="userSpaceOnUse" maskUnits="objectBoundingBox" x="0" y="0" width="30" height="114" fill="white">
            <use xlink:href="#path-5"></use>
        </mask>
        <rect id="path-7" x="0" y="40" width="30" height="35"></rect>
        <mask id="mask-8" maskContentUnits="userSpaceOnUse" maskUnits="objectBoundingBox" x="0" y="0" width="30" height="35" fill="white">
            <use xlink:href="#path-7"></use>
        </mask>
        <rect id="path-9" x="97" y="31" width="39" height="114" rx="2"></rect>
        <mask id="mask-10" maskContentUnits="userSpaceOnUse" maskUnits="objectBoundingBox" x="0" y="0" width="39" height="114" fill="white">
            <use xlink:href="#path-9"></use>
        </mask>
        <rect id="path-11" x="97" y="71" width="39" height="35"></rect>
        <mask id="mask-12" maskContentUnits="userSpaceOnUse" maskUnits="objectBoundingBox" x="0" y="0" width="39" height="35" fill="white">
            <use xlink:href="#path-11"></use>
        </mask>
        <rect id="path-13" x="0" y="0" width="39" height="114" rx="2"></rect>
        <mask id="mask-14" maskContentUnits="userSpaceOnUse" maskUnits="objectBoundingBox" x="0" y="0" width="39" height="114" fill="white">
            <use xlink:href="#path-13"></use>
        </mask>
        <rect id="path-15" x="0" y="40" width="39" height="35"></rect>
        <mask id="mask-16" maskContentUnits="userSpaceOnUse" maskUnits="objectBoundingBox" x="0" y="0" width="39" height="35" fill="white">
            <use xlink:href="#path-15"></use>
        </mask>
        <rect id="path-17" x="0" y="0" width="30" height="114" rx="2"></rect>
        <mask id="mask-18" maskContentUnits="userSpaceOnUse" maskUnits="objectBoundingBox" x="0" y="0" width="30" height="114" fill="white">
            <use xlink:href="#path-17"></use>
        </mask>
        <rect id="path-19" x="0" y="40" width="30" height="35"></rect>
        <mask id="mask-20" maskContentUnits="userSpaceOnUse" maskUnits="objectBoundingBox" x="0" y="0" width="30" height="35" fill="white">
            <use xlink:href="#path-19"></use>
        </mask>
        <rect id="path-21" x="0" y="0" width="39" height="114" rx="2"></rect>
        <mask id="mask-22" maskContentUnits="userSpaceOnUse" maskUnits="objectBoundingBox" x="0" y="0" width="39" height="114" fill="white">
            <use xlink:href="#path-21"></use>
        </mask>
        <rect id="path-23" x="0" y="40" width="39" height="35"></rect>
        <mask id="mask-24" maskContentUnits="userSpaceOnUse" maskUnits="objectBoundingBox" x="0" y="0" width="39" height="35" fill="white">
            <use xlink:href="#path-23"></use>
        </mask>
        <rect id="path-25" x="0" y="-1.13686838e-13" width="30" height="114" rx="2"></rect>
        <mask id="mask-26" maskContentUnits="userSpaceOnUse" maskUnits="objectBoundingBox" x="0" y="0" width="30" height="114" fill="white">
            <use xlink:href="#path-25"></use>
        </mask>
        <rect id="path-27" x="0" y="40" width="30" height="35"></rect>
        <mask id="mask-28" maskContentUnits="userSpaceOnUse" maskUnits="objectBoundingBox" x="0" y="0" width="30" height="35" fill="white">
            <use xlink:href="#path-27"></use>
        </mask>
        <rect id="path-29" x="0" y="-1.13686838e-13" width="32" height="114" rx="2"></rect>
        <mask id="mask-30" maskContentUnits="userSpaceOnUse" maskUnits="objectBoundingBox" x="0" y="0" width="32" height="114" fill="white">
            <use xlink:href="#path-29"></use>
        </mask>
        <rect id="path-31" x="0" y="40" width="32" height="35"></rect>
        <mask id="mask-32" maskContentUnits="userSpaceOnUse" maskUnits="objectBoundingBox" x="0" y="0" width="32" height="35" fill="white">
            <use xlink:href="#path-31"></use>
        </mask>
        <rect id="path-33" x="0" y="0" width="32" height="114" rx="2"></rect>
        <mask id="mask-34" maskContentUnits="userSpaceOnUse" maskUnits="objectBoundingBox" x="0" y="0" width="32" height="114" fill="white">
            <use xlink:href="#path-33"></use>
        </mask>
        <rect id="path-35" x="0" y="40" width="32" height="35"></rect>
        <mask id="mask-36" maskContentUnits="userSpaceOnUse" maskUnits="objectBoundingBox" x="0" y="0" width="32" height="35" fill="white">
            <use xlink:href="#path-35"></use>
        </mask>
        <rect id="path-37" x="135" y="318" width="39" height="114" rx="2"></rect>
        <mask id="mask-38" maskContentUnits="userSpaceOnUse" maskUnits="objectBoundingBox" x="0" y="0" width="39" height="114" fill="white">
            <use xlink:href="#path-37"></use>
        </mask>
        <rect id="path-39" x="135" y="358" width="39" height="35"></rect>
        <mask id="mask-40" maskContentUnits="userSpaceOnUse" maskUnits="objectBoundingBox" x="0" y="0" width="39" height="35" fill="white">
            <use xlink:href="#path-39"></use>
        </mask>
        <rect id="path-41" x="0" y="0" width="30" height="114" rx="2"></rect>
        <mask id="mask-42" maskContentUnits="userSpaceOnUse" maskUnits="objectBoundingBox" x="0" y="0" width="30" height="114" fill="white">
            <use xlink:href="#path-41"></use>
        </mask>
        <rect id="path-43" x="0" y="40" width="30" height="35"></rect>
        <mask id="mask-44" maskContentUnits="userSpaceOnUse" maskUnits="objectBoundingBox" x="0" y="0" width="30" height="35" fill="white">
            <use xlink:href="#path-43"></use>
        </mask>
        <rect id="path-45" x="97" y="318" width="39" height="114" rx="2"></rect>
        <mask id="mask-46" maskContentUnits="userSpaceOnUse" maskUnits="objectBoundingBox" x="0" y="0" width="39" height="114" fill="white">
            <use xlink:href="#path-45"></use>
        </mask>
        <rect id="path-47" x="97" y="358" width="39" height="35"></rect>
        <mask id="mask-48" maskContentUnits="userSpaceOnUse" maskUnits="objectBoundingBox" x="0" y="0" width="39" height="35" fill="white">
            <use xlink:href="#path-47"></use>
        </mask>
        <rect id="path-49" x="0" y="0" width="39" height="114" rx="2"></rect>
        <mask id="mask-50" maskContentUnits="userSpaceOnUse" maskUnits="objectBoundingBox" x="0" y="0" width="39" height="114" fill="white">
            <use xlink:href="#path-49"></use>
        </mask>
        <rect id="path-51" x="0" y="40" width="39" height="35"></rect>
        <mask id="mask-52" maskContentUnits="userSpaceOnUse" maskUnits="objectBoundingBox" x="0" y="0" width="39" height="35" fill="white">
            <use xlink:href="#path-51"></use>
        </mask>
        <rect id="path-53" x="0" y="0" width="30" height="114" rx="2"></rect>
        <mask id="mask-54" maskContentUnits="userSpaceOnUse" maskUnits="objectBoundingBox" x="0" y="0" width="30" height="114" fill="white">
            <use xlink:href="#path-53"></use>
        </mask>
        <rect id="path-55" x="0" y="40" width="30" height="35"></rect>
        <mask id="mask-56" maskContentUnits="userSpaceOnUse" maskUnits="objectBoundingBox" x="0" y="0" width="30" height="35" fill="white">
            <use xlink:href="#path-55"></use>
        </mask>
        <rect id="path-57" x="0" y="0" width="39" height="114" rx="2"></rect>
        <mask id="mask-58" maskContentUnits="userSpaceOnUse" maskUnits="objectBoundingBox" x="0" y="0" width="39" height="114" fill="white">
            <use xlink:href="#path-57"></use>
        </mask>
        <rect id="path-59" x="0" y="40" width="39" height="35"></rect>
        <mask id="mask-60" maskContentUnits="userSpaceOnUse" maskUnits="objectBoundingBox" x="0" y="0" width="39" height="35" fill="white">
            <use xlink:href="#path-59"></use>
        </mask>
        <rect id="path-61" x="0" y="-1.13686838e-13" width="30" height="114" rx="2"></rect>
        <mask id="mask-62" maskContentUnits="userSpaceOnUse" maskUnits="objectBoundingBox" x="0" y="0" width="30" height="114" fill="white">
            <use xlink:href="#path-61"></use>
        </mask>
        <rect id="path-63" x="0" y="40" width="30" height="35"></rect>
        <mask id="mask-64" maskContentUnits="userSpaceOnUse" maskUnits="objectBoundingBox" x="0" y="0" width="30" height="35" fill="white">
            <use xlink:href="#path-63"></use>
        </mask>
        <rect id="path-65" x="0" y="-1.13686838e-13" width="32" height="114" rx="2"></rect>
        <mask id="mask-66" maskContentUnits="userSpaceOnUse" maskUnits="objectBoundingBox" x="0" y="0" width="32" height="114" fill="white">
            <use xlink:href="#path-65"></use>
        </mask>
        <rect id="path-67" x="0" y="40" width="32" height="35"></rect>
        <mask id="mask-68" maskContentUnits="userSpaceOnUse" maskUnits="objectBoundingBox" x="0" y="0" width="32" height="35" fill="white">
            <use xlink:href="#path-67"></use>
        </mask>
        <rect id="path-69" x="0" y="-1.13686838e-13" width="32" height="114" rx="2"></rect>
        <mask id="mask-70" maskContentUnits="userSpaceOnUse" maskUnits="objectBoundingBox" x="0" y="0" width="32" height="114" fill="white">
            <use xlink:href="#path-69"></use>
        </mask>
        <rect id="path-71" x="0" y="40" width="32" height="35"></rect>
        <mask id="mask-72" maskContentUnits="userSpaceOnUse" maskUnits="objectBoundingBox" x="0" y="0" width="32" height="35" fill="white">
            <use xlink:href="#path-71"></use>
        </mask>
        <rect id="path-73" x="0" y="0" width="32" height="114" rx="2"></rect>
        <mask id="mask-74" maskContentUnits="userSpaceOnUse" maskUnits="objectBoundingBox" x="0" y="0" width="32" height="114" fill="white">
            <use xlink:href="#path-73"></use>
        </mask>
        <rect id="path-75" x="0" y="40" width="32" height="35"></rect>
        <mask id="mask-76" maskContentUnits="userSpaceOnUse" maskUnits="objectBoundingBox" x="0" y="0" width="32" height="35" fill="white">
            <use xlink:href="#path-75"></use>
        </mask>
        <rect id="path-77" x="0" y="0" width="39" height="111" rx="2"></rect>
        <mask id="mask-78" maskContentUnits="userSpaceOnUse" maskUnits="objectBoundingBox" x="0" y="0" width="39" height="111" fill="white">
            <use xlink:href="#path-77"></use>
        </mask>
        <rect id="path-79" x="0" y="0" width="35" height="111" rx="2"></rect>
        <mask id="mask-80" maskContentUnits="userSpaceOnUse" maskUnits="objectBoundingBox" x="0" y="0" width="35" height="111" fill="white">
            <use xlink:href="#path-79"></use>
        </mask>
        <rect id="path-81" x="0" y="0" width="30" height="111" rx="2"></rect>
        <mask id="mask-82" maskContentUnits="userSpaceOnUse" maskUnits="objectBoundingBox" x="0" y="0" width="30" height="111" fill="white">
            <use xlink:href="#path-81"></use>
        </mask>
        <rect id="path-83" x="0" y="0" width="30" height="111" rx="2"></rect>
        <mask id="mask-84" maskContentUnits="userSpaceOnUse" maskUnits="objectBoundingBox" x="0" y="0" width="30" height="111" fill="white">
            <use xlink:href="#path-83"></use>
        </mask>
        <rect id="path-85" x="0" y="0" width="30" height="111" rx="2"></rect>
        <mask id="mask-86" maskContentUnits="userSpaceOnUse" maskUnits="objectBoundingBox" x="0" y="0" width="30" height="111" fill="white">
            <use xlink:href="#path-85"></use>
        </mask>
        <rect id="path-87" x="0" y="0" width="30" height="111" rx="2"></rect>
        <mask id="mask-88" maskContentUnits="userSpaceOnUse" maskUnits="objectBoundingBox" x="0" y="0" width="30" height="111" fill="white">
            <use xlink:href="#path-87"></use>
        </mask>
        <rect id="path-89" x="0" y="0" width="26" height="111" rx="2"></rect>
        <mask id="mask-90" maskContentUnits="userSpaceOnUse" maskUnits="objectBoundingBox" x="0" y="0" width="26" height="111" fill="white">
            <use xlink:href="#path-89"></use>
        </mask>
        <rect id="path-91" x="0" y="0" width="35" height="111" rx="2"></rect>
        <mask id="mask-92" maskContentUnits="userSpaceOnUse" maskUnits="objectBoundingBox" x="0" y="0" width="35" height="111" fill="white">
            <use xlink:href="#path-91"></use>
        </mask>
        <rect id="path-93" x="0" y="0" width="39" height="111" rx="2"></rect>
        <mask id="mask-94" maskContentUnits="userSpaceOnUse" maskUnits="objectBoundingBox" x="0" y="0" width="39" height="111" fill="white">
            <use xlink:href="#path-93"></use>
        </mask>
        <rect id="path-95" x="0" y="0" width="454" height="432"></rect>
        <mask id="mask-96" maskContentUnits="userSpaceOnUse" maskUnits="objectBoundingBox" x="0" y="0" width="454" height="432" fill="white">
            <use xlink:href="#path-95"></use>
        </mask>
    </defs>
    <g id="Marketing-Site" stroke="none" stroke-width="1" fill="none" fill-rule="evenodd">
        <g id="About" transform="translate(-125.000000, -719.000000)">
            <g id="bookshelf_lg" transform="translate(125.000000, 719.000000)">
                <path d="M0.498892009,144.5 L453.51766,144.5" id="Line-Copy-25" stroke="#22262E" stroke-linecap="square"></path>
                <use id="Rectangle-56" stroke="#22262E" mask="url(#mask-2)" stroke-width="2" xlink:href="#path-1"></use>
                <path d="M146.478957,125.5 L163.5,125.5" id="Line-Copy-9" stroke="#22262E" stroke-linecap="square"></path>
                <path d="M146.478957,52.5 L163.5,52.5" id="Line-Copy-51" stroke="#22262E" stroke-linecap="square"></path>
                <path d="M144.5,80.5 L165.5,80.5" id="Line-Copy-12" stroke="#008FD5" stroke-linecap="square"></path>
                <path d="M146.5,88.5 L163.5,88.5" id="Line-Copy-14" stroke="#008FD5" stroke-linecap="square"></path>
                <path d="M145.5,96.5 L164.5,96.5" id="Line-Copy-18" stroke="#008FD5" stroke-linecap="square"></path>
                <use id="Rectangle-52" stroke="#22262E" mask="url(#mask-4)" stroke-width="2" xlink:href="#path-3"></use>
                <g id="Group-7" transform="translate(30.000000, 31.000000)">
                    <use id="Rectangle-56" stroke="#22262E" mask="url(#mask-6)" stroke-width="2" xlink:href="#path-5"></use>
                    <path d="M8.82996669,94.5 L21.9230769,94.5" id="Line-Copy-9" stroke="#22262E" stroke-linecap="square"></path>
                    <path d="M8.82996669,21.5 L21.9230769,21.5" id="Line-Copy-51" stroke="#22262E" stroke-linecap="square"></path>
                    <path d="M7.30769231,49.5 L23.4615385,49.5" id="Line-Copy-12" stroke="#008FD5" stroke-linecap="square"></path>
                    <path d="M8.84615385,57.5 L21.9230769,57.5" id="Line-Copy-14" stroke="#008FD5" stroke-linecap="square"></path>
                    <path d="M8.07692308,65.5 L22.6923077,65.5" id="Line-Copy-18" stroke="#008FD5" stroke-linecap="square"></path>
                    <use id="Rectangle-52" stroke="#22262E" mask="url(#mask-8)" stroke-width="2" xlink:href="#path-7"></use>
                </g>
                <use id="Rectangle-56" stroke="#22262E" mask="url(#mask-10)" stroke-width="2" xlink:href="#path-9"></use>
                <path d="M108.478957,125.5 L125.5,125.5" id="Line-Copy-9" stroke="#22262E" stroke-linecap="square"></path>
                <path d="M108.478957,52.5 L125.5,52.5" id="Line-Copy-51" stroke="#22262E" stroke-linecap="square"></path>
                <path d="M106.5,80.5 L127.5,80.5" id="Line-Copy-12" stroke="#008FD5" stroke-linecap="square"></path>
                <path d="M108.5,88.5 L125.5,88.5" id="Line-Copy-14" stroke="#008FD5" stroke-linecap="square"></path>
                <path d="M107.5,96.5 L126.5,96.5" id="Line-Copy-18" stroke="#008FD5" stroke-linecap="square"></path>
                <use id="Rectangle-52" stroke="#22262E" mask="url(#mask-12)" stroke-width="2" xlink:href="#path-11"></use>
                <g id="Group-8" transform="translate(59.000000, 31.000000)">
                    <use id="Rectangle-56" stroke="#22262E" mask="url(#mask-14)" stroke-width="2" xlink:href="#path-13"></use>
                    <path d="M11.4789567,94.5 L28.5,94.5" id="Line-Copy-9" stroke="#22262E" stroke-linecap="square"></path>
                    <path d="M11.4789567,21.5 L28.5,21.5" id="Line-Copy-51" stroke="#22262E" stroke-linecap="square"></path>
                    <path d="M9.5,49.5 L30.5,49.5" id="Line-Copy-12" stroke="#008FD5" stroke-linecap="square"></path>
                    <path d="M11.5,57.5 L28.5,57.5" id="Line-Copy-14" stroke="#008FD5" stroke-linecap="square"></path>
                    <path d="M10.5,65.5 L29.5,65.5" id="Line-Copy-18" stroke="#008FD5" stroke-linecap="square"></path>
                    <use id="Rectangle-52" stroke="#22262E" mask="url(#mask-16)" stroke-width="2" xlink:href="#path-15"></use>
                </g>
                <g id="Group-8-Copy" transform="translate(173.000000, 31.000000)">
                    <use id="Rectangle-56" stroke="#22262E" mask="url(#mask-18)" stroke-width="2" xlink:href="#path-17"></use>
                    <path d="M8.82996669,94.5 L21.9230769,94.5" id="Line-Copy-9" stroke="#22262E" stroke-linecap="square"></path>
                    <path d="M8.82996669,21.5 L21.9230769,21.5" id="Line-Copy-51" stroke="#22262E" stroke-linecap="square"></path>
                    <path d="M7.30769231,49.5 L23.4615385,49.5" id="Line-Copy-12" stroke="#008FD5" stroke-linecap="square"></path>
                    <path d="M8.84615385,57.5 L21.9230769,57.5" id="Line-Copy-14" stroke="#008FD5" stroke-linecap="square"></path>
                    <path d="M8.07692308,65.5 L22.6923077,65.5" id="Line-Copy-18" stroke="#008FD5" stroke-linecap="square"></path>
                    <use id="Rectangle-52" stroke="#22262E" mask="url(#mask-20)" stroke-width="2" xlink:href="#path-19"></use>
                </g>
                <g id="Group-4" transform="translate(233.000000, 31.000000)">
                    <use id="Rectangle-56-Copy-4" stroke="#22262E" mask="url(#mask-22)" stroke-width="2" xlink:href="#path-21"></use>
                    <path d="M11.4789567,94.5 L28.5,94.5" id="Line-Copy-62" stroke="#22262E" stroke-linecap="square"></path>
                    <path d="M11.4789567,21.5 L28.5,21.5" id="Line-Copy-63" stroke="#22262E" stroke-linecap="square"></path>
                    <path d="M9.5,49.5 L30.5,49.5" id="Line-Copy-64" stroke="#008FD5" stroke-linecap="square"></path>
                    <path d="M11.5,57.5 L28.5,57.5" id="Line-Copy-65" stroke="#008FD5" stroke-linecap="square"></path>
                    <path d="M10.5,65.5 L29.5,65.5" id="Line-Copy-66" stroke="#008FD5" stroke-linecap="square"></path>
                    <use id="Rectangle-52-Copy-4" stroke="#22262E" mask="url(#mask-24)" stroke-width="2" xlink:href="#path-23"></use>
                </g>
                <g id="Group-4-Copy" transform="translate(359.000000, 130.000000) rotate(-270.000000) translate(-359.000000, -130.000000) translate(344.000000, 73.000000)">
                    <use id="Rectangle-56-Copy-4" stroke="#22262E" mask="url(#mask-26)" stroke-width="2" xlink:href="#path-25"></use>
                    <path d="M8.82996669,94.5 L21.9230769,94.5" id="Line-Copy-62" stroke="#22262E" stroke-linecap="square"></path>
                    <path d="M8.82996669,21.5 L21.9230769,21.5" id="Line-Copy-63" stroke="#22262E" stroke-linecap="square"></path>
                    <path d="M7.30769231,49.5 L23.4615385,49.5" id="Line-Copy-64" stroke="#008FD5" stroke-linecap="square"></path>
                    <path d="M8.84615385,57.5 L21.9230769,57.5" id="Line-Copy-65" stroke="#008FD5" stroke-linecap="square"></path>
                    <path d="M8.07692308,65.5 L22.6923077,65.5" id="Line-Copy-66" stroke="#008FD5" stroke-linecap="square"></path>
                    <use id="Rectangle-52-Copy-4" stroke="#22262E" mask="url(#mask-28)" stroke-width="2" xlink:href="#path-27"></use>
                </g>
                <g id="Group-4-Copy-2" transform="translate(370.000000, 100.000000) rotate(-270.000000) translate(-370.000000, -100.000000) translate(354.000000, 43.000000)">
                    <use id="Rectangle-56-Copy-4" stroke="#22262E" mask="url(#mask-30)" stroke-width="2" xlink:href="#path-29"></use>
                    <path d="M9.41863113,94.5 L23.3846154,94.5" id="Line-Copy-62" stroke="#22262E" stroke-linecap="square"></path>
                    <path d="M9.41863113,21.5 L23.3846154,21.5" id="Line-Copy-63" stroke="#22262E" stroke-linecap="square"></path>
                    <path d="M7.79487179,49.5 L25.025641,49.5" id="Line-Copy-64" stroke="#008FD5" stroke-linecap="square"></path>
                    <path d="M9.43589744,57.5 L23.3846154,57.5" id="Line-Copy-65" stroke="#008FD5" stroke-linecap="square"></path>
                    <path d="M8.61538462,65.5 L24.2051282,65.5" id="Line-Copy-66" stroke="#008FD5" stroke-linecap="square"></path>
                    <use id="Rectangle-52-Copy-4" stroke="#22262E" mask="url(#mask-32)" stroke-width="2" xlink:href="#path-31"></use>
                </g>
                <g id="Group-6" transform="translate(202.000000, 31.000000)">
                    <use id="Rectangle-56-Copy-5" stroke="#22262E" mask="url(#mask-34)" stroke-width="2" xlink:href="#path-33"></use>
                    <path d="M9.41863113,94.5 L23.3846154,94.5" id="Line-Copy-67" stroke="#22262E" stroke-linecap="square"></path>
                    <path d="M9.41863113,21.5 L23.3846154,21.5" id="Line-Copy-68" stroke="#22262E" stroke-linecap="square"></path>
                    <path d="M7.79487179,49.5 L25.025641,49.5" id="Line-Copy-69" stroke="#008FD5" stroke-linecap="square"></path>
                    <path d="M9.43589744,57.5 L23.3846154,57.5" id="Line-Copy-70" stroke="#008FD5" stroke-linecap="square"></path>
                    <path d="M8.61538462,65.5 L24.2051282,65.5" id="Line-Copy-71" stroke="#008FD5" stroke-linecap="square"></path>
                    <use id="Rectangle-52-Copy-5" stroke="#22262E" mask="url(#mask-36)" stroke-width="2" xlink:href="#path-35"></use>
                </g>
                <path d="M0.498892009,431.5 L453.51766,431.5" id="Line-Copy-25" stroke="#22262E" stroke-linecap="square"></path>
                <use id="Rectangle-56" stroke="#22262E" mask="url(#mask-38)" stroke-width="2" xlink:href="#path-37"></use>
                <path d="M146.478957,412.5 L163.5,412.5" id="Line-Copy-9" stroke="#22262E" stroke-linecap="square"></path>
                <path d="M146.478957,339.5 L163.5,339.5" id="Line-Copy-51" stroke="#22262E" stroke-linecap="square"></path>
                <path d="M144.5,367.5 L165.5,367.5" id="Line-Copy-12" stroke="#008FD5" stroke-linecap="square"></path>
                <path d="M146.5,375.5 L163.5,375.5" id="Line-Copy-14" stroke="#008FD5" stroke-linecap="square"></path>
                <path d="M145.5,383.5 L164.5,383.5" id="Line-Copy-18" stroke="#008FD5" stroke-linecap="square"></path>
                <use id="Rectangle-52" stroke="#22262E" mask="url(#mask-40)" stroke-width="2" xlink:href="#path-39"></use>
                <g id="Group-7" transform="translate(68.000000, 318.000000)">
                    <use id="Rectangle-56" stroke="#22262E" mask="url(#mask-42)" stroke-width="2" xlink:href="#path-41"></use>
                    <path d="M8.82996669,94.5 L21.9230769,94.5" id="Line-Copy-9" stroke="#22262E" stroke-linecap="square"></path>
                    <path d="M8.82996669,21.5 L21.9230769,21.5" id="Line-Copy-51" stroke="#22262E" stroke-linecap="square"></path>
                    <path d="M7.30769231,49.5 L23.4615385,49.5" id="Line-Copy-12" stroke="#008FD5" stroke-linecap="square"></path>
                    <path d="M8.84615385,57.5 L21.9230769,57.5" id="Line-Copy-14" stroke="#008FD5" stroke-linecap="square"></path>
                    <path d="M8.07692308,65.5 L22.6923077,65.5" id="Line-Copy-18" stroke="#008FD5" stroke-linecap="square"></path>
                    <use id="Rectangle-52" stroke="#22262E" mask="url(#mask-44)" stroke-width="2" xlink:href="#path-43"></use>
                </g>
                <use id="Rectangle-56" stroke="#22262E" mask="url(#mask-46)" stroke-width="2" xlink:href="#path-45"></use>
                <path d="M108.478957,412.5 L125.5,412.5" id="Line-Copy-9" stroke="#22262E" stroke-linecap="square"></path>
                <path d="M108.478957,339.5 L125.5,339.5" id="Line-Copy-51" stroke="#22262E" stroke-linecap="square"></path>
                <path d="M106.5,367.5 L127.5,367.5" id="Line-Copy-12" stroke="#008FD5" stroke-linecap="square"></path>
                <path d="M108.5,375.5 L125.5,375.5" id="Line-Copy-14" stroke="#008FD5" stroke-linecap="square"></path>
                <path d="M107.5,383.5 L126.5,383.5" id="Line-Copy-18" stroke="#008FD5" stroke-linecap="square"></path>
                <use id="Rectangle-52" stroke="#22262E" mask="url(#mask-48)" stroke-width="2" xlink:href="#path-47"></use>
                <g id="Group-8" transform="translate(30.000000, 318.000000)">
                    <use id="Rectangle-56" stroke="#22262E" mask="url(#mask-50)" stroke-width="2" xlink:href="#path-49"></use>
                    <path d="M11.4789567,94.5 L28.5,94.5" id="Line-Copy-9" stroke="#22262E" stroke-linecap="square"></path>
                    <path d="M11.4789567,21.5 L28.5,21.5" id="Line-Copy-51" stroke="#22262E" stroke-linecap="square"></path>
                    <path d="M9.5,49.5 L30.5,49.5" id="Line-Copy-12" stroke="#008FD5" stroke-linecap="square"></path>
                    <path d="M11.5,57.5 L28.5,57.5" id="Line-Copy-14" stroke="#008FD5" stroke-linecap="square"></path>
                    <path d="M10.5,65.5 L29.5,65.5" id="Line-Copy-18" stroke="#008FD5" stroke-linecap="square"></path>
                    <use id="Rectangle-52" stroke="#22262E" mask="url(#mask-52)" stroke-width="2" xlink:href="#path-51"></use>
                </g>
                <g id="Group-8-Copy" transform="translate(242.000000, 318.000000)">
                    <use id="Rectangle-56" stroke="#22262E" mask="url(#mask-54)" stroke-width="2" xlink:href="#path-53"></use>
                    <path d="M8.82996669,94.5 L21.9230769,94.5" id="Line-Copy-9" stroke="#22262E" stroke-linecap="square"></path>
                    <path d="M8.82996669,21.5 L21.9230769,21.5" id="Line-Copy-51" stroke="#22262E" stroke-linecap="square"></path>
                    <path d="M7.30769231,49.5 L23.4615385,49.5" id="Line-Copy-12" stroke="#008FD5" stroke-linecap="square"></path>
                    <path d="M8.84615385,57.5 L21.9230769,57.5" id="Line-Copy-14" stroke="#008FD5" stroke-linecap="square"></path>
                    <path d="M8.07692308,65.5 L22.6923077,65.5" id="Line-Copy-18" stroke="#008FD5" stroke-linecap="square"></path>
                    <use id="Rectangle-52" stroke="#22262E" mask="url(#mask-56)" stroke-width="2" xlink:href="#path-55"></use>
                </g>
                <g id="Group-4" transform="translate(204.000000, 318.000000)">
                    <use id="Rectangle-56-Copy-4" stroke="#22262E" mask="url(#mask-58)" stroke-width="2" xlink:href="#path-57"></use>
                    <path d="M11.4789567,94.5 L28.5,94.5" id="Line-Copy-62" stroke="#22262E" stroke-linecap="square"></path>
                    <path d="M11.4789567,21.5 L28.5,21.5" id="Line-Copy-63" stroke="#22262E" stroke-linecap="square"></path>
                    <path d="M9.5,49.5 L30.5,49.5" id="Line-Copy-64" stroke="#008FD5" stroke-linecap="square"></path>
                    <path d="M11.5,57.5 L28.5,57.5" id="Line-Copy-65" stroke="#008FD5" stroke-linecap="square"></path>
                    <path d="M10.5,65.5 L29.5,65.5" id="Line-Copy-66" stroke="#008FD5" stroke-linecap="square"></path>
                    <use id="Rectangle-52-Copy-4" stroke="#22262E" mask="url(#mask-60)" stroke-width="2" xlink:href="#path-59"></use>
                </g>
                <g id="Group-4-Copy" transform="translate(359.000000, 417.000000) rotate(-270.000000) translate(-359.000000, -417.000000) translate(344.000000, 360.000000)">
                    <use id="Rectangle-56-Copy-4" stroke="#22262E" mask="url(#mask-62)" stroke-width="2" xlink:href="#path-61"></use>
                    <path d="M8.82996669,94.5 L21.9230769,94.5" id="Line-Copy-62" stroke="#22262E" stroke-linecap="square"></path>
                    <path d="M8.82996669,21.5 L21.9230769,21.5" id="Line-Copy-63" stroke="#22262E" stroke-linecap="square"></path>
                    <path d="M7.30769231,49.5 L23.4615385,49.5" id="Line-Copy-64" stroke="#008FD5" stroke-linecap="square"></path>
                    <path d="M8.84615385,57.5 L21.9230769,57.5" id="Line-Copy-65" stroke="#008FD5" stroke-linecap="square"></path>
                    <path d="M8.07692308,65.5 L22.6923077,65.5" id="Line-Copy-66" stroke="#008FD5" stroke-linecap="square"></path>
                    <use id="Rectangle-52-Copy-4" stroke="#22262E" mask="url(#mask-64)" stroke-width="2" xlink:href="#path-63"></use>
                </g>
                <g id="Group-4-Copy-2" transform="translate(370.000000, 387.000000) rotate(-270.000000) translate(-370.000000, -387.000000) translate(354.000000, 330.000000)">
                    <use id="Rectangle-56-Copy-4" stroke="#22262E" mask="url(#mask-66)" stroke-width="2" xlink:href="#path-65"></use>
                    <path d="M9.41863113,94.5 L23.3846154,94.5" id="Line-Copy-62" stroke="#22262E" stroke-linecap="square"></path>
                    <path d="M9.41863113,21.5 L23.3846154,21.5" id="Line-Copy-63" stroke="#22262E" stroke-linecap="square"></path>
                    <path d="M7.79487179,49.5 L25.025641,49.5" id="Line-Copy-64" stroke="#008FD5" stroke-linecap="square"></path>
                    <path d="M9.43589744,57.5 L23.3846154,57.5" id="Line-Copy-65" stroke="#008FD5" stroke-linecap="square"></path>
                    <path d="M8.61538462,65.5 L24.2051282,65.5" id="Line-Copy-66" stroke="#008FD5" stroke-linecap="square"></path>
                    <use id="Rectangle-52-Copy-4" stroke="#22262E" mask="url(#mask-68)" stroke-width="2" xlink:href="#path-67"></use>
                </g>
                <g id="Group-4-Copy-3" transform="translate(359.000000, 356.000000) rotate(-270.000000) translate(-359.000000, -356.000000) translate(343.000000, 299.000000)">
                    <use id="Rectangle-56-Copy-4" stroke="#22262E" mask="url(#mask-70)" stroke-width="2" xlink:href="#path-69"></use>
                    <path d="M9.41863113,94.5 L23.3846154,94.5" id="Line-Copy-62" stroke="#22262E" stroke-linecap="square"></path>
                    <path d="M9.41863113,21.5 L23.3846154,21.5" id="Line-Copy-63" stroke="#22262E" stroke-linecap="square"></path>
                    <path d="M7.79487179,49.5 L25.025641,49.5" id="Line-Copy-64" stroke="#008FD5" stroke-linecap="square"></path>
                    <path d="M9.43589744,57.5 L23.3846154,57.5" id="Line-Copy-65" stroke="#008FD5" stroke-linecap="square"></path>
                    <path d="M8.61538462,65.5 L24.2051282,65.5" id="Line-Copy-66" stroke="#008FD5" stroke-linecap="square"></path>
                    <use id="Rectangle-52-Copy-4" stroke="#22262E" mask="url(#mask-72)" stroke-width="2" xlink:href="#path-71"></use>
                </g>
                <g id="Group-6" transform="translate(173.000000, 318.000000)">
                    <use id="Rectangle-56-Copy-5" stroke="#22262E" mask="url(#mask-74)" stroke-width="2" xlink:href="#path-73"></use>
                    <path d="M9.41863113,94.5 L23.3846154,94.5" id="Line-Copy-67" stroke="#22262E" stroke-linecap="square"></path>
                    <path d="M9.41863113,21.5 L23.3846154,21.5" id="Line-Copy-68" stroke="#22262E" stroke-linecap="square"></path>
                    <path d="M7.79487179,49.5 L25.025641,49.5" id="Line-Copy-69" stroke="#008FD5" stroke-linecap="square"></path>
                    <path d="M9.43589744,57.5 L23.3846154,57.5" id="Line-Copy-70" stroke="#008FD5" stroke-linecap="square"></path>
                    <path d="M8.61538462,65.5 L24.2051282,65.5" id="Line-Copy-71" stroke="#008FD5" stroke-linecap="square"></path>
                    <use id="Rectangle-52-Copy-5" stroke="#22262E" mask="url(#mask-76)" stroke-width="2" xlink:href="#path-75"></use>
                </g>
                <path d="M0.498892009,286.5 L453.51766,286.5" id="Line-Copy-77" stroke="#22262E" stroke-linecap="square"></path>
                <g id="Group-5-Copy-4" transform="translate(269.000000, 176.000000)">
                    <path d="M7.5,55.5 L31.5831892,55.5" id="Line-Copy-14" stroke="#008FD5" stroke-linecap="square"></path>
                    <path d="M0.722222222,89.5 L38.2777778,89.5" id="Line-Copy-78" stroke="#22262E" stroke-linecap="square"></path>
                    <path d="M0.722222222,10.5 L38.2777778,10.5" id="Line-Copy-80" stroke="#22262E" stroke-linecap="square"></path>
                    <path d="M0.722222222,99.5 L38.2777778,99.5" id="Line-Copy-79" stroke="#22262E" stroke-linecap="square"></path>
                    <path d="M0.722222222,20.5 L38.2777778,20.5" id="Line-Copy-81" stroke="#22262E" stroke-linecap="square"></path>
                    <use id="Rectangle-56" stroke="#22262E" mask="url(#mask-78)" stroke-width="2" xlink:href="#path-77"></use>
                </g>
                <g id="Group-5-Copy-2" transform="translate(201.000000, 176.000000)">
                    <path d="M6.73076923,55.5 L28.3438877,55.5" id="Line-Copy-14" stroke="#008FD5" stroke-linecap="square"></path>
                    <path d="M0.648148148,89.5 L34.3518519,89.5" id="Line-Copy-78" stroke="#22262E" stroke-linecap="square"></path>
                    <path d="M0.648148148,10.5 L34.3518519,10.5" id="Line-Copy-80" stroke="#22262E" stroke-linecap="square"></path>
                    <path d="M0.648148148,99.5 L34.3518519,99.5" id="Line-Copy-79" stroke="#22262E" stroke-linecap="square"></path>
                    <path d="M0.648148148,20.5 L34.3518519,20.5" id="Line-Copy-81" stroke="#22262E" stroke-linecap="square"></path>
                    <use id="Rectangle-56" stroke="#22262E" mask="url(#mask-80)" stroke-width="2" xlink:href="#path-79"></use>
                </g>
                <g id="Group-5-Copy-10" transform="translate(94.500000, 272.000000) rotate(-270.000000) translate(-94.500000, -272.000000) translate(79.500000, 216.500000)">
                    <path d="M5.76923077,55.5 L24.2947609,55.5" id="Line-Copy-14" stroke="#008FD5" stroke-linecap="square"></path>
                    <path d="M0.555555556,89.5 L29.4444444,89.5" id="Line-Copy-78" stroke="#22262E" stroke-linecap="square"></path>
                    <path d="M0.555555556,10.5 L29.4444444,10.5" id="Line-Copy-80" stroke="#22262E" stroke-linecap="square"></path>
                    <path d="M0.555555556,99.5 L29.4444444,99.5" id="Line-Copy-79" stroke="#22262E" stroke-linecap="square"></path>
                    <path d="M0.555555556,20.5 L29.4444444,20.5" id="Line-Copy-81" stroke="#22262E" stroke-linecap="square"></path>
                    <use id="Rectangle-56" stroke="#22262E" mask="url(#mask-82)" stroke-width="2" xlink:href="#path-81"></use>
                </g>
                <g id="Group-5-Copy-5" transform="translate(336.000000, 176.000000)">
                    <path d="M5.76923077,55.5 L24.2947609,55.5" id="Line-Copy-14" stroke="#008FD5" stroke-linecap="square"></path>
                    <path d="M0.555555556,89.5 L29.4444444,89.5" id="Line-Copy-78" stroke="#22262E" stroke-linecap="square"></path>
                    <path d="M0.555555556,10.5 L29.4444444,10.5" id="Line-Copy-80" stroke="#22262E" stroke-linecap="square"></path>
                    <path d="M0.555555556,99.5 L29.4444444,99.5" id="Line-Copy-79" stroke="#22262E" stroke-linecap="square"></path>
                    <path d="M0.555555556,20.5 L29.4444444,20.5" id="Line-Copy-81" stroke="#22262E" stroke-linecap="square"></path>
                    <use id="Rectangle-56" stroke="#22262E" mask="url(#mask-84)" stroke-width="2" xlink:href="#path-83"></use>
                </g>
                <g id="Group-5-Copy" transform="translate(172.000000, 176.000000)">
                    <path d="M5.76923077,55.5 L24.2947609,55.5" id="Line-Copy-14" stroke="#008FD5" stroke-linecap="square"></path>
                    <path d="M0.555555556,89.5 L29.4444444,89.5" id="Line-Copy-78" stroke="#22262E" stroke-linecap="square"></path>
                    <path d="M0.555555556,10.5 L29.4444444,10.5" id="Line-Copy-80" stroke="#22262E" stroke-linecap="square"></path>
                    <path d="M0.555555556,99.5 L29.4444444,99.5" id="Line-Copy-79" stroke="#22262E" stroke-linecap="square"></path>
                    <path d="M0.555555556,20.5 L29.4444444,20.5" id="Line-Copy-81" stroke="#22262E" stroke-linecap="square"></path>
                    <use id="Rectangle-56" stroke="#22262E" mask="url(#mask-86)" stroke-width="2" xlink:href="#path-85"></use>
                </g>
                <g id="Group-5-Copy-6" transform="translate(307.000000, 176.000000)">
                    <path d="M5.76923077,55.5 L24.2947609,55.5" id="Line-Copy-14" stroke="#008FD5" stroke-linecap="square"></path>
                    <path d="M0.555555556,89.5 L29.4444444,89.5" id="Line-Copy-78" stroke="#22262E" stroke-linecap="square"></path>
                    <path d="M0.555555556,10.5 L29.4444444,10.5" id="Line-Copy-80" stroke="#22262E" stroke-linecap="square"></path>
                    <path d="M0.555555556,99.5 L29.4444444,99.5" id="Line-Copy-79" stroke="#22262E" stroke-linecap="square"></path>
                    <path d="M0.555555556,20.5 L29.4444444,20.5" id="Line-Copy-81" stroke="#22262E" stroke-linecap="square"></path>
                    <use id="Rectangle-56" stroke="#22262E" mask="url(#mask-88)" stroke-width="2" xlink:href="#path-87"></use>
                </g>
                <g id="Group-5-Copy-9" transform="translate(403.000000, 176.000000)">
                    <path d="M5,55.5 L21.0554594,55.5" id="Line-Copy-14" stroke="#008FD5" stroke-linecap="square"></path>
                    <path d="M0.481481481,89.5 L25.5185185,89.5" id="Line-Copy-78" stroke="#22262E" stroke-linecap="square"></path>
                    <path d="M0.481481481,10.5 L25.5185185,10.5" id="Line-Copy-80" stroke="#22262E" stroke-linecap="square"></path>
                    <path d="M0.481481481,99.5 L25.5185185,99.5" id="Line-Copy-79" stroke="#22262E" stroke-linecap="square"></path>
                    <path d="M0.481481481,20.5 L25.5185185,20.5" id="Line-Copy-81" stroke="#22262E" stroke-linecap="square"></path>
                    <use id="Rectangle-56" stroke="#22262E" mask="url(#mask-90)" stroke-width="2" xlink:href="#path-89"></use>
                </g>
                <g id="Group-5-Copy-3" transform="translate(235.000000, 176.000000)">
                    <path d="M6.73076923,55.5 L28.3438877,55.5" id="Line-Copy-14" stroke="#008FD5" stroke-linecap="square"></path>
                    <path d="M0.648148148,89.5 L34.3518519,89.5" id="Line-Copy-78" stroke="#22262E" stroke-linecap="square"></path>
                    <path d="M0.648148148,10.5 L34.3518519,10.5" id="Line-Copy-80" stroke="#22262E" stroke-linecap="square"></path>
                    <path d="M0.648148148,99.5 L34.3518519,99.5" id="Line-Copy-79" stroke="#22262E" stroke-linecap="square"></path>
                    <path d="M0.648148148,20.5 L34.3518519,20.5" id="Line-Copy-81" stroke="#22262E" stroke-linecap="square"></path>
                    <use id="Rectangle-56" stroke="#22262E" mask="url(#mask-92)" stroke-width="2" xlink:href="#path-91"></use>
                </g>
                <g id="Group-5-Copy-7" transform="translate(365.000000, 176.000000)">
                    <path d="M7.5,55.5 L31.5831892,55.5" id="Line-Copy-14" stroke="#008FD5" stroke-linecap="square"></path>
                    <path d="M0.722222222,89.5 L38.2777778,89.5" id="Line-Copy-78" stroke="#22262E" stroke-linecap="square"></path>
                    <path d="M0.722222222,10.5 L38.2777778,10.5" id="Line-Copy-80" stroke="#22262E" stroke-linecap="square"></path>
                    <path d="M0.722222222,99.5 L38.2777778,99.5" id="Line-Copy-79" stroke="#22262E" stroke-linecap="square"></path>
                    <path d="M0.722222222,20.5 L38.2777778,20.5" id="Line-Copy-81" stroke="#22262E" stroke-linecap="square"></path>
                    <use id="Rectangle-56" stroke="#22262E" mask="url(#mask-94)" stroke-width="2" xlink:href="#path-93"></use>
                </g>
                <use id="Rectangle-61" stroke="#22262E" mask="url(#mask-96)" stroke-width="2" xlink:href="#path-95"></use>
            </g>
        </g>
    </g>
</svg>