<svg viewBox="0 0 101 81" xmlns="http://www.w3.org/2000/svg" xmlns:xlink="http://www.w3.org/1999/xlink">
  <defs>
    <path id="a" d="M0 0h101v81H0z"/>
    <mask id="b" x="0" y="0" width="101" height="81" fill="#fff">
      <use xlink:href="#a"/>
    </mask>
  </defs>
  <g fill="none" fill-rule="evenodd">
    <g>
      <path d="M6.759 5.379c0 .762-.618 1.379-1.379 1.379-.762 0-1.38-.617-1.38-1.379S4.618 4 5.38 4c.761 0 1.379.617 1.379 1.379M11.759 5.379c0 .762-.618 1.379-1.379 1.379-.762 0-1.38-.617-1.38-1.379S9.618 4 10.38 4c.761 0 1.379.617 1.379 1.379M16.759 5.379c0 .762-.617 1.379-1.379 1.379S14 6.141 14 5.379 14.618 4 15.38 4c.762 0 1.379.617 1.379 1.379" fill="#008FD5"/>
      <use stroke="#22262E" mask="url(#b)" stroke-width="2" xlink:href="#a"/>
      <path d="M.5 10.5h100" stroke="#22262E" stroke-linecap="square"/>
    </g>
    <g stroke="#22262E">
      <path d="M21.2090454 30.51794434h15.3187694V58.5477394H14.52978516V37.16992188z"/>
      <path d="M21.5 37.5h-6M21.5 31.5v6" stroke-linecap="square"/>
    </g>
    <g stroke="#22262E">
      <path d="M71.2090454 30.51794434h15.3187694V58.5477394H64.52978516V37.16992188z"/>
      <path d="M71.5 37.5h-6M71.5 31.5v6" stroke-linecap="square"/>
    </g>
    <g fill="#008FD5">
      <path d="M42.7074 48.8995l-.707.707.707.707 2.828 2.829.707-.708-2.349-2.349h3.107v-.958h-3.107l2.349-2.349-.707-.708M49 50.0861h2v-.958h-2M53 50.0861h2v-.958h-2M55.4649 37.9996l-.707.707 2.349 2.349h-3.107v.959h3.107l-2.349 2.35.707.706 2.828-2.828.707-.707-.707-.707M46 42.0141h2.001v-.958H46M50 42.0141h2v-.958h-2"/>
    </g>
  </g>
</svg>
