<?xml version="1.0" encoding="UTF-8" standalone="no"?>
<svg width="101px" height="81px" viewBox="0 0 101 81" version="1.1" xmlns="http://www.w3.org/2000/svg" xmlns:xlink="http://www.w3.org/1999/xlink">
    <!-- Generator: Sketch 40.1 (33804) - http://www.bohemiancoding.com/sketch -->
    <title>browser_attorney</title>
    <desc>Created with Sketch.</desc>
    <defs>
        <rect id="path-1" x="0" y="0" width="101" height="81"></rect>
        <mask id="mask-2" maskContentUnits="userSpaceOnUse" maskUnits="objectBoundingBox" x="0" y="0" width="101" height="81" fill="white">
            <use xlink:href="#path-1"></use>
        </mask>
    </defs>
    <g id="Marketing-Site" stroke="none" stroke-width="1" fill="none" fill-rule="evenodd">
        <g id="Products---Formation" transform="translate(-125.000000, -4689.000000)">
            <g id="browser_attorney" transform="translate(125.000000, 4689.000000)">
                <polygon id="Stroke-11" stroke="#008FD5" stroke-linecap="square" points="51.0183105 66.4248657 54.0250854 62.7893677 51.0183105 54 48 62.7893677"></polygon>
                <path d="M62,38 C62,31.9253116 57.0746884,27 51,27 C44.9253116,27 40,31.9253116 40,38 C40,44.0746884 44.9253116,49 51,49 C57.0746884,49 62,44.0746884 62,38 L62,38 Z" id="Stroke-12" stroke="#22262E"></path>
                <path d="M68.776,67.888 C68.776,58.009 60.767,50 50.888,50 C41.009,50 33,58.009 33,67.888" id="Stroke-13" stroke="#22262E" stroke-linecap="square"></path>
                <polyline id="Stroke-14" stroke="#22262E" points="47 50 50.5782471 52.9212036 54.1455688 50"></polyline>
                <path d="M39,66.032 L39,62" id="Stroke-15" stroke="#22262E" stroke-linecap="square"></path>
                <path d="M62,66.032 L62,62" id="Stroke-16" stroke="#22262E" stroke-linecap="square"></path>
                <path d="M6.759,5.379 C6.759,6.141 6.141,6.758 5.38,6.758 C4.618,6.758 4,6.141 4,5.379 C4,4.617 4.618,4 5.38,4 C6.141,4 6.759,4.617 6.759,5.379" id="Fill-32-Copy-2" fill="#008FD5"></path>
                <path d="M11.759,5.379 C11.759,6.141 11.141,6.758 10.38,6.758 C9.618,6.758 9,6.141 9,5.379 C9,4.617 9.618,4 10.38,4 C11.141,4 11.759,4.617 11.759,5.379" id="Fill-33-Copy-2" fill="#008FD5"></path>
                <path d="M16.759,5.379 C16.759,6.141 16.142,6.758 15.38,6.758 C14.618,6.758 14,6.141 14,5.379 C14,4.617 14.618,4 15.38,4 C16.142,4 16.759,4.617 16.759,5.379" id="Fill-34-Copy-2" fill="#008FD5"></path>
                <use id="Rectangle-32-Copy-2" stroke="#22262E" mask="url(#mask-2)" stroke-width="2" xlink:href="#path-1"></use>
                <path d="M0.5,10.5 L100.5,10.5" id="Line-Copy-31" stroke="#22262E" stroke-linecap="square"></path>
            </g>
        </g>
    </g>
</svg>