<svg viewBox="0 0 101 81" xmlns="http://www.w3.org/2000/svg" xmlns:xlink="http://www.w3.org/1999/xlink">
  <defs>
    <path id="a" d="M0 0h101v81H0z"/>
    <mask id="b" x="0" y="0" width="101" height="81" fill="#fff">
      <use xlink:href="#a"/>
    </mask>
  </defs>
  <g fill="none" fill-rule="evenodd">
    <g>
      <path d="M6.759 5.379c0 .762-.618 1.379-1.379 1.379-.762 0-1.38-.617-1.38-1.379S4.618 4 5.38 4c.761 0 1.379.617 1.379 1.379M11.759 5.379c0 .762-.618 1.379-1.379 1.379-.762 0-1.38-.617-1.38-1.379S9.618 4 10.38 4c.761 0 1.379.617 1.379 1.379M16.759 5.379c0 .762-.617 1.379-1.379 1.379S14 6.141 14 5.379 14.618 4 15.38 4c.762 0 1.379.617 1.379 1.379" fill="#008FD5"/>
      <use stroke="#22262E" mask="url(#b)" stroke-width="2" xlink:href="#a"/>
      <path d="M.5 10.5h100" stroke="#22262E" stroke-linecap="square"/>
    </g>
    <g stroke="#22262E">
      <path d="M65.2090454 31.51794434h15.3187694V59.5477394H58.52978516V38.16992188z"/>
      <path d="M65.5 38.5h-6M65.5 32.5v6" stroke-linecap="square"/>
    </g>
    <path stroke="#008FD5" d="M73 44l-4.5225685 4.5225685L66 46.045137"/>
    <g>
      <g stroke="#22262E">
        <path d="M27.2090454 31.51794434h15.3187694V59.5477394H20.52978516V38.16992188z"/>
        <path d="M27.5 38.5h-6M27.5 32.5v6" stroke-linecap="square"/>
      </g>
      <path stroke="#008FD5" d="M35 44l-4.5225685 4.5225685L28 46.045137"/>
    </g>
  </g>
</svg>
