<?xml version="1.0" encoding="UTF-8" standalone="no"?>
<svg width="101px" height="81px" viewBox="0 0 101 81" version="1.1" xmlns="http://www.w3.org/2000/svg" xmlns:xlink="http://www.w3.org/1999/xlink">
    <!-- Generator: Sketch 40.1 (33804) - http://www.bohemiancoding.com/sketch -->
    <title>browser_collaborate</title>
    <desc>Created with Sketch.</desc>
    <defs>
        <rect id="path-1" x="0" y="0" width="101" height="81"></rect>
        <mask id="mask-2" maskContentUnits="userSpaceOnUse" maskUnits="objectBoundingBox" x="0" y="0" width="101" height="81" fill="white">
            <use xlink:href="#path-1"></use>
        </mask>
        <polygon id="path-3" points="58 36 58 23 10 23 10 36 17.0386963 35.9783325 17.0521851 42.0185547 21.9998573 36"></polygon>
        <mask id="mask-4" maskContentUnits="userSpaceOnUse" maskUnits="objectBoundingBox" x="0" y="0" width="48" height="19.0185547" fill="white">
            <use xlink:href="#path-3"></use>
        </mask>
        <polygon id="path-5" points="91 64 91 45 43 45 43 64 50.0386963 63.9783325 50.0521851 70.0185547 54.9998573 64"></polygon>
        <mask id="mask-6" maskContentUnits="userSpaceOnUse" maskUnits="objectBoundingBox" x="0" y="0" width="48" height="25.0185547" fill="white">
            <use xlink:href="#path-5"></use>
        </mask>
    </defs>
    <g id="Marketing-Site" stroke="none" stroke-width="1" fill="none" fill-rule="evenodd">
        <g id="Products---Formation" transform="translate(-735.000000, -4251.000000)">
            <g id="browser_collaborate" transform="translate(735.000000, 4251.000000)">
                <path d="M6.759,5.379 C6.759,6.141 6.141,6.758 5.38,6.758 C4.618,6.758 4,6.141 4,5.379 C4,4.617 4.618,4 5.38,4 C6.141,4 6.759,4.617 6.759,5.379" id="Fill-32-Copy" fill="#008FD5"></path>
                <path d="M11.759,5.379 C11.759,6.141 11.141,6.758 10.38,6.758 C9.618,6.758 9,6.141 9,5.379 C9,4.617 9.618,4 10.38,4 C11.141,4 11.759,4.617 11.759,5.379" id="Fill-33-Copy" fill="#008FD5"></path>
                <path d="M16.759,5.379 C16.759,6.141 16.142,6.758 15.38,6.758 C14.618,6.758 14,6.141 14,5.379 C14,4.617 14.618,4 15.38,4 C16.142,4 16.759,4.617 16.759,5.379" id="Fill-34-Copy" fill="#008FD5"></path>
                <use id="Rectangle-32-Copy" stroke="#22262E" mask="url(#mask-2)" stroke-width="2" xlink:href="#path-1"></use>
                <path d="M16.5,29.5 L45.5688837,29.5" id="Line" stroke="#008FD5" stroke-linecap="square"></path>
                <path d="M49.5,57.5 L84.5142828,57.5" id="Line-Copy-27" stroke="#008FD5" stroke-linecap="square"></path>
                <path d="M49.5,51.5 L84.5142828,51.5" id="Line-Copy-30" stroke="#008FD5" stroke-linecap="square"></path>
                <path d="M0.5,10.5 L100.5,10.5" id="Line-Copy-26" stroke="#22262E" stroke-linecap="square"></path>
                <use id="Combined-Shape" stroke="#008FD5" mask="url(#mask-4)" stroke-width="2" xlink:href="#path-3"></use>
                <use id="Combined-Shape-Copy-3" stroke="#008FD5" mask="url(#mask-6)" stroke-width="2" transform="translate(67.000000, 57.509277) scale(-1, 1) translate(-67.000000, -57.509277) " xlink:href="#path-5"></use>
            </g>
        </g>
    </g>
</svg>