<?xml version="1.0" encoding="UTF-8" standalone="no"?>
<svg width="101px" height="82px" viewBox="0 0 101 82" version="1.1" xmlns="http://www.w3.org/2000/svg" xmlns:xlink="http://www.w3.org/1999/xlink">
    <!-- Generator: Sketch 40.3 (33839) - http://www.bohemiancoding.com/sketch -->
    <title>browser_streamlined</title>
    <desc>Created with Sketch.</desc>
    <defs>
        <rect id="path-1" x="0" y="0" width="101" height="81"></rect>
        <mask id="mask-2" maskContentUnits="userSpaceOnUse" maskUnits="objectBoundingBox" x="0" y="0" width="101" height="81" fill="white">
            <use xlink:href="#path-1"></use>
        </mask>
    </defs>
    <g id="Marketing-Site" stroke="none" stroke-width="1" fill="none" fill-rule="evenodd">
        <g id="Products---Formation" transform="translate(-125.000000, -4251.000000)">
            <g id="browser_streamlined" transform="translate(125.000000, 4251.000000)">
                <path d="M6.759,5.379 C6.759,6.141 6.141,6.758 5.38,6.758 C4.618,6.758 4,6.141 4,5.379 C4,4.617 4.618,4 5.38,4 C6.141,4 6.759,4.617 6.759,5.379" id="Fill-32" fill="#008FD5"></path>
                <path d="M11.759,5.379 C11.759,6.141 11.141,6.758 10.38,6.758 C9.618,6.758 9,6.141 9,5.379 C9,4.617 9.618,4 10.38,4 C11.141,4 11.759,4.617 11.759,5.379" id="Fill-33" fill="#008FD5"></path>
                <path d="M16.759,5.379 C16.759,6.141 16.142,6.758 15.38,6.758 C14.618,6.758 14,6.141 14,5.379 C14,4.617 14.618,4 15.38,4 C16.142,4 16.759,4.617 16.759,5.379" id="Fill-34" fill="#008FD5"></path>
                <use id="Rectangle-32" stroke="#22262E" mask="url(#mask-2)" stroke-width="2" xlink:href="#path-1"></use>
                <path d="M0.5,10.5 L100.5,10.5" id="Line" stroke="#22262E" stroke-linecap="square"></path>
                <path d="M20.5,10.5 L20.5,80.5071425" id="Line" stroke="#22262E" stroke-linecap="square"></path>
                <path d="M5.5,19.5 L15.5,19.5" id="Line" stroke="#008FD5" stroke-linecap="square"></path>
                <path d="M44.5,24.5 L72.512498,24.5" id="Line-Copy-22" stroke="#008FD5" stroke-linecap="square"></path>
                <path d="M44.5,59.5 L72.512498,59.5" id="Line-Copy-25" stroke="#008FD5" stroke-linecap="square"></path>
                <path d="M44.5,44.5 L72.512498,44.5" id="Line-Copy-24" stroke="#008FD5" stroke-linecap="square"></path>
                <path d="M44.5,31.5 L61.5293864,31.5" id="Line-Copy-23" stroke="#008FD5" stroke-linecap="square"></path>
                <path d="M44.5,66.5 L61.5293864,66.5" id="Line-Copy-38" stroke="#008FD5" stroke-linecap="square"></path>
                <path d="M5.5,23.5 L15.5,23.5" id="Line-Copy-11" stroke="#008FD5" stroke-linecap="square"></path>
                <path d="M5.5,27.5 L13.5,27.5" id="Line-Copy-21" stroke="#008FD5" stroke-linecap="square"></path>
                <polyline id="Stroke-7" stroke="#008FD5" points="39 22 34.4774315 26.5225685 32 24.045137"></polyline>
                <polyline id="Stroke-7-Copy-2" stroke="#008FD5" points="39 57 34.4774315 61.5225685 32 59.045137"></polyline>
                <polyline id="Stroke-7-Copy" stroke="#008FD5" points="39 42 34.4774315 46.5225685 32 44.045137"></polyline>
            </g>
        </g>
    </g>
</svg>