<?xml version="1.0" encoding="UTF-8" standalone="no"?>
<svg width="67px" height="82px" viewBox="0 0 67 82" version="1.1" xmlns="http://www.w3.org/2000/svg" xmlns:xlink="http://www.w3.org/1999/xlink">
    <!-- Generator: Sketch 40.1 (33804) - http://www.bohemiancoding.com/sketch -->
    <title>customize</title>
    <desc>Created with Sketch.</desc>
    <defs>
        <polygon id="path-1" points="9 9 66.0594289 9.01580811 66.0594289 81.0158081 9 81"></polygon>
        <mask id="mask-2" maskContentUnits="userSpaceOnUse" maskUnits="objectBoundingBox" x="0" y="0" width="57.0594289" height="72.0158081" fill="white">
            <use xlink:href="#path-1"></use>
        </mask>
        <polygon id="path-3" points="14.9199952 0.00628662109 57.0013428 0 57.0013428 72 0 72.0062866 0 15.0253296"></polygon>
        <mask id="mask-4" maskContentUnits="userSpaceOnUse" maskUnits="objectBoundingBox" x="0" y="0" width="57.0013428" height="72.0062866" fill="white">
            <use xlink:href="#path-3"></use>
        </mask>
        <polygon id="path-5" points="-6.82121026e-13 -1.36424205e-12 6 -1.36424205e-12 6 26 3.01776123 30.0922852 -6.82121026e-13 26"></polygon>
        <mask id="mask-6" maskContentUnits="userSpaceOnUse" maskUnits="objectBoundingBox" x="0" y="0" width="6" height="30.0922852" fill="white">
            <use xlink:href="#path-5"></use>
        </mask>
    </defs>
    <g id="Marketing-Site" stroke="none" stroke-width="1" fill="none" fill-rule="evenodd">
        <g id="Compatible-with-Attorney" transform="translate(-737.000000, -1760.000000)">
            <g id="customize" transform="translate(737.000000, 1760.000000)">
                <g id="Group-6-Copy" stroke="#22262E">
                    <use id="Rectangle-30-Copy-6" mask="url(#mask-2)" stroke-width="2" xlink:href="#path-1"></use>
                    <use id="Rectangle-30-Copy-7" mask="url(#mask-4)" stroke-width="2" fill="#FFFFFF" xlink:href="#path-3"></use>
                    <path d="M1.5,15.5 L15.5,15.5" id="Line" stroke-linecap="square"></path>
                    <path d="M15.5,1.5 L15.5,14.5" id="Line" stroke-linecap="square"></path>
                </g>
                <g id="Group-7" transform="translate(36.495689, 38.495689) rotate(-315.000000) translate(-36.495689, -38.495689) translate(31.495689, 22.995689)" stroke="#008FD5">
                    <path d="M8.5,3.5 L8.5,13.5" id="Line" stroke-linecap="square"></path>
                    <path d="M6.5,3.5 L8.5,3.5" id="Line" stroke-linecap="square"></path>
                    <use id="Rectangle-42" mask="url(#mask-6)" stroke-width="2" xlink:href="#path-5"></use>
                </g>
                <path d="M22.5,47.5 L12.5,47.5" id="Line" stroke="#008FD5" stroke-linecap="square"></path>
            </g>
        </g>
    </g>
</svg>