<svg xmlns="http://www.w3.org/2000/svg" viewBox="0 0 377 351">
  <g fill="none" fill-rule="evenodd">
    <path fill="#FFF" d="M0 0h377v351H0z"/>
    <g transform="translate(56 45)">
      <g stroke="#008FD5" transform="translate(177 69.952)">
        <circle cx="24.3000208" cy="16.0702872" r="14.5800125"/>
        <path d="M48.6000417 54.9503206c0-13.420531-10.8794899-24.3000209-24.3000209-24.3000209C10.8794899 30.6502997 0 41.5297896 0 54.9503206"/>
      </g>
      <g stroke="#008FD5" transform="translate(88 172.952)">
        <circle cx="24.3000208" cy="16.0702872" r="14.5800125"/>
        <path d="M48.6000417 54.9503206c0-13.420531-10.8794899-24.3000209-24.3000209-24.3000209C10.8794899 30.6502997 0 41.5297896 0 54.9503206"/>
      </g>
      <g stroke="#008FD5" transform="translate(54 54.952)">
        <circle cx="24.3000208" cy="16.0702872" r="14.5800125"/>
        <path d="M48.6000417 54.9503206c0-13.420531-10.8794899-24.3000209-24.3000209-24.3000209C10.8794899 30.6502997 0 41.5297896 0 54.9503206"/>
      </g>
      <path stroke="#22262E" d="M132.455566 136.952034L0 141.508853"/>
      <circle cx="132.545455" cy="133.497489" r="132.545455" stroke="#22262E"/>
      <path stroke="#22262E" d="M133 .9520345V136.762226l101.037126 82.887102"/>
    </g>
  </g>
</svg>
