<svg xmlns="http://www.w3.org/2000/svg" viewBox="0 0 580 351" xmlns:xlink="http://www.w3.org/1999/xlink">
  <defs>
    <path id="a" d="M0 0h580v351H0z"/>
    <mask id="b" width="580" height="351" x="0" y="0" fill="#fff">
      <use xlink:href="#a"/>
    </mask>
  </defs>
  <g fill="none" fill-rule="evenodd">
    <use stroke="#008FD5" stroke-width="2" mask="url(#b)" stroke-dasharray="6" xlink:href="#a"/>
    <g stroke="#008FD5" stroke-linecap="square">
      <path d="M109.0909091 156.45454545v39.27272725M89.45454545 176.0909091h39.27272725"/>
    </g>
    <path stroke="#008FD5" d="M275 55.5405273l13.506314 7.8642135 5.469694 20.4959938 16.027954-5.6431773 6.588201-19.1054244-4.128784-14.1003751M398.261896 64l-3.92152 14.2370827 7.896973 7.8082831-10.193315 7.0412375 15.995295 14.0764827-15.995295 10.918413-8.318848-13.413708-10.477361 8.509411 17.395752 12.231978 9.242298 2.654696-16.160689 9.320801 2.05784 7.924538h16.454323l5.80198-15.609375 19.559659 7.684837-1.761808 10.11661h11.108976l9.82777 11.065829-7.648882 2.996272h-11.526056l-14.935813-14.062101-6.389249 3.375-11.93355 2.411399-8.55735 8.275702-6.281384 3.408558-6.253817 25.612127L367 194.452859l6.247825 6.978915 14.634987 16.226607h10.379084l9.777433-5.517934 6.492321 3.293502-7.644687 8.944469 5.776212 9.121848 1.868475 9.645597-12.294301 4.384144-4.709517 42.139427M252.511452 68.2475586l-3.135298 36.7138454 8.001243 10.177734 18.966997-14.679932 25.793701 15.515892-49.626643 43.11934v12.802468l-17.133877-5.784002-12.448908 1.903231-1.709074 20.343484h14.157982l2.661887 11.184482 11.336692 10.290394 14.269443-10.290394 33.370072 15.397239 26.922097 13.088911v11.62793L313.122425 252.2593l-13.030184 30.498446-3.076572 19.59921-16.477095-16.662864-21.508434-25.383212-23.652565-9.372337 4.3386-20.768954 3.466087-11.425382-10.069869-15.195889-2.150124-9.123047-14.587047-1.71147-19.932839-24.697666"/>
    <circle cx="328.545455" cy="176.545455" r="132.545455" stroke="#22262E"/>
  </g>
</svg>
