<svg viewBox="0 0 68 54" xmlns="http://www.w3.org/2000/svg">
  <g fill="none" fill-rule="evenodd">
    <path d="M1 52.9973282h65V1H1v51.9973282zM0 0h67v53.9973282H0V0z" fill="#22262E" fill-rule="nonzero"/>
    <path fill="#22262E" fill-rule="nonzero" d="M0 8h67.0075753V7H0M13 8v45.6444147h1V8"/>
    <path fill="#008FD5" fill-rule="nonzero" d="M29.9827637 18H60v-1H29.9827637M29.9827637 30H60v-1H29.9827637M21.3535534 17.3994212l-.7071068.7071068 2.4770661 2.4770661 4.2300407-4.2300407-.7071068-.7071068-3.5229339 3.5229339M21.3535534 28.3994212l-.7071068.7071068 2.4770661 2.4770661 4.2300407-4.2300407-.7071068-.7071068-3.5229339 3.5229339M29.9827637 42H60v-1H29.9827637M21.3535534 40.3994212l-.7071068.7071068 2.4770661 2.4770661 4.2300407-4.2300407-.7071068-.7071068-3.5229339 3.5229339"/>
    <circle fill="#008FD5" cx="4" cy="4" r="1"/>
    <circle fill="#008FD5" cx="7" cy="4" r="1"/>
    <circle fill="#008FD5" cx="10" cy="4" r="1"/>
    <path fill="#008FD5" fill-rule="nonzero" d="M3 12h8v-1H3M3 16h8v-1H3M3 20h5v-1H3"/>
  </g>
</svg>
