<?xml version="1.0" encoding="UTF-8" standalone="no"?>
<svg width="152px" height="81px" viewBox="0 0 152 81" version="1.1" xmlns="http://www.w3.org/2000/svg" xmlns:xlink="http://www.w3.org/1999/xlink">
    <!-- Generator: Sketch 40.1 (33804) - http://www.bohemiancoding.com/sketch -->
    <title>expert_support</title>
    <desc>Created with Sketch.</desc>
    <defs>
        <polygon id="path-1" points="67 63 67.0996094 0 0.099609375 0 0 63 25.9837646 63 25.9746094 81 41.0321796 63"></polygon>
        <mask id="mask-2" maskContentUnits="userSpaceOnUse" maskUnits="objectBoundingBox" x="0" y="0" width="67.0996094" height="81" fill="white">
            <use xlink:href="#path-1"></use>
        </mask>
        <polygon id="path-3" points="151.084473 63 151 0 84 0 84.0844727 63 110.068237 63 110.064758 81 125.116652 63"></polygon>
        <mask id="mask-4" maskContentUnits="userSpaceOnUse" maskUnits="objectBoundingBox" x="0" y="0" width="67.0844727" height="81" fill="white">
            <use xlink:href="#path-3"></use>
        </mask>
    </defs>
    <g id="Marketing-Site" stroke="none" stroke-width="1" fill="none" fill-rule="evenodd">
        <g id="Products---Formation" transform="translate(-125.000000, -3462.000000)">
            <g id="expert_support" transform="translate(125.000000, 3462.000000)">
                <path d="M33.124,39.416 C33.964,39.416 34.552,39.976 34.552,40.788 C34.552,41.6 33.935,42.16 33.124,42.16 C32.312,42.16 31.696,41.6 31.696,40.788 C31.696,39.976 32.284,39.416 33.124,39.416 L33.124,39.416 Z M32.172,35.776 C32.172,33.34 32.647,32.136 34.076,31.016 L35.476,29.924 C36.652,29 37.351,28.188 37.351,26.788 C37.351,24.884 35.895,23.736 33.628,23.736 C31.36,23.736 29.96,24.912 29.96,27.124 L29.96,27.656 L28,27.656 L28,27.096 C28,23.736 30.212,22 33.656,22 C37.156,22 39.479,23.96 39.479,26.788 C39.479,28.608 38.556,29.952 37.268,30.932 L35.784,32.08 C34.439,33.116 34.048,33.76 34.048,35.916 L34.048,37.092 L32.172,37.092 L32.172,35.776 Z" id="Fill-1" stroke="#FFFFFF" stroke-width="0.5" fill="#008FD5"></path>
                <polyline id="Stroke-7" stroke="#000000" points="127.759 25 114.347 38.412 107 31.065"></polyline>
                <use id="Combined-Shape-Copy" stroke="#22262E" mask="url(#mask-2)" stroke-width="2" xlink:href="#path-1"></use>
                <use id="Combined-Shape-Copy-2" stroke="#008FD5" mask="url(#mask-4)" stroke-width="2" transform="translate(117.542236, 40.500000) scale(-1, 1) translate(-117.542236, -40.500000) " xlink:href="#path-3"></use>
            </g>
        </g>
    </g>
</svg>