<?xml version="1.0" encoding="UTF-8" standalone="no"?>
<svg width="142px" height="81px" viewBox="0 0 142 81" version="1.1" xmlns="http://www.w3.org/2000/svg" xmlns:xlink="http://www.w3.org/1999/xlink">
    <!-- Generator: Sketch 40.1 (33804) - http://www.bohemiancoding.com/sketch -->
    <title>expert_recommend</title>
    <desc>Created with Sketch.</desc>
    <defs>
        <path d="M77.0704342,63 L141.008545,63 L141.018982,0 L0,0.0112304688 L0.00854492188,63 L61.9922532,63 L61.9915771,81 L77.0704342,63 Z" id="path-1"></path>
        <mask id="mask-2" maskContentUnits="userSpaceOnUse" maskUnits="objectBoundingBox" x="0" y="0" width="141.018982" height="81" fill="white">
            <use xlink:href="#path-1"></use>
        </mask>
    </defs>
    <g id="Marketing-Site" stroke="none" stroke-width="1" fill="none" fill-rule="evenodd">
        <g id="Products---Formation" transform="translate(-735.000000, -3462.000000)">
            <g id="expert_recommend" transform="translate(735.000000, 3462.000000)">
                <g id="Group-12">
                    <use id="Combined-Shape" stroke="#22262E" mask="url(#mask-2)" stroke-width="2" xlink:href="#path-1"></use>
                    <polygon id="Fill-11" fill="#008FD5" points="26.794 26 28.162 30.209 32.588 30.209 29.007 32.811 30.375 37.02 26.794 34.419 23.213 37.02 24.581 32.811 21 30.209 25.426 30.209"></polygon>
                    <polygon id="Fill-13" fill="#008FD5" points="48.794 26 50.162 30.209 54.588 30.209 51.007 32.811 52.375 37.02 48.794 34.419 45.213 37.02 46.581 32.811 43 30.209 47.426 30.209"></polygon>
                    <polygon id="Fill-15" fill="#008FD5" points="69.794 26 71.162 30.209 75.588 30.209 72.007 32.811 73.375 37.02 69.794 34.419 66.213 37.02 67.581 32.811 64 30.209 68.426 30.209"></polygon>
                    <polygon id="Fill-17" fill="#008FD5" points="91.794 26 93.162 30.209 97.588 30.209 94.007 32.811 95.375 37.02 91.794 34.419 88.213 37.02 89.581 32.811 86 30.209 90.426 30.209"></polygon>
                    <polygon id="Fill-19" fill="#008FD5" points="112.794 26 114.162 30.209 118.588 30.209 115.007 32.811 116.375 37.02 112.794 34.419 109.213 37.02 110.581 32.811 107 30.209 111.426 30.209"></polygon>
                </g>
            </g>
        </g>
    </g>
</svg>