<?xml version="1.0" encoding="UTF-8" standalone="no"?>
<svg width="45px" height="54px" viewBox="0 0 45 54" version="1.1" xmlns="http://www.w3.org/2000/svg" xmlns:xlink="http://www.w3.org/1999/xlink">
    <!-- Generator: Sketch 40.1 (33804) - http://www.bohemiancoding.com/sketch -->
    <title>foreign_qualification</title>
    <desc>Created with Sketch.</desc>
    <defs>
        <rect id="path-1" x="6" y="6" width="38.0666667" height="48"></rect>
        <mask id="mask-2" maskContentUnits="userSpaceOnUse" maskUnits="objectBoundingBox" x="0" y="0" width="38.0666667" height="48" fill="white">
            <use xlink:href="#path-1"></use>
        </mask>
        <polygon id="path-3" points="10.0187988 0 38.0666667 0 38.0666667 48 0 48 0 10.0126953"></polygon>
        <mask id="mask-4" maskContentUnits="userSpaceOnUse" maskUnits="objectBoundingBox" x="0" y="0" width="38.0666667" height="48" fill="white">
            <use xlink:href="#path-3"></use>
        </mask>
        <path d="M28.7284866,19.1197762 C28.7284866,19.1197762 28.4083013,18.4394721 28.3046183,18.3955352 C28.2515449,18.4639044 27.7365177,19.3514717 27.7114695,19.7161073 C27.6408419,19.7161073 26.1851736,20.3853228 26.1851736,20.3853228 C26.1851736,20.3853228 25.9313045,21.1076151 25.8888048,21.1644867 C25.6973506,21.2074998 23.7005606,22.7286122 23.6725354,22.7286122 C23.6988155,22.5989571 23.8253587,21.3347939 23.8253587,21.3347939 C23.8253587,21.3347939 23.385528,21.3377708 23.3030949,21.4199986 C23.3030949,21.4341652 23.345492,20.6532578 23.345492,20.6532578 L22.5316845,20.542189 L22.2432701,21.2496916 L22.1586812,22.5702637 L21.5887351,22.570264 L20.8544025,19.3756986 C20.8544025,19.3756986 8.9730802,18 8.97308019,18 C8.97308017,18 8,22.016535 8,22.016535 L8.55105965,25.2114081 L12.833137,27.6262994 L14.9519952,27.331232 L14.9519953,28.9174074 L15.5031576,29.2581241 L19.0607511,31 L19.6573549,29.0024069 L21.352931,29.2579188 L23.9385382,28.4913833 L24.7626524,30.0858116 L26.1851737,30.3038859 C26.1851737,30.3038859 26.2172472,30.1653714 25.9308939,29.386034 C25.6445407,28.6066966 25.1678488,27.8525524 25.1678488,27.8525524 L27.1603072,25.1266139 C27.1603072,25.1266139 27.0662739,24.6087122 26.9060272,24.4023728 C26.8712267,24.3576146 27.5576688,23.2221204 27.5576688,23.2221204 C27.5576688,23.2221204 27.3467312,22.0929114 27.4572922,22.016843 C27.5639522,21.943341 28.5029505,21.5200886 28.601706,21.505614 C28.5847676,21.4181508 28.2202347,21.2499995 28.1353378,21.1648974 C28.1309236,21.0160456 28.9487873,19.8615715 29.1103685,19.7591204 L29.1103685,19.3756987 C29.0537022,19.375288 28.7284866,19.1197762 28.7284866,19.1197762 Z" id="path-5"></path>
        <mask id="mask-6" maskContentUnits="userSpaceOnUse" maskUnits="objectBoundingBox" x="-1" y="-1" width="23.1103685" height="15">
            <rect x="7" y="17" width="23.1103685" height="15" fill="white"></rect>
            <use xlink:href="#path-5" fill="black"></use>
        </mask>
    </defs>
    <g id="Marketing-Site" stroke="none" stroke-width="1" fill="none" fill-rule="evenodd">
        <g id="Products---Formation" transform="translate(-185.000000, -1847.000000)">
            <g id="foreign_qualification" transform="translate(185.000000, 1847.000000)">
                <use id="Rectangle-30-Copy-6" stroke="#22262E" mask="url(#mask-2)" stroke-width="2" xlink:href="#path-1"></use>
                <use id="Rectangle-30-Copy-7" stroke="#22262E" mask="url(#mask-4)" stroke-width="2" fill="#FFFFFF" xlink:href="#path-3"></use>
                <path d="M10.5,1.5 L10.5,9.5" id="Line-Copy-9" stroke="#22262E" stroke-linecap="square"></path>
                <path d="M1.5,10.5 L10.5,10.5" id="Line-Copy-13" stroke="#22262E" stroke-linecap="square"></path>
                <use id="Shape-Copy" stroke="#008FD5" mask="url(#mask-6)" stroke-width="2" xlink:href="#path-5"></use>
            </g>
        </g>
    </g>
</svg>