<svg xmlns="http://www.w3.org/2000/svg" viewBox="0 0 578 194" xmlns:xlink="http://www.w3.org/1999/xlink">
  <defs>
    <path id="a" d="M283 71.907985h26v48h-26z"/>
    <path id="b" d="M277 65.907985h26v48h-26z"/>
  </defs>
  <g fill="none" fill-rule="evenodd">
    <path stroke="#008FD5" d="M107.584437 192.504998l89.091824-89.091825c23.381686-23.3816855 23.381686-61.2908874 0-84.6725727-23.381685-23.38168522-61.290887-23.38168522-84.672572 0l-4.419252 4.4192524-4.419253-4.4192524c-23.3816851-23.38168522-61.290887-23.38168522-84.6725723 0-23.3816852 23.3816853-23.3816852 61.2908872 0 84.6725727l89.0918253 89.091825z"/>
    <path stroke="#008FD5" d="M291.166921 192.504998l89.091825-89.091825c23.381685-23.3816855 23.381685-61.2908874 0-84.6725727-23.381685-23.38168522-61.290887-23.38168522-84.672572 0l-4.419253 4.4192524-4.419252-4.4192524c-23.381685-23.38168522-61.290887-23.38168522-84.672573 0-23.381685 23.3816853-23.381685 61.2908872 0 84.6725727l89.091825 89.091825z"/>
    <path stroke="#008FD5" d="M291.166921 192.504998l89.091825-89.091825c23.381685-23.3816855 23.381685-61.2908874 0-84.6725727-23.381685-23.38168522-61.290887-23.38168522-84.672572 0l-4.419253 4.4192524-4.419252-4.4192524c-23.381685-23.38168522-61.290887-23.38168522-84.672573 0-23.381685 23.3816853-23.381685 61.2908872 0 84.6725727l89.091825 89.091825z"/>
    <path stroke="#008FD5" d="M470.869385 192.504998l89.091825-89.091825c23.381685-23.3816855 23.381685-61.2908874 0-84.6725727-23.381685-23.38168522-61.290887-23.38168522-84.672572 0l-4.419253 4.4192524-4.419252-4.4192524c-23.381685-23.38168522-61.290887-23.38168522-84.672573 0-23.381685 23.3816853-23.381685 61.2908872 0 84.6725727l89.091825 89.091825z"/>
    <path stroke="#22262E" d="M94.5 80.407985h24v32h-24z"/>
    <path stroke="#22262E" d="M138.5 112.407985h-64" stroke-linecap="square"/>
    <path stroke="#008FD5" d="M110.5 99.407985v5M110.5 88.407985v5M102.5 99.407985v5M102.5 88.407985v5M106.5 60.407985v12M80 66.907985l8.4852814 8.4852814M124.514719 75.393267L133 66.9079856M138.5 96.407985h-12M86.5 96.407985h-12" stroke-linecap="square"/>
    <g>
      <use fill="#FFF" xlink:href="#a"/>
      <path stroke="#22262E" d="M283.5 72.407985h25v47h-25z"/>
    </g>
    <g>
      <use fill="#FFF" xlink:href="#b"/>
      <path stroke="#22262E" d="M277.5 66.407985h25v47h-25z"/>
    </g>
    <circle cx="290" cy="88.907985" r="6.5" stroke="#008FD5"/>
    <ellipse cx="469.918495" cy="85.9866299" stroke="#008FD5" rx="6.91849459" ry="7.07864493"/>
    <path stroke="#008FD5" d="M482.697266 106.05404c0-7.2603657-5.752529-13.146055-12.848633-13.146055C462.752529 92.907985 457 98.7936743 457 106.05404"/>
    <path stroke="#22262E" d="M443.5 65.407985h53v53h-53z"/>
  </g>
</svg>
