<svg viewBox="0 0 843 399" xmlns="http://www.w3.org/2000/svg" xmlns:xlink="http://www.w3.org/1999/xlink">
  <defs>
    <path id="a" d="M0 6h30v21H0z"/>
    <mask id="c" x="0" y="0" width="30" height="21" fill="#fff">
      <use xlink:href="#a"/>
    </mask>
    <path id="b" d="M12 0h6v7h-6z"/>
    <mask id="d" x="0" y="0" width="6" height="7" fill="#fff">
      <use xlink:href="#b"/>
    </mask>
  </defs>
  <g fill="none" fill-rule="evenodd">
    <path fill="#FFF" d="M0 0h843v399H0z"/>
    <path d="M79.03 45h7.395v-1.207h-5.916V39.39h4.522v-1.207h-4.522v-4.131h5.61v-1.207H79.03V45zm9.82 0h1.411v-5.44c0-1.598 1.19-2.38 2.346-2.38 1.224 0 1.887.646 1.887 2.21V45h1.411v-5.44c0-1.598 1.19-2.38 2.346-2.38 1.224 0 1.887.646 1.887 2.21V45h1.411v-5.508c0-2.584-1.394-3.536-2.992-3.536-1.105 0-2.431.51-3.043 1.666-.459-1.19-1.462-1.666-2.601-1.666-1.275 0-2.244.68-2.652 1.513v-1.36H88.85V45zm15.77 3.094V36.109h1.411v1.496c.51-.867 1.717-1.649 3.009-1.649 2.329 0 4.046 1.7 4.046 4.471v.136c0 2.72-1.598 4.59-4.046 4.59-1.462 0-2.499-.731-3.009-1.615v4.556h-1.411zm4.284-4.114c1.768 0 2.72-1.19 2.72-3.349v-.136c0-2.244-1.241-3.366-2.737-3.366-1.649 0-2.907 1.088-2.907 3.366v.136c0 2.278 1.19 3.349 2.924 3.349zm6.709 1.02h1.428V31.859h-1.428V45zm8.324-1.02c1.785 0 2.907-1.343 2.907-3.349v-.119c0-2.057-1.139-3.383-2.907-3.383-1.785 0-2.907 1.326-2.907 3.366v.136c0 2.023 1.105 3.349 2.907 3.349zm-.017 1.173c-2.533 0-4.352-1.921-4.352-4.522v-.136c0-2.669 1.853-4.539 4.369-4.539s4.369 1.853 4.369 4.522v.136c0 2.686-1.853 4.539-4.386 4.539zm7.423 2.941h1.428l4.913-11.985h-1.445l-2.465 6.375-2.72-6.375h-1.513l3.485 7.973-1.683 4.012zm11.877-2.941c-2.516 0-4.301-1.768-4.301-4.505v-.136c0-2.686 1.717-4.556 4.165-4.556 2.057 0 3.995 1.241 3.995 4.42v.459h-6.698c.068 2.023 1.037 3.145 2.856 3.145 1.377 0 2.176-.51 2.363-1.547h1.411c-.306 1.785-1.785 2.72-3.791 2.72zm-2.788-5.457h5.202c-.136-1.836-1.088-2.567-2.55-2.567-1.445 0-2.414.986-2.652 2.567zm12.744 5.457c-2.516 0-4.301-1.768-4.301-4.505v-.136c0-2.686 1.717-4.556 4.165-4.556 2.057 0 3.995 1.241 3.995 4.42v.459h-6.698c.068 2.023 1.037 3.145 2.856 3.145 1.377 0 2.176-.51 2.363-1.547h1.411c-.306 1.785-1.785 2.72-3.791 2.72zm-2.788-5.457h5.202c-.136-1.836-1.088-2.567-2.55-2.567-1.445 0-2.414.986-2.652 2.567zm11.945 5.457c2.159 0 3.264-1.088 3.264-2.703 0-1.887-1.292-2.295-3.128-2.635-1.632-.289-2.074-.612-2.074-1.411 0-.765.663-1.275 1.683-1.275 1.122 0 1.666.425 1.87 1.394h1.36c-.238-1.921-1.615-2.567-3.213-2.567-1.394 0-3.009.85-3.009 2.499 0 1.547.782 2.193 3.094 2.618 1.377.255 2.074.561 2.074 1.496 0 .952-.595 1.411-1.938 1.411-1.428 0-1.989-.663-2.091-1.717h-1.377c.085 1.819 1.36 2.89 3.485 2.89zM35.673 115.117c1.846 0 3.211-1.183 3.211-2.743 0-1.755-1.092-2.379-3.159-2.704-1.898-.286-2.236-.754-2.236-1.664 0-.871.663-1.508 1.937-1.508 1.287 0 1.963.481 2.184 1.651h1.014c-.182-1.651-1.339-2.561-3.198-2.561-1.755 0-2.99 1.092-2.99 2.522 0 1.651 1.157 2.262 3.107 2.561 1.768.286 2.249.728 2.249 1.781s-.923 1.755-2.119 1.755c-1.872 0-2.314-.936-2.457-2.041h-1.092c.169 1.586 1.066 2.951 3.549 2.951zm5.2433333-.117h1.079v-4.121c0-1.222.897-1.859 1.898-1.859 1.092 0 1.599.533 1.599 1.729V115h1.079v-4.173c0-1.976-.988-2.743-2.392-2.743-1.118 0-1.872.559-2.184 1.196v-4.329h-1.079V115zm10.7813334-.78c1.365 0 2.223-1.027 2.223-2.561v-.091c0-1.573-.871-2.587-2.223-2.587-1.365 0-2.223 1.014-2.223 2.574v.104c0 1.547.845 2.561 2.223 2.561zm-.013.897c-1.937 0-3.328-1.469-3.328-3.458v-.104c0-2.041 1.417-3.471 3.341-3.471 1.924 0 3.341 1.417 3.341 3.458v.104c0 2.054-1.417 3.471-3.354 3.471zM58.124 115h1.183l1.586-5.096L62.31 115h1.196l2.119-6.799H64.52l-1.599 5.473-1.547-5.473h-.936l-1.651 5.473-1.586-5.473h-1.17L58.124 115zm9.6763333.065c.455 0 .832-.364.832-.832 0-.468-.377-.832-.832-.832-.455 0-.832.364-.832.832 0 .468.377.832.832.832zm0-3.861c.455 0 .832-.364.832-.832 0-.468-.377-.832-.832-.832-.455 0-.832.364-.832.832 0 .468.377.832.832.832zM84.813 115l3.198-9.295h1.482L92.639 115h-1.118l-.91-2.678h-3.835L85.879 115h-1.066zm3.887-8.359l-1.612 4.784h3.224l-1.612-4.784zM94.3983333 115h1.092v-10.049h-1.092V115zm3.5013334 0h1.092v-10.049h-1.092V115zm8.8486663 1.924h1.079c-1.17-1.456-2.106-3.302-2.106-5.98 0-2.678.936-4.537 2.106-5.993h-1.079c-1.196 1.404-2.158 3.406-2.158 5.993s.962 4.576 2.158 5.98zm5.633334-1.807c-2.535 0-3.341-1.898-3.341-4.225v-.221c0-3.341 1.508-5.083 3.64-5.083 1.443 0 2.47.754 2.717 2.249h-1.079c-.208-.858-.676-1.326-1.716-1.326-1.404 0-2.392 1.261-2.444 3.718.442-.754 1.313-1.261 2.392-1.261 1.846 0 3.042 1.339 3.042 3.042 0 1.859-1.248 3.107-3.211 3.107zm0-.884c1.222 0 2.054-.858 2.054-2.171 0-1.339-.806-2.21-2.067-2.21-1.248 0-2.132.845-2.132 2.054 0 1.521.897 2.327 2.145 2.327zm4.359333 2.652h1.079c1.196-1.404 2.158-3.406 2.158-5.993s-.962-4.576-2.158-5.98h-1.079c1.17 1.456 2.106 3.302 2.106 5.98 0 2.678-.936 4.537-2.106 5.993z" fill="#22262E"/>
    <path d="M147.557 115.117c2.08 0 3.562-1.053 3.887-3.198h-1.053c-.234 1.508-1.287 2.275-2.808 2.275-2.002 0-3.198-1.43-3.198-3.796v-.104c0-2.34 1.287-3.835 3.211-3.835 1.586 0 2.405.728 2.639 2.145h1.118c-.195-2.015-1.833-3.042-3.77-3.042-2.522 0-4.368 1.989-4.368 4.745v.104c0 2.86 1.651 4.706 4.342 4.706zm7.999333 0c1.092 0 1.846-.559 2.158-1.196V115h1.079v-6.799h-1.079v4.121c0 1.222-.91 1.859-1.872 1.859-1.066 0-1.573-.533-1.573-1.729v-4.251h-1.079v4.303c0 1.872 1.014 2.613 2.366 2.613zm5.594334-.117h1.079v-3.731c0-1.677.871-2.106 2.236-2.171v-1.014c-1.222.039-1.807.572-2.236 1.339v-1.222h-1.079V115zm5.061333 0h1.079v-3.731c0-1.677.871-2.106 2.236-2.171v-1.014c-1.222.039-1.807.572-2.236 1.339v-1.222h-1.079V115zm7.648333.117c-1.924 0-3.289-1.352-3.289-3.445v-.104c0-2.054 1.313-3.484 3.185-3.484 1.573 0 3.055.949 3.055 3.38v.351h-5.122c.052 1.547.793 2.405 2.184 2.405 1.053 0 1.664-.39 1.807-1.183h1.079c-.234 1.365-1.365 2.08-2.899 2.08zm-2.132-4.173h3.978c-.104-1.404-.832-1.963-1.95-1.963-1.105 0-1.846.754-2.028 1.963zm6.907334 4.056h1.079v-4.121c0-1.222.897-1.859 1.898-1.859 1.092 0 1.599.533 1.599 1.729V115h1.079v-4.173c0-1.976-.988-2.743-2.392-2.743-1.118 0-1.872.559-2.184 1.196v-1.079h-1.079V115zm10.014333.091c.442 0 .702-.065.923-.143v-.91c-.234.091-.494.143-.832.143-.546 0-.845-.325-.845-.988v-4.082h1.586v-.91h-1.586v-1.547h-1.079v1.547h-.975v.91h.975v4.186c0 1.066.598 1.794 1.833 1.794zm8.094667 1.833h1.079c-1.17-1.456-2.106-3.302-2.106-5.98 0-2.678.936-4.537 2.106-5.993h-1.079c-1.196 1.404-2.158 3.406-2.158 5.993s.962 4.576 2.158 5.98zM203.028 115v-1.95h-4.654v-.364l4.251-6.981h1.508v6.422h1.287v.923h-1.287V115h-1.105zm-3.224-2.873h3.224v-5.564l-3.224 5.564zm6.517333 4.758h1.079c1.196-1.404 2.158-3.406 2.158-5.993s-.962-4.576-2.158-5.98h-1.079c1.17 1.456 2.106 3.302 2.106 5.98 0 2.678-.936 4.537-2.106 5.993zM233.300667 115h1.131v-4.16h3.354v-.923h-3.354v-3.289h4.303v-.923h-5.434V115zm9.637333-.78c1.365 0 2.223-1.027 2.223-2.561v-.091c0-1.573-.871-2.587-2.223-2.587-1.365 0-2.223 1.014-2.223 2.574v.104c0 1.547.845 2.561 2.223 2.561zm-.013.897c-1.937 0-3.328-1.469-3.328-3.458v-.104c0-2.041 1.417-3.471 3.341-3.471 1.924 0 3.341 1.417 3.341 3.458v.104c0 2.054-1.417 3.471-3.354 3.471zm5.204333-.117h1.079v-3.731c0-1.677.871-2.106 2.236-2.171v-1.014c-1.222.039-1.807.572-2.236 1.339v-1.222h-1.079V115zm5.061334 0h1.079v-4.16c0-1.222.91-1.82 1.794-1.82.936 0 1.443.494 1.443 1.69V115h1.079v-4.16c0-1.222.91-1.82 1.794-1.82.936 0 1.443.494 1.443 1.69V115h1.079v-4.212c0-1.976-1.066-2.704-2.288-2.704-.845 0-1.859.39-2.327 1.274-.351-.91-1.118-1.274-1.989-1.274-.975 0-1.716.52-2.028 1.157v-1.04h-1.079V115zm14.785333.117c-1.924 0-3.289-1.352-3.289-3.445v-.104c0-2.054 1.313-3.484 3.185-3.484 1.573 0 3.055.949 3.055 3.38v.351h-5.122c.052 1.547.793 2.405 2.184 2.405 1.053 0 1.664-.39 1.807-1.183h1.079c-.234 1.365-1.365 2.08-2.899 2.08zm-2.132-4.173h3.978c-.104-1.404-.832-1.963-1.95-1.963-1.105 0-1.846.754-2.028 1.963zm6.907333 4.056h1.079v-3.731c0-1.677.871-2.106 2.236-2.171v-1.014c-1.222.039-1.807.572-2.236 1.339v-1.222h-1.079V115zm10.434667 1.924h1.079c-1.17-1.456-2.106-3.302-2.106-5.98 0-2.678.936-4.537 2.106-5.993h-1.079c-1.196 1.404-2.158 3.406-2.158 5.993s.962 4.576 2.158 5.98zm1.889333-1.924h6.227v-.923h-4.485l2.561-2.496c1.144-1.118 1.872-2.236 1.872-3.38 0-1.599-1.092-2.613-2.808-2.613-1.768 0-2.873 1.157-3.016 2.977h1.053c.182-1.456.884-2.067 1.963-2.067 1.053 0 1.664.624 1.664 1.664 0 .949-.494 1.794-1.339 2.691l-3.692 3.887v.26zm7.388334 1.885h1.079c1.196-1.404 2.158-3.406 2.158-5.993s-.962-4.576-2.158-5.98h-1.079c1.17 1.456 2.106 3.302 2.106 5.98 0 2.678-.936 4.537-2.106 5.993z" fill="#6F7680"/>
    <g stroke="#989EA6" stroke-linecap="square">
      <path d="M811.60700725 32.05405118l-12.05295652 12.0529565M811.60700682 44.10700725l-12.0529565-12.05295652"/>
    </g>
    <path fill="#E9EAEB" fill-rule="nonzero" d="M0 75h843v-1H0M0 152h843v-1H0"/>
    <path fill="#E9EAEB" d="M838 220h5v179h-5z"/>
    <path fill="#C6C9CC" d="M838 218h5v82h-5z"/>
    <g transform="translate(31.5 24)" stroke="#22262E">
      <use mask="url(#c)" stroke-width="2" xlink:href="#a"/>
      <use mask="url(#d)" stroke-width="2" transform="matrix(1 0 0 -1 0 7)" xlink:href="#b"/>
      <path d="M25.5 12.5h-8M25.5 16.5h-8M25.5 20.5h-8" stroke-linecap="square"/>
      <circle cx="9" cy="14" r="3"/>
      <path d="M14 22c0-2.7614237-2.2385763-5-5-5-2.76142375 0-5 2.2385763-5 5"/>
    </g>
    <path d="M654.5 273h107v-38h-107v38zm-1-39h109v40h-109v-40z" fill="#E9EAEB" fill-rule="nonzero"/>
    <path d="M681.85 259v-10.725h3.225c2.055 0 3.75.84 3.75 2.985v.06c0 1.77-1.185 2.64-2.655 2.925l3.285 4.755H688l-3.195-4.665h-1.65V259h-1.305zm1.305-5.7h2.01c1.53 0 2.355-.66 2.355-1.98v-.06c0-1.455-.9-1.935-2.355-1.935h-2.01v3.975zm11.21 5.835c-2.22 0-3.795-1.56-3.795-3.975v-.12c0-2.37 1.515-4.02 3.675-4.02 1.815 0 3.525 1.095 3.525 3.9v.405h-5.91c.06 1.785.915 2.775 2.52 2.775 1.215 0 1.92-.45 2.085-1.365h1.245c-.27 1.575-1.575 2.4-3.345 2.4zm-2.46-4.815h4.59c-.12-1.62-.96-2.265-2.25-2.265-1.275 0-2.13.87-2.34 2.265zm10.475 4.815c1.905 0 2.88-.96 2.88-2.385 0-1.665-1.14-2.025-2.76-2.325-1.44-.255-1.83-.54-1.83-1.245 0-.675.585-1.125 1.485-1.125.99 0 1.47.375 1.65 1.23h1.2c-.21-1.695-1.425-2.265-2.835-2.265-1.23 0-2.655.75-2.655 2.205 0 1.365.69 1.935 2.73 2.31 1.215.225 1.83.495 1.83 1.32 0 .84-.525 1.245-1.71 1.245-1.26 0-1.755-.585-1.845-1.515h-1.215c.075 1.605 1.2 2.55 3.075 2.55zm7.625 0c1.26 0 2.13-.645 2.49-1.38V259h1.245v-7.845h-1.245v4.755c0 1.41-1.05 2.145-2.16 2.145-1.23 0-1.815-.615-1.815-1.995v-4.905h-1.245v4.965c0 2.16 1.17 3.015 2.73 3.015zm6.455-.135h1.245v-4.8c0-1.41 1.05-2.1 2.07-2.1 1.08 0 1.665.57 1.665 1.95V259h1.245v-4.8c0-1.41 1.05-2.1 2.07-2.1 1.08 0 1.665.57 1.665 1.95V259h1.245v-4.86c0-2.28-1.23-3.12-2.64-3.12-.975 0-2.145.45-2.685 1.47-.405-1.05-1.29-1.47-2.295-1.47-1.125 0-1.98.6-2.34 1.335v-1.2h-1.245V259zm17.06.135c-2.22 0-3.795-1.56-3.795-3.975v-.12c0-2.37 1.515-4.02 3.675-4.02 1.815 0 3.525 1.095 3.525 3.9v.405h-5.91c.06 1.785.915 2.775 2.52 2.775 1.215 0 1.92-.45 2.085-1.365h1.245c-.27 1.575-1.575 2.4-3.345 2.4zm-2.46-4.815h4.59c-.12-1.62-.96-2.265-2.25-2.265-1.275 0-2.13.87-2.34 2.265z" fill="#22262E"/>
    <path fill="#E9EAEB" fill-rule="nonzero" d="M31.3001492 365H813.50256v-1H31.3001492M31.3001492 292H813.50256v-1H31.3001492"/>
    <g transform="translate(794.5 326)" fill="#989EA6">
      <ellipse cx="1.64925625" cy="1.5" rx="1.48341597" ry="1.5"/>
      <ellipse cx="7.58292014" cy="1.5" rx="1.48341597" ry="1.5"/>
      <ellipse cx="13.516584" cy="1.5" rx="1.48341597" ry="1.5"/>
    </g>
    <g transform="translate(794.5 254)" fill="#989EA6">
      <ellipse cx="1.64925625" cy="1.5" rx="1.48341597" ry="1.5"/>
      <ellipse cx="7.58292014" cy="1.5" rx="1.48341597" ry="1.5"/>
      <ellipse cx="13.516584" cy="1.5" rx="1.48341597" ry="1.5"/>
    </g>
    <path fill="#F9F9F9" d="M0 152h843v67.5H0z"/>
    <path d="M337.315 191.135c2.13 0 3.705-1.365 3.705-3.165 0-2.025-1.26-2.745-3.645-3.12-2.19-.33-2.58-.87-2.58-1.92 0-1.005.765-1.74 2.235-1.74 1.485 0 2.265.555 2.52 1.905h1.17c-.21-1.905-1.545-2.955-3.69-2.955-2.025 0-3.45 1.26-3.45 2.91 0 1.905 1.335 2.61 3.585 2.955 2.04.33 2.595.84 2.595 2.055 0 1.215-1.065 2.025-2.445 2.025-2.16 0-2.67-1.08-2.835-2.355h-1.26c.195 1.83 1.23 3.405 4.095 3.405zm8.435-.03c.51 0 .81-.075 1.065-.165v-1.05c-.27.105-.57.165-.96.165-.63 0-.975-.375-.975-1.14v-4.71h1.83v-1.05h-1.83v-1.785h-1.245v1.785h-1.125v1.05h1.125v4.83c0 1.23.69 2.07 2.115 2.07zm5.18.03c-1.455 0-2.61-.705-2.61-2.31 0-1.815 1.92-2.43 3.93-2.43h1.125v-.57c0-1.245-.48-1.77-1.68-1.77-1.08 0-1.68.45-1.8 1.41h-1.245c.165-1.785 1.59-2.445 3.105-2.445 1.5 0 2.865.615 2.865 2.805V191h-1.245v-.99c-.585.735-1.29 1.125-2.445 1.125zm.12-.99c1.32 0 2.325-.675 2.325-1.89v-.975h-1.08c-1.575 0-2.73.39-2.73 1.545 0 .81.39 1.32 1.485 1.32zm6.215.855h1.245v-4.305c0-1.935 1.005-2.43 2.58-2.505v-1.17c-1.41.045-2.085.66-2.58 1.545v-1.41h-1.245V191zm8.3.105c.51 0 .81-.075 1.065-.165v-1.05c-.27.105-.57.165-.96.165-.63 0-.975-.375-.975-1.14v-4.71h1.83v-1.05h-1.83v-1.785h-1.245v1.785h-1.125v1.05h1.125v4.83c0 1.23.69 2.07 2.115 2.07zM472.85 191h6.525v-1.065h-5.22v-3.885h3.99v-1.065h-3.99v-3.645h4.95v-1.065h-6.255V191zm8.6 0h1.245v-4.755c0-1.41 1.035-2.145 2.19-2.145 1.26 0 1.845.615 1.845 1.995V191h1.245v-4.815c0-2.28-1.14-3.165-2.76-3.165-1.29 0-2.16.645-2.52 1.38v-1.245h-1.245V191zm12.125.135c-2.055 0-3.54-1.455-3.54-3.9v-.12c0-2.4 1.5-4.095 3.66-4.095 1.305 0 2.115.63 2.565 1.395v-5.01h1.245V191h-1.245v-1.35c-.45.765-1.545 1.485-2.685 1.485zm.135-1.035c1.455 0 2.595-.96 2.595-2.97v-.12c0-2.01-.96-2.955-2.49-2.955-1.56 0-2.49 1.095-2.49 3v.12c0 1.98 1.065 2.925 2.385 2.925zM335.395 332h1.305v-10.725h-1.215l-2.49 1.8v1.215l2.4-1.725V332zm8.45-.945c1.875 0 2.835-1.44 2.835-4.155v-.6c0-2.49-1.05-4.11-2.865-4.11-1.815 0-2.895 1.5-2.895 4.14v.6c0 2.715 1.14 4.125 2.925 4.125zm0 1.08c-2.565 0-4.26-2.07-4.26-5.19v-.6c0-3.165 1.605-5.205 4.23-5.205 2.64 0 4.185 2.115 4.185 5.175v.6c0 3.12-1.515 5.22-4.155 5.22zm4.745 2.085h1.14l4.365-13.86h-1.14l-4.365 13.86zm8.9-2.22h1.305v-10.725h-1.215l-2.49 1.8v1.215l2.4-1.725V332zm7.505.135c2.04 0 3.675-1.38 3.675-3.645 0-2.19-1.41-3.555-3.33-3.555-1.02 0-1.755.33-2.19.735v-3.27h4.95v-1.125h-6.03v5.745h.48c.57-.645 1.29-1.035 2.535-1.035 1.365 0 2.25.99 2.25 2.505 0 1.62-.9 2.595-2.355 2.595-1.635 0-2.1-.81-2.31-1.98h-1.245c.15 1.755 1.26 3.03 3.57 3.03zm4.355 2.085h1.14l4.365-13.86h-1.14l-4.365 13.86zm8.9-2.22h1.305v-10.725h-1.215l-2.49 1.8v1.215l2.4-1.725V332zm7.505.135c2.04 0 3.675-1.38 3.675-3.645 0-2.19-1.41-3.555-3.33-3.555-1.02 0-1.755.33-2.19.735v-3.27h4.95v-1.125h-6.03v5.745h.48c.57-.645 1.29-1.035 2.535-1.035 1.365 0 2.25.99 2.25 2.505 0 1.62-.9 2.595-2.355 2.595-1.635 0-2.1-.81-2.31-1.98h-1.245c.15 1.755 1.26 3.03 3.57 3.03zM32.85 191h1.305v-4.8h3.87v-1.065h-3.87v-3.795h4.965v-1.065h-6.27V191zm8.18 0h1.245v-7.845H41.03V191zm.6-9.48c.45 0 .825-.375.825-.825 0-.45-.375-.825-.825-.825-.45 0-.825.375-.825.825 0 .45.375.825.825.825zm3.395 9.48h1.245v-4.305c0-1.935 1.005-2.43 2.58-2.505v-1.17c-1.41.045-2.085.66-2.58 1.545v-1.41h-1.245V191zm8.195.135c1.905 0 2.88-.96 2.88-2.385 0-1.665-1.14-2.025-2.76-2.325-1.44-.255-1.83-.54-1.83-1.245 0-.675.585-1.125 1.485-1.125.99 0 1.47.375 1.65 1.23h1.2c-.21-1.695-1.425-2.265-2.835-2.265-1.23 0-2.655.75-2.655 2.205 0 1.365.69 1.935 2.73 2.31 1.215.225 1.83.495 1.83 1.32 0 .84-.525 1.245-1.71 1.245-1.26 0-1.755-.585-1.845-1.515h-1.215c.075 1.605 1.2 2.55 3.075 2.55zm7.355-.03c.51 0 .81-.075 1.065-.165v-1.05c-.27.105-.57.165-.96.165-.63 0-.975-.375-.975-1.14v-4.71h1.83v-1.05h-1.83v-1.785H58.46v1.785h-1.125v1.05h1.125v4.83c0 1.23.69 2.07 2.115 2.07zM67.98 191h1.245v-9.195L74.64 191h1.5v-10.725h-1.245v8.865l-5.22-8.865H67.98V191zm12.935.135c-1.455 0-2.61-.705-2.61-2.31 0-1.815 1.92-2.43 3.93-2.43h1.125v-.57c0-1.245-.48-1.77-1.68-1.77-1.08 0-1.68.45-1.8 1.41h-1.245c.165-1.785 1.59-2.445 3.105-2.445 1.5 0 2.865.615 2.865 2.805V191H83.36v-.99c-.585.735-1.29 1.125-2.445 1.125zm.12-.99c1.32 0 2.325-.675 2.325-1.89v-.975h-1.08c-1.575 0-2.73.39-2.73 1.545 0 .81.39 1.32 1.485 1.32zm6.215.855h1.245v-4.8c0-1.41 1.05-2.1 2.07-2.1 1.08 0 1.665.57 1.665 1.95V191h1.245v-4.8c0-1.41 1.05-2.1 2.07-2.1 1.08 0 1.665.57 1.665 1.95V191h1.245v-4.86c0-2.28-1.23-3.12-2.64-3.12-.975 0-2.145.45-2.685 1.47-.405-1.05-1.29-1.47-2.295-1.47-1.125 0-1.98.6-2.34 1.335v-1.2H87.25V191zm17.06.135c-2.22 0-3.795-1.56-3.795-3.975v-.12c0-2.37 1.515-4.02 3.675-4.02 1.815 0 3.525 1.095 3.525 3.9v.405h-5.91c.06 1.785.915 2.775 2.52 2.775 1.215 0 1.92-.45 2.085-1.365h1.245c-.27 1.575-1.575 2.4-3.345 2.4zm-2.46-4.815h4.59c-.12-1.62-.96-2.265-2.25-2.265-1.275 0-2.13.87-2.34 2.265zM179.85 191h6.21v-1.065h-4.905v-9.66h-1.305V191zm10.1.135c-1.455 0-2.61-.705-2.61-2.31 0-1.815 1.92-2.43 3.93-2.43h1.125v-.57c0-1.245-.48-1.77-1.68-1.77-1.08 0-1.68.45-1.8 1.41h-1.245c.165-1.785 1.59-2.445 3.105-2.445 1.5 0 2.865.615 2.865 2.805V191h-1.245v-.99c-.585.735-1.29 1.125-2.445 1.125zm.12-.99c1.32 0 2.325-.675 2.325-1.89v-.975h-1.08c-1.575 0-2.73.39-2.73 1.545 0 .81.39 1.32 1.485 1.32zm8.645.99c1.905 0 2.88-.96 2.88-2.385 0-1.665-1.14-2.025-2.76-2.325-1.44-.255-1.83-.54-1.83-1.245 0-.675.585-1.125 1.485-1.125.99 0 1.47.375 1.65 1.23h1.2c-.21-1.695-1.425-2.265-2.835-2.265-1.23 0-2.655.75-2.655 2.205 0 1.365.69 1.935 2.73 2.31 1.215.225 1.83.495 1.83 1.32 0 .84-.525 1.245-1.71 1.245-1.26 0-1.755-.585-1.845-1.515h-1.215c.075 1.605 1.2 2.55 3.075 2.55zm7.355-.03c.51 0 .81-.075 1.065-.165v-1.05c-.27.105-.57.165-.96.165-.63 0-.975-.375-.975-1.14v-4.71h1.83v-1.05h-1.83v-1.785h-1.245v1.785h-1.125v1.05h1.125v4.83c0 1.23.69 2.07 2.115 2.07zm7.405-.105h1.245v-9.195l5.415 9.195h1.5v-10.725h-1.245v8.865l-5.22-8.865h-1.695V191zm12.935.135c-1.455 0-2.61-.705-2.61-2.31 0-1.815 1.92-2.43 3.93-2.43h1.125v-.57c0-1.245-.48-1.77-1.68-1.77-1.08 0-1.68.45-1.8 1.41h-1.245c.165-1.785 1.59-2.445 3.105-2.445 1.5 0 2.865.615 2.865 2.805V191h-1.245v-.99c-.585.735-1.29 1.125-2.445 1.125zm.12-.99c1.32 0 2.325-.675 2.325-1.89v-.975h-1.08c-1.575 0-2.73.39-2.73 1.545 0 .81.39 1.32 1.485 1.32zm6.215.855h1.245v-4.8c0-1.41 1.05-2.1 2.07-2.1 1.08 0 1.665.57 1.665 1.95V191h1.245v-4.8c0-1.41 1.05-2.1 2.07-2.1 1.08 0 1.665.57 1.665 1.95V191h1.245v-4.86c0-2.28-1.23-3.12-2.64-3.12-.975 0-2.145.45-2.685 1.47-.405-1.05-1.29-1.47-2.295-1.47-1.125 0-1.98.6-2.34 1.335v-1.2h-1.245V191zm17.06.135c-2.22 0-3.795-1.56-3.795-3.975v-.12c0-2.37 1.515-4.02 3.675-4.02 1.815 0 3.525 1.095 3.525 3.9v.405h-5.91c.06 1.785.915 2.775 2.52 2.775 1.215 0 1.92-.45 2.085-1.365h1.245c-.27 1.575-1.575 2.4-3.345 2.4zm-2.46-4.815h4.59c-.12-1.62-.96-2.265-2.25-2.265-1.275 0-2.13.87-2.34 2.265z" fill="#6F7680"/>
    <path d="M33.85 332v-10.725h3.225c1.995 0 3.45.66 3.45 2.775v.06c0 .975-.39 1.845-1.62 2.265 1.56.375 2.145 1.17 2.145 2.565v.06c0 2.025-1.38 3-3.525 3H33.85zm1.275-1.02h2.37c1.56 0 2.28-.69 2.28-1.995v-.06c0-1.32-.735-1.95-2.46-1.95h-2.19v4.005zm0-5.025h1.95c1.575 0 2.175-.57 2.175-1.89v-.06c0-1.215-.705-1.71-2.205-1.71h-1.92v3.66zM43.32 332h1.26v-11.595h-1.26V332zm5.975.135c-1.455 0-2.61-.705-2.61-2.31 0-1.815 1.92-2.43 3.93-2.43h1.125v-.57c0-1.245-.48-1.77-1.68-1.77-1.08 0-1.68.45-1.8 1.41h-1.245c.165-1.785 1.59-2.445 3.105-2.445 1.5 0 2.865.615 2.865 2.805V332H51.74v-.99c-.585.735-1.29 1.125-2.445 1.125zm.12-.99c1.32 0 2.325-.675 2.325-1.89v-.975h-1.08c-1.575 0-2.73.39-2.73 1.545 0 .81.39 1.32 1.485 1.32zm6.215.855h1.245v-4.755c0-1.41 1.035-2.145 2.19-2.145 1.26 0 1.845.615 1.845 1.995V332h1.245v-4.815c0-2.28-1.14-3.165-2.76-3.165-1.29 0-2.16.645-2.52 1.38v-1.245H55.63V332zm12.425.135c1.89 0 3.255-1.26 3.42-2.955H70.32c-.135 1.275-1.14 1.92-2.25 1.92-1.515 0-2.565-1.02-2.565-2.94v-.12c0-1.845 1.095-2.985 2.52-2.985 1.08 0 1.98.465 2.175 1.71h1.23c-.24-1.995-1.77-2.745-3.405-2.745-2.1 0-3.81 1.62-3.81 4.02v.12c0 2.43 1.65 3.975 3.84 3.975zM73.55 332h1.245v-4.755c0-1.41 1.035-2.145 2.19-2.145 1.26 0 1.845.615 1.845 1.995V332h1.245v-4.815c0-2.28-1.14-3.165-2.76-3.165-1.29 0-2.16.645-2.52 1.38v-4.995H73.55V332zm12.38.135c-2.22 0-3.795-1.56-3.795-3.975v-.12c0-2.37 1.515-4.02 3.675-4.02 1.815 0 3.525 1.095 3.525 3.9v.405h-5.91c.06 1.785.915 2.775 2.52 2.775 1.215 0 1.92-.45 2.085-1.365h1.245c-.27 1.575-1.575 2.4-3.345 2.4zm-2.46-4.815h4.59c-.12-1.62-.96-2.265-2.25-2.265-1.275 0-2.13.87-2.34 2.265zM179.85 332h1.305v-5.235L185.94 332h1.575l-5.01-5.52 4.77-5.22h-1.455l-4.665 5.175v-5.16h-1.305V332zm12.11.135c-2.22 0-3.795-1.56-3.795-3.975v-.12c0-2.37 1.515-4.02 3.675-4.02 1.815 0 3.525 1.095 3.525 3.9v.405h-5.91c.06 1.785.915 2.775 2.52 2.775 1.215 0 1.92-.45 2.085-1.365h1.245c-.27 1.575-1.575 2.4-3.345 2.4zm-2.46-4.815h4.59c-.12-1.62-.96-2.265-2.25-2.265-1.275 0-2.13.87-2.34 2.265zm8 4.68h1.26v-11.595h-1.26V332zm4.04 0h1.26v-11.595h-1.26V332zm7.22.135c-2.22 0-3.795-1.56-3.795-3.975v-.12c0-2.37 1.515-4.02 3.675-4.02 1.815 0 3.525 1.095 3.525 3.9v.405h-5.91c.06 1.785.915 2.775 2.52 2.775 1.215 0 1.92-.45 2.085-1.365h1.245c-.27 1.575-1.575 2.4-3.345 2.4zm-2.46-4.815h4.59c-.12-1.62-.96-2.265-2.25-2.265-1.275 0-2.13.87-2.34 2.265zm8.6 7.41h1.26l4.335-10.575h-1.275l-2.175 5.625-2.4-5.625h-1.335l3.075 7.035-1.485 3.54zM34.57 260.135c1.635 0 2.97-.9 2.97-3.045v-7.815h-1.305v7.755c0 1.44-.675 2.04-1.74 2.04-.645 0-1.035-.135-1.425-.3v1.08c.285.15.69.285 1.5.285zm5.72-.135h1.245v-7.845H40.29V260zm.6-9.48c.45 0 .825-.375.825-.825 0-.45-.375-.825-.825-.825-.45 0-.825.375-.825.825 0 .45.375.825.825.825zm3.395 9.48h1.245v-4.8c0-1.41 1.05-2.1 2.07-2.1 1.08 0 1.665.57 1.665 1.95V260h1.245v-4.8c0-1.41 1.05-2.1 2.07-2.1 1.08 0 1.665.57 1.665 1.95V260h1.245v-4.86c0-2.28-1.23-3.12-2.64-3.12-.975 0-2.145.45-2.685 1.47-.405-1.05-1.29-1.47-2.295-1.47-1.125 0-1.98.6-2.34 1.335v-1.2h-1.245V260z" fill="#22262E"/>
    <path d="M333.85 259v-10.725h3.045c2.055 0 3.75.9 3.75 3.135v.06c0 2.28-1.71 3.165-3.75 3.165h-1.74V259h-1.305zm1.305-5.4h1.83c1.53 0 2.355-.75 2.355-2.13v-.06c0-1.515-.9-2.085-2.355-2.085h-1.83v4.275zm10.505 5.535c-2.22 0-3.795-1.56-3.795-3.975v-.12c0-2.37 1.515-4.02 3.675-4.02 1.815 0 3.525 1.095 3.525 3.9v.405h-5.91c.06 1.785.915 2.775 2.52 2.775 1.215 0 1.92-.45 2.085-1.365h1.245c-.27 1.575-1.575 2.4-3.345 2.4zm-2.46-4.815h4.59c-.12-1.62-.96-2.265-2.25-2.265-1.275 0-2.13.87-2.34 2.265zm7.97 4.68h1.245v-4.755c0-1.41 1.035-2.145 2.19-2.145 1.26 0 1.845.615 1.845 1.995V259h1.245v-4.815c0-2.28-1.14-3.165-2.76-3.165-1.29 0-2.16.645-2.52 1.38v-1.245h-1.245V259zm12.125.135c-2.055 0-3.54-1.455-3.54-3.9v-.12c0-2.4 1.5-4.095 3.66-4.095 1.305 0 2.115.63 2.565 1.395v-5.01h1.245V259h-1.245v-1.35c-.45.765-1.545 1.485-2.685 1.485zm.135-1.035c1.455 0 2.595-.96 2.595-2.97v-.12c0-2.01-.96-2.955-2.49-2.955-1.56 0-2.49 1.095-2.49 3v.12c0 1.98 1.065 2.925 2.385 2.925zm6.545.9h1.245v-7.845h-1.245V259zm.6-9.48c.45 0 .825-.375.825-.825 0-.45-.375-.825-.825-.825-.45 0-.825.375-.825.825 0 .45.375.825.825.825zm3.395 9.48h1.245v-4.755c0-1.41 1.035-2.145 2.19-2.145 1.26 0 1.845.615 1.845 1.995V259h1.245v-4.815c0-2.28-1.14-3.165-2.76-3.165-1.29 0-2.16.645-2.52 1.38v-1.245h-1.245V259zm12.305 2.865c-2.325 0-3.345-1.095-3.555-2.415h1.275c.18.9.93 1.365 2.265 1.365 1.545 0 2.52-.735 2.52-2.415v-1.14c-.45.765-1.515 1.485-2.655 1.485-2.055 0-3.57-1.56-3.57-3.72v-.105c0-2.13 1.5-3.9 3.66-3.9 1.305 0 2.115.63 2.565 1.395v-1.26h1.245v7.32c-.015 2.28-1.56 3.39-3.75 3.39zm-.015-4.155c1.455 0 2.565-1.02 2.565-2.775v-.105c0-1.755-.96-2.775-2.49-2.775-1.56 0-2.49 1.155-2.49 2.805v.12c0 1.71 1.095 2.73 2.415 2.73z" fill="#ED1C24"/>
    <path d="M183.315 260.135c2.13 0 3.705-1.365 3.705-3.165 0-2.025-1.26-2.745-3.645-3.12-2.19-.33-2.58-.87-2.58-1.92 0-1.005.765-1.74 2.235-1.74 1.485 0 2.265.555 2.52 1.905h1.17c-.21-1.905-1.545-2.955-3.69-2.955-2.025 0-3.45 1.26-3.45 2.91 0 1.905 1.335 2.61 3.585 2.955 2.04.33 2.595.84 2.595 2.055 0 1.215-1.065 2.025-2.445 2.025-2.16 0-2.67-1.08-2.835-2.355h-1.26c.195 1.83 1.23 3.405 4.095 3.405zm6.05-.135h1.245v-4.8c0-1.41 1.05-2.1 2.07-2.1 1.08 0 1.665.57 1.665 1.95V260h1.245v-4.8c0-1.41 1.05-2.1 2.07-2.1 1.08 0 1.665.57 1.665 1.95V260h1.245v-4.86c0-2.28-1.23-3.12-2.64-3.12-.975 0-2.145.45-2.685 1.47-.405-1.05-1.29-1.47-2.295-1.47-1.125 0-1.98.6-2.34 1.335v-1.2h-1.245V260zm13.88 0h1.245v-7.845h-1.245V260zm.6-9.48c.45 0 .825-.375.825-.825 0-.45-.375-.825-.825-.825-.45 0-.825.375-.825.825 0 .45.375.825.825.825zm5.78 9.585c.51 0 .81-.075 1.065-.165v-1.05c-.27.105-.57.165-.96.165-.63 0-.975-.375-.975-1.14v-4.71h1.83v-1.05h-1.83v-1.785h-1.245v1.785h-1.125v1.05h1.125v4.83c0 1.23.69 2.07 2.115 2.07zm3.14-.105h1.245v-4.755c0-1.41 1.035-2.145 2.19-2.145 1.26 0 1.845.615 1.845 1.995V260h1.245v-4.815c0-2.28-1.14-3.165-2.76-3.165-1.29 0-2.16.645-2.52 1.38v-4.995h-1.245V260z" fill="#22262E"/>
    <path fill="#E9EAEB" fill-rule="nonzero" d="M0 220h843v-1H0"/>
    <g stroke="#22262E">
      <path d="M380 181.5v8" stroke-linecap="square"/>
      <path d="M384.1213206 186.62131975l-4.12132036 4.12132035-4.12132034-4.12132034"/>
    </g>
    <path d="M745.67 116h5.655v-.923h-4.524v-3.367h3.458v-.923h-3.458v-3.159h4.29v-.923h-5.421V116zm7.48 0h1.079v-4.16c0-1.222.91-1.82 1.794-1.82.936 0 1.443.494 1.443 1.69V116h1.079v-4.16c0-1.222.91-1.82 1.794-1.82.936 0 1.443.494 1.443 1.69V116h1.079v-4.212c0-1.976-1.066-2.704-2.288-2.704-.845 0-1.859.39-2.327 1.274-.351-.91-1.118-1.274-1.989-1.274-.975 0-1.716.52-2.028 1.157v-1.04h-1.079V116zm12.03 2.366v-9.165h1.079v1.144c.39-.663 1.313-1.261 2.301-1.261 1.781 0 3.094 1.3 3.094 3.419v.104c0 2.08-1.222 3.51-3.094 3.51-1.118 0-1.911-.559-2.301-1.235v3.484h-1.079zm3.276-3.146c1.352 0 2.08-.91 2.08-2.561v-.104c0-1.716-.949-2.574-2.093-2.574-1.261 0-2.223.832-2.223 2.574v.104c0 1.742.91 2.561 2.236 2.561zm5.101.78h1.092v-10.049h-1.092V116zm6.336-.78c1.365 0 2.223-1.027 2.223-2.561v-.091c0-1.573-.871-2.587-2.223-2.587-1.365 0-2.223 1.014-2.223 2.574v.104c0 1.547.845 2.561 2.223 2.561zm-.013.897c-1.937 0-3.328-1.469-3.328-3.458v-.104c0-2.041 1.417-3.471 3.341-3.471 1.924 0 3.341 1.417 3.341 3.458v.104c0 2.054-1.417 3.471-3.354 3.471zm5.647 2.249h1.092l3.757-9.165h-1.105l-1.885 4.875-2.08-4.875h-1.157l2.665 6.097-1.287 3.068zm9.053-2.249c-1.924 0-3.289-1.352-3.289-3.445v-.104c0-2.054 1.313-3.484 3.185-3.484 1.573 0 3.055.949 3.055 3.38v.351h-5.122c.052 1.547.793 2.405 2.184 2.405 1.053 0 1.664-.39 1.807-1.183h1.079c-.234 1.365-1.365 2.08-2.899 2.08zm-2.132-4.173h3.978c-.104-1.404-.832-1.963-1.95-1.963-1.105 0-1.846.754-2.028 1.963zm9.716 4.173c-1.924 0-3.289-1.352-3.289-3.445v-.104c0-2.054 1.313-3.484 3.185-3.484 1.573 0 3.055.949 3.055 3.38v.351h-5.122c.052 1.547.793 2.405 2.184 2.405 1.053 0 1.664-.39 1.807-1.183h1.079c-.234 1.365-1.365 2.08-2.899 2.08zm-2.132-4.173h3.978c-.104-1.404-.832-1.963-1.95-1.963-1.105 0-1.846.754-2.028 1.963z" fill="#6F7680"/>
    <g stroke="#6F7680" stroke-linecap="square">
      <path d="M732 107.17307692v8.65384616M736.32692308 111.5h-8.65384616"/>
    </g>
    <ellipse fill="#ED1C24" cx="403.5" cy="254" rx="3" ry="3"/>
    <path fill="#E9EAEB" fill-rule="nonzero" d="M221.5 103v15h1v-15M129.5 103v15h1v-15"/>
  </g>
</svg>
