<?xml version="1.0" encoding="UTF-8" standalone="no"?>
<svg width="86px" height="81px" viewBox="0 0 86 81" version="1.1" xmlns="http://www.w3.org/2000/svg" xmlns:xlink="http://www.w3.org/1999/xlink">
    <!-- Generator: Sketch 40.1 (33804) - http://www.bohemiancoding.com/sketch -->
    <title>intensive_research</title>
    <desc>Created with Sketch.</desc>
    <defs>
        <polygon id="path-1" points="0 80.9830424 60.0483551 81 60.0220337 0.0217252927 14.710022 0 0 15.0078444"></polygon>
        <mask id="mask-2" maskContentUnits="userSpaceOnUse" maskUnits="objectBoundingBox" x="0" y="0" width="60.0483551" height="81" fill="white">
            <use xlink:href="#path-1"></use>
        </mask>
    </defs>
    <g id="Marketing-Site" stroke="none" stroke-width="1" fill="none" fill-rule="evenodd">
        <g id="Products---Formation" transform="translate(-735.000000, -3001.000000)">
            <g id="intensive_research" transform="translate(735.000000, 3001.000000)">
                <g id="Group-4">
                    <use id="Stroke-1" stroke="#22262E" mask="url(#mask-2)" stroke-width="2" xlink:href="#path-1"></use>
                    <path d="M0.5,15.5 L15.5332964,15.5" id="Line" stroke="#22262E" stroke-linecap="square"></path>
                    <path d="M15.5,15.5 L15.5,0.5" id="Line" stroke="#22262E" stroke-linecap="square"></path>
                    <path d="M12.5,28.5 L45.515148,28.5" id="Line" stroke="#008FD5" stroke-linecap="square"></path>
                    <path d="M12.5,40.5 L42.5,40.5" id="Line" stroke="#008FD5" stroke-linecap="square"></path>
                    <path d="M12.5,53.5 L47.5,53.5" id="Line" stroke="#008FD5" stroke-linecap="square"></path>
                    <path d="M12.5,65.5 L36.5208243,65.5" id="Line" stroke="#008FD5" stroke-linecap="square"></path>
                </g>
                <g id="Group-5" transform="translate(42.000000, 21.000000)">
                    <path d="M31.0336875,5.32490625 C38.1335625,12.4247812 38.1335625,23.9346562 31.0336875,31.0345312 C23.9338125,38.1332812 12.4239375,38.1332812 5.3240625,31.0345312 C-1.7746875,23.9346562 -1.7746875,12.4247812 5.3240625,5.32490625 C12.4239375,-1.77496875 23.9338125,-1.77496875 31.0336875,5.32490625 L31.0336875,5.32490625 Z" id="Stroke-10" stroke="#FFFFFF"></path>
                    <path d="M31.0336875,5.32490625 C38.1335625,12.4247812 38.1335625,23.9346562 31.0336875,31.0345312 C23.9338125,38.1332812 12.4239375,38.1332812 5.3240625,31.0345312 C-1.7746875,23.9346562 -1.7746875,12.4247812 5.3240625,5.32490625 C12.4239375,-1.77496875 23.9338125,-1.77496875 31.0336875,5.32490625" id="Fill-12" fill="#FFFFFF"></path>
                    <path d="M31.0336875,31.0345312 C23.9338125,38.1332812 12.4239375,38.1332812 5.3240625,31.0345312 C-1.7746875,23.9346562 -1.7746875,12.4247812 5.3240625,5.32490625 C12.4239375,-1.77496875 23.9338125,-1.77496875 31.0336875,5.32490625 C38.1335625,12.4247812 38.1335625,23.9346562 31.0336875,31.0345312 Z" id="Stroke-14" stroke="#22262E"></path>
                    <path d="M32,31 L43.4300554,42.2971795" id="Stroke-16" stroke="#22262E"></path>
                    <polyline id="Path-7" stroke="#008FD5" points="17 6 17.0743408 18.4758698 24.0461426 22.5301514"></polyline>
                </g>
            </g>
        </g>
    </g>
</svg>