<?xml version="1.0" encoding="UTF-8" standalone="no"?>
<svg width="275px" height="351px" viewBox="0 0 275 351" version="1.1" xmlns="http://www.w3.org/2000/svg" xmlns:xlink="http://www.w3.org/1999/xlink">
    <!-- Generator: Sketch 40.3 (33839) - http://www.bohemiancoding.com/sketch -->
    <title>legal_concept_book</title>
    <desc>Created with Sketch.</desc>
    <defs>
        <rect id="path-1" x="0" y="0" width="275" height="351"></rect>
        <mask id="mask-2" maskContentUnits="userSpaceOnUse" maskUnits="objectBoundingBox" x="0" y="0" width="275" height="351" fill="white">
            <use xlink:href="#path-1"></use>
        </mask>
    </defs>
    <g id="Marketing-Site" stroke="none" stroke-width="1" fill="none" fill-rule="evenodd">
        <g id="Homepage-with-handbook-4" transform="translate(-185.000000, -3225.000000)">
            <g id="legal_concept_book" transform="translate(185.000000, 3225.000000)">
                <use id="Rectangle-6" stroke="#22262E" mask="url(#mask-2)" stroke-width="2" fill="#FFFFFF" xlink:href="#path-1"></use>
                <path d="M37.008,131 L51.12,131 L51.12,126.044 L50.476,126.044 C48.768,126.044 50.616,129.74 45.968,129.74 L41.432,129.74 L41.432,113.836 C41.432,111.512 42.972,113.052 42.972,111.82 L42.972,111.316 L37.036,111.316 L37.036,111.82 C37.036,113.052 38.548,111.512 38.548,113.836 L38.548,128.48 C38.548,130.804 37.008,129.264 37.008,130.496 L37.008,131 Z M65.7747693,123.86 C65.8867693,120.22 63.7587693,117.196 59.9227693,117.196 C55.8907693,117.196 53.2027693,120.22 53.2027693,124.168 C53.2027693,128.34 56.2267693,131.42 60.3987693,131.42 C62.8347693,131.42 64.5987693,130.412 66.0267693,128.48 L65.0747693,127.752 C63.9827693,129.068 62.7227693,130.076 60.9587693,130.076 C57.5427693,130.076 55.9187693,126.912 56.0867693,123.86 L65.7747693,123.86 Z M56.1707693,122.516 C56.3387693,120.416 57.4027693,118.372 59.7547693,118.372 C62.1347693,118.372 62.9467693,120.472 62.8067693,122.516 L56.1707693,122.516 Z M71.3575385,122.18 C71.3575385,120.304 72.0855385,118.092 74.3535385,118.092 C76.4535385,118.092 77.2095385,120.164 77.2095385,121.956 C77.2095385,123.72 76.4815385,126.072 74.3255385,126.072 C72.1695385,126.072 71.3575385,124.056 71.3575385,122.18 L71.3575385,122.18 Z M72.0295385,126.604 C72.7575385,126.912 73.5695385,126.968 74.3535385,126.968 C77.3495385,126.968 80.0375385,125.008 80.0375385,121.9 C80.0375385,119.912 78.4975385,119.016 78.4975385,118.4 C78.4975385,118.204 78.6095385,117.952 78.8335385,117.952 C79.0855385,117.952 79.1415385,118.596 80.0655385,118.596 C80.7655385,118.596 81.2975385,118.12 81.2975385,117.448 C81.2975385,116.552 80.5135385,116.076 79.7015385,116.076 C78.5255385,116.076 77.7415385,116.944 77.5455385,118.036 C76.5375385,117.532 75.5575385,117.196 74.4095385,117.196 C71.4135385,117.196 68.5295385,119.072 68.5295385,122.236 C68.5295385,123.888 69.4535385,125.26 70.8815385,126.1 L68.4455385,131.112 C68.3895385,131.224 68.3895385,131.42 68.6135385,131.42 C68.9215385,131.42 70.9935385,130.832 73.3455385,130.832 C74.9135385,130.832 78.3575385,131.112 78.3575385,133.296 C78.3575385,135.144 75.6695385,135.76 74.2135385,135.76 C73.5415385,135.76 71.0775385,135.732 71.0775385,134.724 C71.0775385,134.472 71.2455385,134.164 71.2455385,133.828 C71.2455385,133.044 70.4055385,132.596 69.7335385,132.596 C68.8095385,132.596 68.0815385,133.184 68.0815385,134.108 C68.0815385,136.432 72.3935385,136.936 74.0175385,136.936 C76.7615385,136.936 80.7655385,135.844 80.7655385,132.484 C80.7655385,131.196 79.7015385,128.536 74.2135385,128.536 C73.0935385,128.536 71.9735385,128.732 70.8815385,128.956 L72.0295385,126.604 Z M91.5283078,126.268 C91.5283078,129.404 89.3723078,130.076 88.3643078,130.076 C86.8803078,130.076 86.0683078,128.984 86.0683078,127.556 C86.0683078,124.728 89.2603078,123.776 91.5283078,123.58 L91.5283078,126.268 Z M91.4443078,122.544 C88.6443078,122.824 83.1003078,123.72 83.1003078,127.5 C83.1003078,130.048 85.4523078,131.42 87.7763078,131.42 C89.5683078,131.42 90.6043078,130.748 91.8083078,129.46 C92.2283078,130.636 93.0963078,131.42 94.3843078,131.42 C95.3643078,131.42 96.5403078,130.692 96.5403078,130.132 C96.5403078,129.964 96.4003078,129.824 96.3163078,129.712 L96.2043078,129.544 C95.9803078,129.74 95.7843078,129.908 95.4483078,129.908 C94.1323078,129.908 94.2163078,127.752 94.2163078,126.884 L94.2163078,122.516 C94.2163078,121.732 94.1883078,117.196 88.6443078,117.196 C87.3563078,117.196 84.4163078,117.84 84.4163078,119.576 C84.4163078,120.416 85.0883078,120.948 85.8723078,120.948 C86.7683078,120.948 87.4123078,120.332 87.4963078,119.436 C87.5803078,118.68 87.8043078,118.232 88.6723078,118.232 C91.0803078,118.232 91.4443078,120.752 91.4443078,122.544 L91.4443078,122.544 Z M102.375077,111.204 L98.2030771,111.316 L98.2030771,111.82 C98.2030771,113.08 99.6870771,111.708 99.6870771,113.696 L99.6870771,128.62 C99.6870771,130.608 98.2030771,129.236 98.2030771,130.496 L98.2030771,131 L103.803077,131 L103.803077,130.496 C103.803077,129.264 102.375077,130.58 102.375077,128.62 L102.375077,111.204 Z M129.024616,111.904 L127.932616,111.904 C127.876616,112.128 127.736616,112.324 127.484616,112.324 C126.784616,112.324 125.552616,110.812 122.696616,110.812 C117.040616,110.812 114.268616,116.608 114.268616,121.144 C114.268616,126.352 117.292616,131.504 123.004616,131.504 C126.112616,131.504 127.960616,130.16 129.668616,127.696 L128.716616,126.94 C127.456616,128.396 126.224616,130.076 123.508616,130.076 C118.748616,130.076 117.376616,124.812 117.376616,121.088 C117.376616,117.56 118.300616,111.988 122.864616,111.988 C127.680616,111.988 126.616616,117.056 128.324616,117.056 L129.024616,117.056 L129.024616,111.904 Z M139.451385,117.196 C135.391385,117.196 132.507385,120.472 132.507385,124.42 C132.507385,128.48 135.643385,131.42 139.619385,131.42 C143.679385,131.42 146.563385,128.144 146.563385,124.196 C146.563385,120.136 143.427385,117.196 139.451385,117.196 L139.451385,117.196 Z M139.479385,118.232 C142.839385,118.232 143.455385,121.816 143.455385,124.448 C143.455385,126.912 142.755385,130.384 139.591385,130.384 C136.287385,130.384 135.615385,126.8 135.615385,124.168 C135.615385,121.704 136.371385,118.232 139.479385,118.232 L139.479385,118.232 Z M149.122154,118.176 C149.122154,119.296 150.494154,118.092 150.494154,119.996 L150.494154,128.62 C150.494154,130.524 149.122154,129.292 149.122154,130.496 L149.122154,131 L154.694154,131 L154.694154,130.496 C154.694154,129.236 153.182154,130.608 153.182154,128.62 L153.182154,120.192 C153.770154,119.24 155.254154,118.54 156.318154,118.54 C158.894154,118.54 159.118154,119.996 159.118154,121.76 L159.118154,128.62 C159.118154,130.608 157.606154,129.236 157.606154,130.496 L157.606154,131 L163.290154,131 L163.290154,130.496 C163.290154,129.236 161.806154,130.608 161.806154,128.62 L161.806154,120.976 C161.806154,118.624 160.406154,117.196 157.354154,117.196 C155.618154,117.196 154.302154,117.728 153.014154,118.904 L153.014154,117.504 L149.122154,117.616 L149.122154,118.176 Z M177.412923,128.564 C176.432923,129.488 175.312923,130.076 173.912923,130.076 C170.496923,130.076 168.956923,126.884 168.956923,123.888 C168.956923,121.424 170.048923,118.232 172.960923,118.232 C173.660923,118.232 174.780923,118.484 174.780923,119.352 C174.780923,119.688 174.640923,119.94 174.640923,120.304 C174.640923,121.116 175.452923,121.564 176.152923,121.564 C177.048923,121.564 177.776923,120.92 177.776923,120.024 C177.776923,117.784 174.836923,117.196 173.100923,117.196 C169.180923,117.196 165.848923,120.164 165.848923,124.168 C165.848923,128.508 169.096923,131.42 173.352923,131.42 C175.312923,131.42 176.936923,130.804 178.280923,129.348 L177.412923,128.564 Z M193.411693,123.86 C193.523693,120.22 191.395693,117.196 187.559693,117.196 C183.527693,117.196 180.839693,120.22 180.839693,124.168 C180.839693,128.34 183.863693,131.42 188.035693,131.42 C190.471693,131.42 192.235693,130.412 193.663693,128.48 L192.711693,127.752 C191.619693,129.068 190.359693,130.076 188.595693,130.076 C185.179693,130.076 183.555693,126.912 183.723693,123.86 L193.411693,123.86 Z M183.807693,122.516 C183.975693,120.416 185.039693,118.372 187.391693,118.372 C189.771693,118.372 190.583693,120.472 190.443693,122.516 L183.807693,122.516 Z M200.058462,119.576 C200.842462,118.876 201.990462,118.456 203.026462,118.456 C206.274462,118.456 207.282462,121.34 207.282462,124.14 C207.282462,126.912 206.414462,130.16 203.026462,130.16 C201.990462,130.16 200.842462,129.74 200.058462,129.04 L200.058462,119.576 Z M200.058462,130.3 C201.178462,131 202.298462,131.336 203.810462,131.42 C207.954462,131.42 210.390462,128.116 210.390462,124.224 C210.390462,120.332 207.954462,117.196 204.006462,117.196 C202.242462,117.196 201.066462,117.868 199.918462,118.82 L199.918462,117.504 L195.998462,117.616 L195.998462,118.176 C195.998462,118.708 196.334462,118.708 196.698462,118.792 C197.034462,118.876 197.370462,119.044 197.370462,119.996 L197.370462,134.332 C197.370462,136.32 195.858462,134.92 195.858462,136.208 L195.858462,136.712 L201.710462,136.712 L201.710462,136.208 C201.710462,134.864 200.058462,136.404 200.058462,134.332 L200.058462,130.3 Z M212.529231,119.128 L214.489231,119.128 L214.489231,128.116 C214.489231,129.516 215.077231,131.42 217.849231,131.42 C218.969231,131.42 220.425231,130.972 221.265231,130.272 L220.733231,129.404 L220.537231,129.516 C219.977231,129.824 219.669231,129.908 219.025231,129.908 C217.457231,129.908 217.177231,128.76 217.177231,127.444 L217.177231,119.128 L220.481231,119.128 L220.481231,117.616 L217.177231,117.616 L217.177231,113.556 L215.385231,113.668 C214.769231,113.696 214.489231,113.78 214.489231,114.508 L214.489231,116.356 C214.489231,118.372 212.529231,117.28 212.529231,118.484 L212.529231,119.128 Z M228.556,131.42 C231.188,131.42 234.324,129.992 234.324,126.996 C234.324,122.18 226.54,123.636 226.54,120.332 C226.54,119.072 227.996,118.372 229.088,118.372 C229.564,118.372 230.544,118.456 230.544,119.1 C230.544,119.296 230.488,119.492 230.488,119.688 C230.488,120.528 231.356,120.92 232.056,120.92 C232.868,120.92 233.652,120.444 233.652,119.548 C233.652,117.672 230.936,117.196 229.536,117.196 C227.156,117.196 223.992,118.512 223.992,121.284 C223.992,126.016 231.636,124.448 231.636,127.976 C231.636,129.572 229.872,130.244 228.472,130.244 C227.8,130.244 226.512,130.188 226.512,129.236 C226.512,129.012 226.652,128.732 226.652,128.508 C226.652,127.696 225.7,127.248 225,127.248 C224.132,127.248 223.348,127.836 223.348,128.732 C223.348,130.832 227.044,131.42 228.556,131.42 L228.556,131.42 Z M38.464,156.128 L38.464,165.62 C38.464,167.608 36.98,166.236 36.98,167.496 L36.98,168 L42.888,168 L42.888,167.496 C42.888,166.096 41.152,167.72 41.152,165.48 L41.152,156.128 L43.42,156.128 L43.42,154.616 L41.152,154.616 C41.208,153.552 41.04,152.656 40.928,150.22 C40.928,149.996 41.012,149.604 41.292,149.604 C41.516,149.604 41.628,149.828 41.796,150.08 C41.992,150.304 42.244,150.556 42.776,150.556 C43.448,150.556 44.064,150.108 44.064,149.324 C44.064,148.372 43.084,147.896 42.3,147.896 C39.276,147.896 38.744,150.92 38.576,153.244 C38.492,154.392 38.632,154.644 37.512,154.98 C37.148,155.092 36.98,155.148 36.98,155.624 L36.98,156.128 L38.464,156.128 Z M52.8667693,154.196 C48.8067693,154.196 45.9227693,157.472 45.9227693,161.42 C45.9227693,165.48 49.0587693,168.42 53.0347693,168.42 C57.0947693,168.42 59.9787693,165.144 59.9787693,161.196 C59.9787693,157.136 56.8427693,154.196 52.8667693,154.196 L52.8667693,154.196 Z M52.8947693,155.232 C56.2547693,155.232 56.8707693,158.816 56.8707693,161.448 C56.8707693,163.912 56.1707693,167.384 53.0067693,167.384 C49.7027693,167.384 49.0307693,163.8 49.0307693,161.168 C49.0307693,158.704 49.7867693,155.232 52.8947693,155.232 L52.8947693,155.232 Z M66.9055385,154.504 L62.5935385,154.616 L62.5935385,155.12 C62.5935385,156.52 64.2175385,154.868 64.2175385,156.996 L64.2175385,165.62 C64.2175385,167.748 62.5935385,166.096 62.5935385,167.496 L62.5935385,168 L68.5855385,168 L68.5855385,167.496 C68.5855385,166.068 66.8775385,167.804 66.8775385,165.62 L66.8775385,163.016 C66.8775385,161.14 68.0535385,156.828 69.5095385,156.828 C69.8455385,156.828 70.2655385,157.22 70.9935385,157.22 C71.8335385,157.22 72.6175385,156.66 72.6175385,155.792 C72.6175385,154.756 71.7775385,154.196 70.7975385,154.196 C68.6975385,154.196 67.3815385,156.996 66.9615385,158.732 L66.9055385,158.732 L66.9055385,154.504 Z M86.8350771,149.576 L90.9510771,149.576 C94.9550771,149.576 93.2190771,152.88 95.0670771,152.88 L95.7670771,152.88 L95.7670771,147.896 C95.2350771,148.204 94.4790771,148.316 93.8910771,148.316 L82.4110771,148.316 L82.4110771,148.82 C82.4110771,150.052 83.9510771,148.512 83.9510771,150.836 L83.9510771,165.48 C83.9510771,167.804 82.4110771,166.264 82.4110771,167.496 L82.4110771,168 L88.3750771,168 L88.3750771,167.496 C88.3750771,166.264 86.8350771,167.804 86.8350771,165.48 L86.8350771,158.368 L89.1590771,158.368 C91.9590771,158.368 90.3910771,160.356 92.0710771,160.356 L92.6870771,160.356 L92.6870771,155.176 L92.2110771,155.176 C90.4190771,155.176 92.0430771,157.108 89.1590771,157.108 L86.8350771,157.108 L86.8350771,149.576 Z M104.429846,154.196 C100.369846,154.196 97.4858463,157.472 97.4858463,161.42 C97.4858463,165.48 100.621846,168.42 104.597846,168.42 C108.657846,168.42 111.541846,165.144 111.541846,161.196 C111.541846,157.136 108.405846,154.196 104.429846,154.196 L104.429846,154.196 Z M104.457846,155.232 C107.817846,155.232 108.433846,158.816 108.433846,161.448 C108.433846,163.912 107.733846,167.384 104.569846,167.384 C101.265846,167.384 100.593846,163.8 100.593846,161.168 C100.593846,158.704 101.349846,155.232 104.457846,155.232 L104.457846,155.232 Z M124.236616,165.452 C123.256616,166.236 122.416616,166.908 121.072616,166.908 C118.188616,166.908 118.132616,164.976 118.132616,163.996 L118.132616,154.504 L113.988616,154.616 L113.988616,155.12 C113.988616,156.38 115.444616,155.036 115.444616,156.996 L115.444616,164.052 C115.444616,166.768 117.124616,168.42 119.952616,168.42 C121.464616,168.42 123.200616,167.748 124.292616,166.768 L124.292616,168 L128.380616,168 L128.380616,167.44 C128.380616,166.32 126.924616,167.524 126.924616,165.62 L126.924616,154.504 L122.724616,154.616 L122.724616,155.12 C122.724616,156.38 124.236616,155.008 124.236616,156.996 L124.236616,165.452 Z M130.771385,155.176 C130.771385,156.296 132.143385,155.092 132.143385,156.996 L132.143385,165.62 C132.143385,167.524 130.771385,166.292 130.771385,167.496 L130.771385,168 L136.343385,168 L136.343385,167.496 C136.343385,166.236 134.831385,167.608 134.831385,165.62 L134.831385,157.192 C135.419385,156.24 136.903385,155.54 137.967385,155.54 C140.543385,155.54 140.767385,156.996 140.767385,158.76 L140.767385,165.62 C140.767385,167.608 139.255385,166.236 139.255385,167.496 L139.255385,168 L144.939385,168 L144.939385,167.496 C144.939385,166.236 143.455385,167.608 143.455385,165.62 L143.455385,157.976 C143.455385,155.624 142.055385,154.196 139.003385,154.196 C137.267385,154.196 135.951385,154.728 134.663385,155.904 L134.663385,154.504 L130.771385,154.616 L130.771385,155.176 Z M157.886154,166.04 C157.102154,166.74 155.954154,167.16 154.918154,167.16 C151.670154,167.16 150.662154,164.276 150.662154,161.476 C150.662154,158.704 151.530154,155.456 154.918154,155.456 C155.954154,155.456 157.102154,155.876 157.886154,156.576 L157.886154,166.04 Z M157.886154,155.316 C156.710154,154.7 155.478154,154.196 154.134154,154.196 C149.990154,154.196 147.554154,157.5 147.554154,161.392 C147.554154,165.284 149.990154,168.42 153.938154,168.42 C155.366154,168.42 156.850154,167.916 157.970154,166.88 L157.970154,168 L161.890154,168 L161.890154,167.496 C161.890154,166.32 160.574154,167.496 160.574154,165.62 L160.574154,148.204 L156.430154,148.316 L156.430154,148.82 C156.430154,150.08 157.886154,148.736 157.886154,150.696 L157.886154,155.316 Z M177.300923,160.86 C177.412923,157.22 175.284923,154.196 171.448923,154.196 C167.416923,154.196 164.728923,157.22 164.728923,161.168 C164.728923,165.34 167.752923,168.42 171.924923,168.42 C174.360923,168.42 176.124923,167.412 177.552923,165.48 L176.600923,164.752 C175.508923,166.068 174.248923,167.076 172.484923,167.076 C169.068923,167.076 167.444923,163.912 167.612923,160.86 L177.300923,160.86 Z M167.696923,159.516 C167.864923,157.416 168.928923,155.372 171.280923,155.372 C173.660923,155.372 174.472923,157.472 174.332923,159.516 L167.696923,159.516 Z M184.031693,154.504 L179.719693,154.616 L179.719693,155.12 C179.719693,156.52 181.343693,154.868 181.343693,156.996 L181.343693,165.62 C181.343693,167.748 179.719693,166.096 179.719693,167.496 L179.719693,168 L185.711693,168 L185.711693,167.496 C185.711693,166.068 184.003693,167.804 184.003693,165.62 L184.003693,163.016 C184.003693,161.14 185.179693,156.828 186.635693,156.828 C186.971693,156.828 187.391693,157.22 188.119693,157.22 C188.959693,157.22 189.743693,156.66 189.743693,155.792 C189.743693,154.756 188.903693,154.196 187.923693,154.196 C185.823693,154.196 184.507693,156.996 184.087693,158.732 L184.031693,158.732 L184.031693,154.504 Z M196.894462,168.42 C199.526462,168.42 202.662462,166.992 202.662462,163.996 C202.662462,159.18 194.878462,160.636 194.878462,157.332 C194.878462,156.072 196.334462,155.372 197.426462,155.372 C197.902462,155.372 198.882462,155.456 198.882462,156.1 C198.882462,156.296 198.826462,156.492 198.826462,156.688 C198.826462,157.528 199.694462,157.92 200.394462,157.92 C201.206462,157.92 201.990462,157.444 201.990462,156.548 C201.990462,154.672 199.274462,154.196 197.874462,154.196 C195.494462,154.196 192.330462,155.512 192.330462,158.284 C192.330462,163.016 199.974462,161.448 199.974462,164.976 C199.974462,166.572 198.210462,167.244 196.810462,167.244 C196.138462,167.244 194.850462,167.188 194.850462,166.236 C194.850462,166.012 194.990462,165.732 194.990462,165.508 C194.990462,164.696 194.038462,164.248 193.338462,164.248 C192.470462,164.248 191.686462,164.836 191.686462,165.732 C191.686462,167.832 195.382462,168.42 196.894462,168.42 L196.894462,168.42 Z" id="Legal-Concepts-for-F" fill="#22262E"></path>
                <path d="M36.5,89.5 L68.8109888,89.5" id="Line" stroke="#008FD5" stroke-linecap="square"></path>
                <path d="M37.4607886,314.5 L241.502488,314.5" id="Line-Copy-51" stroke="#C6C9CC" stroke-linecap="square"></path>
                <path d="M45.2222222,40.7777778 C44.8888889,41.6666667 44.0555556,42.3333333 43,42.3333333 C41.7222222,42.3333333 40.6666667,41.2777778 40.6666667,40 C40.6666667,38.7222222 41.7222222,37.6666667 43,37.6666667 C44,37.6666667 44.8888889,38.3333333 45.2222222,39.2222222 L50,39.2222222 C49.6111111,35.7222222 46.6666667,33 43,33 C39.1666667,33.1111111 36,36.2222222 36,40.0555556 C36,43.8888889 39.1666667,47 43,47 C46.6111111,47 49.6111111,44.2777778 50,40.7777778 L45.2222222,40.7777778 L45.2222222,40.7777778 Z" id="XMLID_8_" fill="#22262E"></path>
            </g>
        </g>
    </g>
</svg>