<?xml version="1.0" encoding="UTF-8" standalone="no"?>
<svg width="99px" height="54px" viewBox="0 0 99 54" version="1.1" xmlns="http://www.w3.org/2000/svg" xmlns:xlink="http://www.w3.org/1999/xlink">
    <!-- Generator: Sketch 40.1 (33804) - http://www.bohemiancoding.com/sketch -->
    <title>male_female_attorneys</title>
    <desc>Created with Sketch.</desc>
    <defs></defs>
    <g id="Marketing-Site" stroke="none" stroke-width="1" fill="none" fill-rule="evenodd">
        <g id="Compatible-with-Attorney" transform="translate(-126.000000, -185.000000)">
            <g id="male_female_attorneys" transform="translate(127.000000, 185.000000)">
                <polygon id="Stroke-2" stroke="#008FD5" stroke-linecap="square" points="20.0367976 48.9422169 24.2806771 53.1860964 28.523906 48.9422169 24.2806771 36.2112289"></polygon>
                <path d="M38.5421422,15.2556506 C38.5421422,7.36904819 32.1486723,0.975578313 24.2627205,0.975578313 C16.3761181,0.975578313 9.98264819,7.36904819 9.98264819,15.2556506 C9.98264819,23.142253 16.3761181,29.5350723 24.2627205,29.5350723 C32.1486723,29.5350723 38.5421422,23.142253 38.5421422,15.2556506 L38.5421422,15.2556506 Z" id="Stroke-4" stroke="#22262E"></path>
                <path d="M48.1996193,53.4725566 C48.1996193,40.2523157 37.4828964,29.5355928 24.2626554,29.5355928 C11.0424145,29.5355928 0.325040964,40.2523157 0.325040964,53.4725566" id="Stroke-6" stroke="#22262E" stroke-linecap="square"></path>
                <polyline id="Stroke-14" stroke="#22262E" points="19.3230867 30.181641 24.2884843 35.1470386 29.2538819 30.181641"></polyline>
                <path d="M8.6980988,53.4725566 L8.6980988,48.0764602" id="Stroke-28" stroke="#22262E" stroke-linecap="square"></path>
                <path d="M39.5835614,53.4725566 L39.5835614,48.0764602" id="Stroke-30" stroke="#22262E" stroke-linecap="square"></path>
                <g id="Group-24" transform="translate(49.000000, 0.000000)">
                    <polygon id="Stroke-1" stroke="#22262E" stroke-linecap="square" points="9.77477108 29.5355928 38.3342651 29.5355928 38.3342651 15.2555205 9.77477108 15.2555205"></polygon>
                    <path d="M38.3345904,15.2555855 C38.3345904,7.36963373 31.9411205,0.976163855 24.0551687,0.976163855 C16.1685663,0.976163855 9.77509639,7.36963373 9.77509639,15.2555855 C9.77509639,23.142188 16.1685663,29.5356578 24.0551687,29.5356578 C31.9411205,29.5356578 38.3345904,23.142188 38.3345904,15.2555855" id="Fill-8" fill="#FFFFFF"></path>
                    <path d="M38.3345904,15.2555855 C38.3345904,7.36963373 31.9411205,0.976163855 24.0551687,0.976163855 C16.1685663,0.976163855 9.77509639,7.36963373 9.77509639,15.2555855 C9.77509639,23.142188 16.1685663,29.5356578 24.0551687,29.5356578 C31.9411205,29.5356578 38.3345904,23.142188 38.3345904,15.2555855 L38.3345904,15.2555855 Z" id="Stroke-10" stroke="#22262E"></path>
                    <path d="M47.9920675,53.4725566 C47.9920675,40.2523157 37.2753446,29.5355928 24.0551036,29.5355928 C10.8348627,29.5355928 0.117489157,40.2523157 0.117489157,53.4725566" id="Stroke-12" stroke="#22262E" stroke-linecap="square"></path>
                    <path d="M29.9779277,2.14217349 C28.665012,3.8974988 25.9546024,7.03990843 21.4472289,9.36060723 C16.7798072,11.7632819 12.4981928,12.0957398 10.292,12.116559" id="Stroke-16" stroke="#22262E"></path>
                    <path d="M37.4586843,10.8697446 C36.551094,11.0356482 33.6487566,11.4474795 30.6338651,9.81967229 C28.4660578,8.64923855 27.279359,6.98434699 26.7627807,6.14506988" id="Stroke-18" stroke="#22262E"></path>
                    <path d="M18.9789084,29.5353325 C18.9789084,32.3387783 21.2514627,34.6113325 24.0549084,34.6113325 C26.8583542,34.6113325 29.1309084,32.3387783 29.1309084,29.5353325" id="Stroke-20" stroke="#22262E"></path>
                    <path d="M25.4017205,39.8885639 C25.4017205,40.6322024 24.798612,41.2353108 24.0549735,41.2353108 C23.3113349,41.2353108 22.7082265,40.6322024 22.7082265,39.8885639 C22.7082265,39.1449253 23.3113349,38.5418169 24.0549735,38.5418169 C24.798612,38.5418169 25.4017205,39.1449253 25.4017205,39.8885639 L25.4017205,39.8885639 Z" id="Stroke-22" stroke="#008FD5" stroke-linecap="square"></path>
                    <path d="M25.4017205,45.6066434 C25.4017205,46.3502819 24.798612,46.9533904 24.0549735,46.9533904 C23.3113349,46.9533904 22.7082265,46.3502819 22.7082265,45.6066434 C22.7082265,44.8630048 23.3113349,44.2598964 24.0549735,44.2598964 C24.798612,44.2598964 25.4017205,44.8630048 25.4017205,45.6066434 L25.4017205,45.6066434 Z" id="Stroke-24" stroke="#008FD5" stroke-linecap="square"></path>
                    <path d="M25.4017205,51.3246578 C25.4017205,52.0682964 24.798612,52.6714048 24.0549735,52.6714048 C23.3113349,52.6714048 22.7082265,52.0682964 22.7082265,51.3246578 C22.7082265,50.5810193 23.3113349,49.9779108 24.0549735,49.9779108 C24.798612,49.9779108 25.4017205,50.5810193 25.4017205,51.3246578 L25.4017205,51.3246578 Z" id="Stroke-26" stroke="#008FD5" stroke-linecap="square"></path>
                    <path d="M8.43244819,53.4725566 L8.43244819,48.0764602" id="Stroke-32" stroke="#22262E" stroke-linecap="square"></path>
                    <path d="M39.6679349,53.4725566 L39.6679349,48.0764602" id="Stroke-34" stroke="#22262E" stroke-linecap="square"></path>
                </g>
            </g>
        </g>
    </g>
</svg>