<?xml version="1.0" encoding="UTF-8" standalone="no"?>
<svg width="67px" height="82px" viewBox="0 0 67 82" version="1.1" xmlns="http://www.w3.org/2000/svg" xmlns:xlink="http://www.w3.org/1999/xlink">
    <!-- Generator: Sketch 40.1 (33804) - http://www.bohemiancoding.com/sketch -->
    <title>observe</title>
    <desc>Created with Sketch.</desc>
    <defs>
        <polygon id="path-1" points="9 9 66.0594289 9.01580811 66.0594289 81.0158081 9 81"></polygon>
        <mask id="mask-2" maskContentUnits="userSpaceOnUse" maskUnits="objectBoundingBox" x="0" y="0" width="57.0594289" height="72.0158081" fill="white">
            <use xlink:href="#path-1"></use>
        </mask>
        <polygon id="path-3" points="14.9199952 0.00628662109 57.0013428 0 57.0013428 72 0 72.0062866 0 15.0253296"></polygon>
        <mask id="mask-4" maskContentUnits="userSpaceOnUse" maskUnits="objectBoundingBox" x="0" y="0" width="57.0013428" height="72.0062866" fill="white">
            <use xlink:href="#path-3"></use>
        </mask>
    </defs>
    <g id="Marketing-Site" stroke="none" stroke-width="1" fill="none" fill-rule="evenodd">
        <g id="Compatible-with-Attorney" transform="translate(-127.000000, -1760.000000)">
            <g id="observe" transform="translate(127.000000, 1760.000000)">
                <g id="Group-12">
                    <g id="Group-6" stroke="#22262E">
                        <use id="Rectangle-30-Copy-6" mask="url(#mask-2)" stroke-width="2" xlink:href="#path-1"></use>
                        <use id="Rectangle-30-Copy-7" mask="url(#mask-4)" stroke-width="2" fill="#FFFFFF" xlink:href="#path-3"></use>
                        <path d="M1.5,15.5 L15.5,15.5" id="Line" stroke-linecap="square"></path>
                        <path d="M15.5,1.5 L15.5,14.5" id="Line" stroke-linecap="square"></path>
                    </g>
                    <path d="M46.2956982,39 C42.4329354,45.0204185 35.7477167,49 28.1478491,49 C20.5479815,49 13.8627628,45.0204185 10,39 C13.8627628,32.9795815 20.5479815,29 28.1478491,29 C35.7477167,29 42.4329354,32.9795815 46.2956982,39 Z" id="Combined-Shape-Copy" stroke="#008FD5"></path>
                    <ellipse id="Oval-21-Copy" stroke="#008FD5" cx="27.9361702" cy="39" rx="3.93617021" ry="4"></ellipse>
                </g>
            </g>
        </g>
    </g>
</svg>