<svg xmlns="http://www.w3.org/2000/svg" viewBox="0 0 401 400" xmlns:xlink="http://www.w3.org/1999/xlink">
  <defs>
    <path id="a" d="M178.561893 162.548743h-4.827282c-27.993359 0-50.686459 22.6931-50.686459 50.686459 0 27.993359 22.6931 50.686459 50.686459 50.686459H279.934812v-106.2002c0-27.993359-22.693101-50.68646-50.68646-50.68646-27.993358 0-50.686459 22.693101-50.686459 50.68646v4.827282z"/>
  </defs>
  <g fill="none" fill-rule="evenodd">
    <g transform="rotate(45 205.82 182.27)">
      <use fill="#FFF" xlink:href="#a"/>
      <path stroke="#008FD5" d="M279.434812 263.421661v-105.7002c0-27.717216-22.469244-50.18646-50.18646-50.18646-27.717216 0-50.186459 22.469244-50.186459 50.18646v5.327282h-5.327282c-27.717216 0-50.186459 22.469243-50.186459 50.186459s22.469243 50.186459 50.186459 50.186459h105.700201z"/>
    </g>
    <path stroke="#22262E" d="M186.740549 193.014511h27.2133755v34.8604619H186.740549z"/>
    <path stroke="#22262E" d="M237.306759 227.895969h-72.226241" stroke-linecap="square"/>
    <path stroke="#008FD5" d="M204.780735 214.661659v5.642675M204.780735 202.247774v5.642675M195.780735 214.661659v5.642675M195.780735 202.247774v5.642675M198.780735 170.508078v13.542421M170.441059 177.843556l9.575937 9.575937M220.677478 187.419494l9.575937-9.575937M236.460358 210.374973h-13.54242M177.776537 210.374973h-13.54242" stroke-linecap="square"/>
    <path stroke="#E9EAEB" d="M164.5545303 32.10823895l9.39860413 44.216956m56.7913323-45.0435882l-8.62548017 44.3742497m69.7299226-19.9549987L267.2286163 93.6127837m72.00816382 8.30690982l-37.47646902 25.2781973m63.41681626 35.19618662l-44.2169559 9.39860412m45.0435884 56.79133224l-44.37425-8.6254801m19.9549987 69.7299226l-37.91192623-24.62029278m-8.30690885 72.0081636l-25.2781973-37.47646902m-35.19618662 63.41681626l-9.39860412-44.2169559m-56.79133224 45.0435884l8.6254801-44.37425M107.59691 339.42405573l24.62029248-37.9119262m-71.7818041-7.97755546l37.0295954-25.92840157m-63.19630185-34.8753358l44.216956-9.39860413m-45.0435882-56.7913323l44.3742497 8.62548017M57.8613106 105.43645716l37.9119259 24.62029255m8.30691002-72.00816282l25.2781972 37.47646863M200.419351 84.39081V.09556387m43.902634 92.95328063l32.936777-77.5941831m4.908631 102.7972966l59.60574-59.6057404m-34.684044 96.7717454l78.157191-31.577555M316.028541 200h84.295246m-92.953281 43.902635l77.594183 32.936776m-102.797296 4.908631l59.60574 59.60574m-96.771746-34.684044l31.577555 78.157191m-76.159591-69.217739v84.295246m-43.902635-92.953281l-32.936776 77.594184m-4.908632-102.797297l-59.6057396 59.60574m34.4026269-97.451147l-77.5941832 32.936776M84.8101607 200H.5149146m92.9532807-43.902635l-77.5941832-32.936776m102.7972959-4.908631L59.0655684 58.6462176m96.7717456 34.6840445l-31.577555-78.1571912" stroke-linecap="square"/>
  </g>
</svg>
