<?xml version="1.0" encoding="UTF-8" standalone="no"?>
<svg width="54px" height="82px" viewBox="0 0 54 82" version="1.1" xmlns="http://www.w3.org/2000/svg" xmlns:xlink="http://www.w3.org/1999/xlink">
    <!-- Generator: Sketch 40.1 (33804) - http://www.bohemiancoding.com/sketch -->
    <title>reputable</title>
    <desc>Created with Sketch.</desc>
    <defs>
        <polygon id="path-1" points="15 49 37 49 37 81 26.0375977 71.1813965 15 81"></polygon>
        <mask id="mask-2" maskContentUnits="userSpaceOnUse" maskUnits="objectBoundingBox" x="0" y="0" width="22" height="32" fill="white">
            <use xlink:href="#path-1"></use>
        </mask>
    </defs>
    <g id="Marketing-Site" stroke="none" stroke-width="1" fill="none" fill-rule="evenodd">
        <g id="Features" transform="translate(-938.000000, -7097.000000)">
            <g id="reputable" transform="translate(939.000000, 7098.000000)">
                <g id="Group-7">
                    <g id="Group-5">
                        <use id="Rectangle-41" stroke="#22262E" mask="url(#mask-2)" stroke-width="2" xlink:href="#path-1"></use>
                        <path d="M50.8892308,26.719753 C50.8892308,24.7503795 52.5955983,22.6160783 52.1769356,20.7730843 C51.7441224,18.8705602 49.2702067,17.688253 48.4421525,15.9716386 C47.6004356,14.2267229 48.2089115,11.5581145 47.0119658,10.0596145 C45.8096525,8.55330723 43.0698031,8.55672289 41.5634959,7.35392169 C40.0649959,6.15746386 39.4623754,3.483 37.7174597,2.64079518 C36.0008453,1.81274096 33.5381525,3.00041566 31.6351405,2.56760241 C29.7926344,2.14893976 28.0911465,0 26.121285,0 C24.1519115,0 22.4504236,2.14893976 20.6074296,2.56760241 C18.7049055,3.00041566 16.2417248,1.81274096 14.5251103,2.64128313 C12.7801947,3.483 12.1780621,6.15746386 10.6790742,7.35440964 C9.17276696,8.55721084 6.43340552,8.55379518 5.23060431,10.0596145 C4.03365853,11.5586024 4.64262239,14.2272108 3.80090552,15.9721265 C2.97236335,17.688253 0.49893564,18.8705602 0.0661223866,20.7730843 C-0.352540264,22.6160783 1.35382721,24.7503795 1.35382721,26.719753 C1.35382721,28.6891265 -0.352540264,30.8234277 0.0661223866,32.6664217 C0.49893564,34.5689458 2.97236335,35.751253 3.80090552,37.4678675 C4.64262239,39.2127831 4.03414648,41.8813916 5.23060431,43.3798916 C6.43340552,44.8861988 9.17325492,44.8827831 10.6790742,46.0855843 C12.1780621,47.2820422 12.7806826,49.956506 14.5255983,50.7987108 C16.2422127,51.6267651 18.7049055,50.4390904 20.6074296,50.8719036 C22.4504236,51.2905663 24.1519115,53.439506 26.121285,53.439506 C28.0911465,53.439506 29.7926344,51.2905663 31.6351405,50.8719036 C33.5381525,50.4390904 36.0008453,51.6267651 37.7174597,50.7982229 C39.4628634,49.956506 40.0649959,47.2820422 41.5639838,46.0850964 C43.0702911,44.8827831 45.8096525,44.8857108 47.0124537,43.3798916 C48.2093995,41.8809036 47.6004356,39.2127831 48.4421525,37.4673795 C49.2702067,35.751253 51.7441224,34.5689458 52.1769356,32.6664217 C52.5955983,30.8234277 50.8892308,28.6891265 50.8892308,26.719753" id="Fill-3" fill="#FFFFFF"></path>
                        <path d="M50.8892308,26.719753 C50.8892308,24.7503795 52.5955983,22.6160783 52.1769356,20.7730843 C51.7441224,18.8705602 49.2702067,17.688253 48.4421525,15.9716386 C47.6004356,14.2267229 48.2089115,11.5581145 47.0119658,10.0596145 C45.8096525,8.55330723 43.0698031,8.55672289 41.5634959,7.35392169 C40.0649959,6.15746386 39.4623754,3.483 37.7174597,2.64079518 C36.0008453,1.81274096 33.5381525,3.00041566 31.6351405,2.56760241 C29.7926344,2.14893976 28.0911465,0 26.121285,0 C24.1519115,0 22.4504236,2.14893976 20.6074296,2.56760241 C18.7049055,3.00041566 16.2417248,1.81274096 14.5251103,2.64128313 C12.7801947,3.483 12.1780621,6.15746386 10.6790742,7.35440964 C9.17276696,8.55721084 6.43340552,8.55379518 5.23060431,10.0596145 C4.03365853,11.5586024 4.64262239,14.2272108 3.80090552,15.9721265 C2.97236335,17.688253 0.49893564,18.8705602 0.0661223866,20.7730843 C-0.352540264,22.6160783 1.35382721,24.7503795 1.35382721,26.719753 C1.35382721,28.6891265 -0.352540264,30.8234277 0.0661223866,32.6664217 C0.49893564,34.5689458 2.97236335,35.751253 3.80090552,37.4678675 C4.64262239,39.2127831 4.03414648,41.8813916 5.23060431,43.3798916 C6.43340552,44.8861988 9.17325492,44.8827831 10.6790742,46.0855843 C12.1780621,47.2820422 12.7806826,49.956506 14.5255983,50.7987108 C16.2422127,51.6267651 18.7049055,50.4390904 20.6074296,50.8719036 C22.4504236,51.2905663 24.1519115,53.439506 26.121285,53.439506 C28.0911465,53.439506 29.7926344,51.2905663 31.6351405,50.8719036 C33.5381525,50.4390904 36.0008453,51.6267651 37.7174597,50.7982229 C39.4628634,49.956506 40.0649959,47.2820422 41.5639838,46.0850964 C43.0702911,44.8827831 45.8096525,44.8857108 47.0124537,43.3798916 C48.2093995,41.8809036 47.6004356,39.2127831 48.4421525,37.4673795 C49.2702067,35.751253 51.7441224,34.5689458 52.1769356,32.6664217 C52.5955983,30.8234277 50.8892308,28.6891265 50.8892308,26.719753 L50.8892308,26.719753 Z" id="Stroke-5" stroke="#008FD5"></path>
                        <path d="M45.5683554,26.4435723 C45.5683554,15.6120181 36.7876627,6.8313253 25.9561084,6.8313253 C15.1245542,6.8313253 6.34337349,15.6120181 6.34337349,26.4435723 C6.34337349,37.2751265 15.1245542,46.0558193 25.9561084,46.0558193 C36.7876627,46.0558193 45.5683554,37.2751265 45.5683554,26.4435723" id="Fill-7" fill="#FFFFFF"></path>
                        <path d="M45.5683554,26.4435723 C45.5683554,15.6120181 36.7876627,6.8313253 25.9561084,6.8313253 C15.1245542,6.8313253 6.34337349,15.6120181 6.34337349,26.4435723 C6.34337349,37.2751265 15.1245542,46.0558193 25.9561084,46.0558193 C36.7876627,46.0558193 45.5683554,37.2751265 45.5683554,26.4435723 L45.5683554,26.4435723 Z" id="Stroke-9" stroke="#008FD5"></path>
                        <polygon id="Stroke-11" stroke="#000000" stroke-linejoin="round" points="28.6144699 23.7281205 36.166012 23.8915843 30.1412711 28.4475904 32.319 35.680012 26.1244518 31.3577349 19.9186807 35.6639096 22.1154398 28.4368554 16.1024096 23.8657229 23.6544398 23.7217771 26.1434819 16.5903614"></polygon>
                    </g>
                </g>
            </g>
        </g>
    </g>
</svg>