<?xml version="1.0" encoding="UTF-8" standalone="no"?>
<svg width="154px" height="83px" viewBox="0 0 154 83" version="1.1" xmlns="http://www.w3.org/2000/svg" xmlns:xlink="http://www.w3.org/1999/xlink">
    <!-- Generator: Sketch 40.1 (33804) - http://www.bohemiancoding.com/sketch -->
    <title>review</title>
    <desc>Created with Sketch.</desc>
    <defs>
        <polygon id="path-1" points="8.9352 10 65.9946289 10.0158081 65.9946289 82.0158081 8.9352 82"></polygon>
        <mask id="mask-2" maskContentUnits="userSpaceOnUse" maskUnits="objectBoundingBox" x="0" y="0" width="57.0594289" height="72.0158081" fill="white">
            <use xlink:href="#path-1"></use>
        </mask>
        <polygon id="path-3" points="14.9199952 1 57.0013428 0.993713379 57.0013428 72.9937134 0 73 0 16.019043"></polygon>
        <mask id="mask-4" maskContentUnits="userSpaceOnUse" maskUnits="objectBoundingBox" x="0" y="0" width="57.0013428" height="72.0062866" fill="white">
            <use xlink:href="#path-3"></use>
        </mask>
        <polygon id="path-5" points="96 10 153.059429 10.0158081 153.059429 82.0158081 96 82"></polygon>
        <mask id="mask-6" maskContentUnits="userSpaceOnUse" maskUnits="objectBoundingBox" x="0" y="0" width="57.0594289" height="72.0158081" fill="white">
            <use xlink:href="#path-5"></use>
        </mask>
        <polygon id="path-7" points="101.919995 1.00628662 144.001343 1 144.001343 73 87 73.0062866 87 16.0253296"></polygon>
        <mask id="mask-8" maskContentUnits="userSpaceOnUse" maskUnits="objectBoundingBox" x="0" y="0" width="57.0013428" height="72.0062866" fill="white">
            <use xlink:href="#path-7"></use>
        </mask>
        <polygon id="path-9" points="1 0 23 0 15.6539307 7.07739258 23 14 1 14"></polygon>
        <mask id="mask-10" maskContentUnits="userSpaceOnUse" maskUnits="objectBoundingBox" x="0" y="0" width="22" height="14" fill="white">
            <use xlink:href="#path-9"></use>
        </mask>
    </defs>
    <g id="Marketing-Site" stroke="none" stroke-width="1" fill="none" fill-rule="evenodd">
        <g id="Compatible-with-Attorney" transform="translate(-736.000000, -1462.000000)">
            <g id="review" transform="translate(736.000000, 1462.000000)">
                <use id="Rectangle-30-Copy-6" stroke="#22262E" mask="url(#mask-2)" stroke-width="2" xlink:href="#path-1"></use>
                <use id="Rectangle-30-Copy-7" stroke="#22262E" mask="url(#mask-4)" stroke-width="2" fill="#FFFFFF" xlink:href="#path-3"></use>
                <polyline id="Stroke-7-Copy" stroke="#008FD5" points="44.3171028 29.5 24.3439524 49.618 13.4028 38.5975"></polyline>
                <path d="M1.5,16.5 L15.5,16.5" id="Line" stroke="#22262E" stroke-linecap="square"></path>
                <path d="M15.5,2.5 L15.5,15.5" id="Line" stroke="#22262E" stroke-linecap="square"></path>
                <use id="Rectangle-30-Copy-6" stroke="#22262E" mask="url(#mask-6)" stroke-width="2" xlink:href="#path-5"></use>
                <use id="Rectangle-30-Copy-7" stroke="#22262E" mask="url(#mask-8)" stroke-width="2" fill="#FFFFFF" xlink:href="#path-7"></use>
                <path d="M88.5,16.5 L102.5,16.5" id="Line" stroke="#22262E" stroke-linecap="square"></path>
                <path d="M102.5,2.5 L102.5,15.5" id="Line" stroke="#22262E" stroke-linecap="square"></path>
                <g id="Group-4" transform="translate(105.000000, 25.000000)" stroke="#008FD5">
                    <path d="M1.5,0.5 L1.5,31.5644491" id="Line" stroke-linecap="square"></path>
                    <use id="Rectangle-2" mask="url(#mask-10)" stroke-width="2" xlink:href="#path-9"></use>
                </g>
            </g>
        </g>
    </g>
</svg>