<?xml version="1.0" encoding="UTF-8" standalone="no"?>
<svg width="81px" height="81px" viewBox="0 0 81 81" version="1.1" xmlns="http://www.w3.org/2000/svg" xmlns:xlink="http://www.w3.org/1999/xlink">
    <!-- Generator: Sketch 40.1 (33804) - http://www.bohemiancoding.com/sketch -->
    <title>secure_encryption</title>
    <desc>Created with Sketch.</desc>
    <defs>
        <polygon id="path-1" points="5.16730909 4.37500075 5.16730909 0.402805468 0.332325585 0.402805468 0.332325585 4.37500075 5.16730909 4.37500075"></polygon>
        <polygon id="path-3" points="0.436848397 4.90909091 4.38800144 4.90909091 4.38800144 0.0726519257 0.436848397 0.0726519257 0.436848397 4.90909091"></polygon>
        <polygon id="path-5" points="0 0.21222 0 2.14934727 4.71660545 2.14934727 4.71660545 0.21222 9.97958818e-21 0.21222"></polygon>
    </defs>
    <g id="Marketing-Site" stroke="none" stroke-width="1" fill="none" fill-rule="evenodd">
        <g id="Features" transform="translate(-532.000000, -7098.000000)">
            <g id="secure_encryption" transform="translate(532.000000, 7098.000000)">
                <g id="Group-6">
                    <g id="Group-4">
                        <g id="Group-29">
                            <g id="Group-27">
                                <path d="M25.0456909,43.4737309 C23.6142,43.4737309 22.4536909,42.3132218 22.4536909,40.8817309 C22.4536909,39.4507309 23.6142,38.2902218 25.0456909,38.2902218 C26.4771818,38.2902218 27.6376909,39.4507309 27.6376909,40.8817309 C27.6376909,42.3132218 26.4771818,43.4737309 25.0456909,43.4737309 L25.0456909,43.4737309 Z M56.5699091,35.5106945 L36.9890182,35.5106945 C35.2183091,32.7547309 32.1285273,30.9270764 28.6092,30.9270764 C23.1115091,30.9270764 18.6545455,35.38404 18.6545455,40.8817309 C18.6545455,46.3799127 23.1115091,50.8368764 28.6092,50.8368764 C32.5845818,50.8368764 36.0140727,48.50604 37.6100182,45.1374218 L41.9025273,45.1374218 L44.3472545,42.6926945 L46.7919818,45.1374218 L49.2362182,42.6926945 L51.6809455,45.1374218 L54.1256727,42.6926945 L56.5699091,45.1374218 L61.3832727,40.3240582 L56.5699091,35.5106945 L56.5699091,35.5106945 Z" id="Page-1" stroke="#008FD5"></path>
                                <path d="M45.5778655,2.77132909 L45.60192,2.54207455 C45.7079564,1.54700182 45.3923018,0.904401818 44.6917745,0.829783636 C43.9848655,0.754674545 43.5386291,1.27651091 43.4281745,2.31723818 L43.4026473,2.55287455 C43.2897382,3.61372909 43.6387745,4.19398364 44.3393018,4.26811091 C45.0594655,4.34469273 45.4649564,3.83169273 45.5778655,2.77132909 M42.5249018,2.46647455 L42.5499382,2.23034727 C42.7011382,0.809656364 43.5793745,0.0227290909 44.7580473,0.148401818 C45.9426109,0.274565455 46.6235018,1.22054727 46.4737745,2.62847455 L46.4482473,2.86411091 C46.29852,4.27154727 45.4698655,5.09038364 44.2460291,4.96029273 C43.0541018,4.83314727 42.3751745,3.87391091 42.5249018,2.46647455" id="Fill-1" fill="#000000"></path>
                                <polygon id="Fill-3" fill="#000000" points="51.1727564 2.33103273 50.0304109 2.70952364 50.2424836 1.96874182 51.5070655 1.52299636 52.26012 1.73850545 50.96412 6.26419636 50.1158291 6.02119636"></polygon>
                                <path d="M57.9977673,6.72545455 L58.0984036,6.51829091 C58.5358036,5.61894545 58.4572582,4.90761818 57.8239855,4.59981818 C57.1848218,4.28907273 56.5883673,4.62829091 56.13084,5.56936364 L56.0272582,5.78241818 C55.5613855,6.74116364 55.6924582,7.40438182 56.3257309,7.71218182 C56.9766764,8.02881818 57.5318945,7.6842 57.9977673,6.72545455 M55.2314945,5.40294545 L55.3350764,5.18989091 C55.9595127,3.90567273 57.0522764,3.46385455 58.1170582,3.98176364 C59.1882218,4.50212727 59.5068218,5.62238182 58.8882764,6.89481818 L58.7851855,7.10787273 C58.16664,8.38030909 57.1097127,8.86876364 56.0032036,8.33121818 C54.9261491,7.80741818 54.6129491,6.67538182 55.2314945,5.40294545" id="Fill-5" fill="#000000"></path>
                                <path d="M64.2398236,10.8152673 L64.3792418,10.6316673 C64.9835509,9.83443091 65.0454055,9.12163091 64.4847873,8.69601273 C63.9182782,8.26646727 63.2668418,8.48295818 62.6345509,9.31652182 L62.4912055,9.50503091 C61.8471327,10.3547945 61.84566,11.0312673 62.4067691,11.4568855 C62.9835873,11.8942855 63.5957509,11.66454 64.2398236,10.8152673 M61.7847873,8.97730364 L61.9276418,8.78879455 C62.79066,7.65086727 63.9492055,7.43044909 64.8932236,8.14668545 C65.8421509,8.86635818 65.9359145,10.0278491 65.08026,11.1554673 L64.9374055,11.3444673 C64.0822418,12.4715945 62.9502055,12.74454 61.9693691,12.0008127 C61.0150418,11.2767218 60.9291327,10.1049218 61.7847873,8.97730364" id="Fill-7" fill="#000000"></path>
                                <polygon id="Fill-9" fill="#000000" points="69.2512691 13.3242055 68.0775055 13.0591145 68.6410691 12.5343327 69.9542509 12.8043327 70.48836 13.3772236 67.0446327 16.5858055 66.4432691 15.94026"></polygon>
                                <polygon id="Fill-11" fill="#000000" points="72.9098673 17.8385073 71.7876491 17.4055255 72.4209218 16.9686164 73.6805945 17.4261436 74.1258491 18.0707073 70.2530673 20.7432164 69.75234 20.0176527"></polygon>
                                <polygon id="Fill-13" fill="#000000" points="75.87378 22.8453873 74.8271618 22.2518782 75.5188527 21.91266 76.6975255 22.5513327 77.0421436 23.2548055 72.8163982 25.3274236 72.4280891 24.5355873"></polygon>
                                <path d="M77.1942764,30.8538327 L77.4156764,30.7895236 C78.3763855,30.5106873 78.8515855,29.9751055 78.6552218,29.2986327 C78.4568945,28.6157782 77.8049673,28.40076 76.7995855,28.6928509 L76.5722945,28.7586327 C75.5477673,29.0561236 75.1432582,29.5985782 75.3396218,30.2750509 C75.5413855,30.9701782 76.17024,31.1513236 77.1942764,30.8538327 M76.3199673,27.9132873 L76.5477491,27.8470145 C77.9193491,27.4488873 78.9806945,27.96336 79.3105855,29.1017782 C79.6429309,30.2460873 79.0248764,31.2342873 77.6655491,31.6289782 L77.4382582,31.69476 C76.0789309,32.0894509 75.0072764,31.6324145 74.6641309,30.4503055 C74.3298218,29.2996145 74.96064,28.3079782 76.3199673,27.9132873" id="Fill-15" fill="#000000"></path>
                                <g id="Group-19" transform="translate(75.600000, 34.723473)">
                                    <mask id="mask-2" fill="white">
                                        <use xlink:href="#path-1"></use>
                                    </mask>
                                    <g id="Clip-18"></g>
                                    <path d="M2.74148182,3.48898909 L2.97073636,3.46935273 C3.96728182,3.38393455 4.53771818,2.95193455 4.47733636,2.25091636 C4.41695455,1.54302545 3.82000909,1.20478909 2.77780909,1.29364364 L2.54168182,1.31426182 C1.48033636,1.40508 0.977645455,1.85769818 1.03753636,2.55871636 C1.09939091,3.27986182 1.67964545,3.58029818 2.74148182,3.48898909 M2.46019091,0.436516364 L2.69582727,0.416389091 C4.11848182,0.294152727 5.05759091,1.00597091 5.15871818,2.18562545 C5.26033636,3.37215273 4.46113636,4.21995273 3.05222727,4.34071636 L2.8161,4.36084364 C1.40719091,4.48160727 0.446481818,3.82428 0.340936364,2.59897091 C0.238827273,1.40606182 1.05079091,0.55728 2.46019091,0.436516364" id="Fill-17" fill="#000000" mask="url(#mask-2)"></path>
                                </g>
                                <path d="M78.0394745,45.6733964 L78.2682382,45.6984327 C79.2623291,45.8079055 79.9059109,45.4947055 79.9824927,44.79516 C80.0605473,44.0892327 79.5401836,43.6410327 78.5004382,43.5266509 L78.2652927,43.5011236 C77.2059109,43.3842873 76.6251655,43.7308691 76.5480927,44.4309055 C76.4690564,45.1500873 76.9800927,45.5570509 78.0394745,45.6733964 M78.3551291,42.6238691 L78.5902745,42.6498873 C80.0094927,42.8059964 80.7929836,43.6861964 80.6633836,44.8633964 C80.5332927,46.0469782 79.5853473,46.7239418 78.1793836,46.5693055 L77.9437473,46.5432873 C76.5377836,46.3886509 75.7223836,45.5575418 75.8568927,44.3346873 C75.9879655,43.1447236 76.9491655,42.4692327 78.3551291,42.6238691" id="Fill-20" fill="#000000"></path>
                                <polygon id="Fill-22" fill="#000000" points="78.4642091 51.2704473 78.0901364 50.1266291 78.8299364 50.3416473 79.2712636 51.6072109 79.0528091 52.3597745 74.5325182 51.0475745 74.7784636 50.2007564"></polygon>
                                <path d="M74.0491691,58.0808291 L74.2558418,58.1824473 C75.1542055,58.6227927 75.8660236,58.5467018 76.1762782,57.9144109 C76.4894782,57.2762291 76.1522236,56.6783018 75.2126236,56.2173382 L75.00006,56.1127745 C74.0422964,55.6434655 73.3780964,55.7720836 73.0678418,56.4043745 C72.7492418,57.0548291 73.0918964,57.6110291 74.0491691,58.0808291 M75.3824782,55.3179927 L75.5950418,55.4225564 C76.8777873,56.0514109 77.3156782,57.1461382 76.7938418,58.2099382 C76.26906,59.2796291 75.1468418,59.5943018 73.8763691,58.9713382 L73.6638055,58.8672655 C72.3928418,58.2438109 71.9078236,57.1844291 72.4502782,56.0793927 C72.9775145,55.0038109 74.1115145,54.6950291 75.3824782,55.3179927" id="Fill-24" fill="#000000"></path>
                                <polygon id="Fill-26" fill="#000000" points="72.5471836 63.4832345 72.5820382 62.2809982 73.2054927 62.7331255 73.1922382 64.0733073 72.7322564 64.7070709 68.9242745 61.9432527 69.4421836 61.2299618"></polygon>
                                <path d="M66.0977673,68.3906564 L66.2582945,68.5556018 C66.9553855,69.27282 67.6505127,69.4412018 68.1556582,68.9507836 C68.6652218,68.4554564 68.5493673,67.7794745 67.8203673,67.0293655 L67.6554218,66.85902 C66.9126764,66.0946745 66.2440582,65.9915836 65.7394036,66.4820018 C65.2200218,66.9866564 65.3550218,67.62582 66.0977673,68.3906564 M68.2832945,66.2399836 L68.44824,66.4098382 C69.4428218,67.4338745 69.4865127,68.6115655 68.6367491,69.4367836 C67.7830582,70.26642 66.6205855,70.1844382 65.6353309,69.17022 L65.4703855,68.9998745 C64.48464,67.9856564 64.3849855,66.8251473 65.26764,65.96802 C66.1267309,65.1339655 67.2975491,65.2257655 68.2832945,66.2399836" id="Fill-28" fill="#000000"></path>
                                <polygon id="Fill-30" fill="#000000" points="62.8572273 72.9818836 63.2946273 71.8611382 63.7295727 72.4968655 63.2666455 73.7540836 62.6201182 74.1963927 59.9638091 70.3133018 60.6913364 69.81552"></polygon>
                                <path d="M55.1297291,75.4330909 L55.2249655,75.6432 C55.6397836,76.5538364 56.2382018,76.9470545 56.8793291,76.6549636 C57.5263473,76.3609091 57.6456382,75.6849273 57.2121655,74.7315818 L57.1139836,74.5160727 C56.6721655,73.5450545 56.0771836,73.2230182 55.4360564,73.5146182 C54.7767655,73.8145636 54.6879109,74.4620727 55.1297291,75.4330909 M57.9141655,74.1449455 L58.0123473,74.3604545 C58.6038927,75.6608727 58.2474927,76.7850545 57.1689655,77.2759636 C56.0840564,77.7693273 55.0173109,77.3000182 54.4311655,76.0118727 L54.3329836,75.7958727 C53.7468382,74.5072364 54.0443291,73.3810909 55.1645836,72.8710364 C56.2553836,72.3747273 57.32802,72.8563091 57.9141655,74.1449455" id="Fill-32" fill="#000000"></path>
                                <path d="M48.0017291,77.6273073 L48.0537655,77.8516527 C48.2805655,78.8261073 48.7896382,79.32978 49.4754382,79.1702345 C50.1681109,79.0092164 50.4179836,78.3700527 50.1808745,77.3504345 L50.1278564,77.1197073 C49.8858382,76.0809436 49.3664564,75.6474709 48.6801655,75.8070164 C47.9747291,75.97098 47.7602018,76.5885436 48.0017291,77.6273073 M50.9854745,76.9135255 L51.0389836,77.1442527 C51.3624927,78.53598 50.7910745,79.56738 49.6369473,79.8354164 C48.4764382,80.1054164 47.5230927,79.4348345 47.2025291,78.0563618 L47.14902,77.8251436 C46.8284564,76.4471618 47.3424382,75.4015255 48.5417291,75.1226891 C49.7081291,74.8517073 50.6649109,75.5345618 50.9854745,76.9135255" id="Fill-34" fill="#000000"></path>
                                <g id="Group-38" transform="translate(39.272727, 75.959836)">
                                    <mask id="mask-4" fill="white">
                                        <use xlink:href="#path-3"></use>
                                    </mask>
                                    <g id="Clip-37"></g>
                                    <path d="M1.31382,2.42494364 L1.32118364,2.65518 C1.35456545,3.65467091 1.75563818,4.24719818 2.45960182,4.22412545 C3.16994727,4.20056182 3.53911091,3.62227091 3.50474727,2.57663455 L3.49689273,2.33952545 C3.46154727,1.27425273 3.03592909,0.748489091 2.33245636,0.771561818 C1.60885636,0.795616364 1.27847455,1.35967091 1.31382,2.42494364 M4.37807455,2.30418 L4.38592909,2.54079818 C4.43305636,3.96787091 3.67263818,4.86918 2.48856545,4.90796182 C1.29811091,4.94723455 0.493510909,4.10483455 0.446874545,2.69052545 L0.43902,2.45390727 C0.392383636,1.04008909 1.09929273,0.114725455 2.32902,0.07398 C3.52585636,0.0342163636 4.33094727,0.889870909 4.37807455,2.30418" id="Fill-36" fill="#000000" mask="url(#mask-4)"></path>
                                </g>
                                <polygon id="Fill-39" fill="#000000" points="35.1004909 79.5971782 36.1780364 79.0625782 36.072 79.8254509 34.8830182 80.4439964 34.1078727 80.3359964 34.7558727 75.6767782 35.6292 75.7980327"></polygon>
                                <path d="M27.7340073,76.2106909 L27.6633164,76.4301273 C27.3569891,77.382 27.5351891,78.0751636 28.20528,78.2901818 C28.8812618,78.5081455 29.4242073,78.0884182 29.7447709,77.0928545 L29.8174255,76.8675273 C30.14388,75.8528182 29.9205164,75.2146364 29.2504255,74.9986364 C28.56168,74.7772364 28.0604618,75.1964727 27.7340073,76.2106909 M30.6583527,77.1311455 L30.5856982,77.3564727 C30.1482982,78.7153091 29.1291709,79.3068545 28.0020436,78.9435818 C26.8685345,78.5788364 26.3952982,77.5145455 26.8287709,76.1684727 L26.9014255,75.9426545 C27.3344073,74.5965818 28.3118073,73.9642909 29.4831164,74.3408182 C30.6225164,74.7075273 31.0913345,75.7845818 30.6583527,77.1311455" id="Fill-41" fill="#000000"></path>
                                <polygon id="Fill-43" fill="#000000" points="22.1614036 75.4920491 23.3567673 75.3560673 22.9974218 76.0369582 21.6685309 76.2141764 20.9758582 75.84894 23.1721855 71.6870127 23.95224 72.0988855"></polygon>
                                <path d="M16.3877236,69.8111018 L16.2468327,69.9932291 C15.6356509,70.7855564 15.5679055,71.4993382 16.1255782,71.9288836 C16.6886509,72.3638291 17.3420509,72.1527382 17.9817055,71.3235927 L18.1265236,71.1360655 C18.7784509,70.2917018 18.7848327,69.6147382 18.22716,69.1842109 C17.6537782,68.7414109 17.0396509,68.9662473 16.3877236,69.8111018 M18.8295055,71.6696836 L18.6846873,71.8577018 C17.81136,72.9892473 16.6508509,73.1993564 15.7122327,72.4757564 C14.7691964,71.7472473 14.68476,70.5842836 15.5492509,69.4635382 L15.6940691,69.2760109 C16.5590509,68.1547745 17.6940327,67.8911564 18.6689782,68.6432291 C19.6179055,69.3751745 19.6939964,70.5489382 18.8295055,71.6696836" id="Fill-45" fill="#000000"></path>
                                <path d="M11.1008291,64.5403091 L10.9270473,64.692 C10.1735018,65.3498182 9.96830182,66.0356182 10.43172,66.5667818 C10.8990655,67.1018727 11.5809382,67.0218545 12.3693382,66.3336 L12.5480291,66.1779818 C13.3511564,65.4764727 13.4895927,64.8142364 13.0261745,64.2835636 C12.5499927,63.7381636 11.9039564,63.8388 11.1008291,64.5403091 M13.1331927,66.8377636 L12.9545018,66.9938727 C11.8784291,67.9334727 10.6997564,67.9143273 9.92019273,67.0213636 C9.13670182,66.1239818 9.28004727,64.9674 10.3463018,64.0366364 L10.5249927,63.8810182 C11.5912473,62.9497636 12.7551927,62.9119636 13.5651927,63.8392909 C14.3526109,64.7420727 14.1994473,65.9074909 13.1331927,66.8377636" id="Fill-47" fill="#000000"></path>
                                <path d="M6.94513636,58.3497982 L6.74533636,58.4646709 C5.8779,58.9634345 5.5431,59.5962164 5.89360909,60.2069073 C6.24853636,60.8234891 6.93286364,60.87798 7.84006364,60.3561436 L8.04575455,60.2383255 C8.97013636,59.7066709 9.23473636,59.0837073 8.88422727,58.4730164 C8.52291818,57.8451436 7.86951818,57.8181436 6.94513636,58.3497982 M8.49100909,60.9997255 L8.28531818,61.1180345 C7.04675455,61.8298527 5.8941,61.5809618 5.30353636,60.55398 C4.70953636,59.5206164 5.07575455,58.4141073 6.30302727,57.7086709 L6.50871818,57.5908527 C7.73599091,56.8854164 8.88520909,57.0749073 9.49884545,58.1426345 C10.0957909,59.1813982 9.71828182,60.2942891 8.49100909,60.9997255" id="Fill-49" fill="#000000"></path>
                                <path d="M4.07876727,51.4590545 L3.86031273,51.5326909 C2.91187636,51.8512909 2.45925818,52.4060182 2.68409455,53.0741455 C2.91040364,53.7476727 3.57067636,53.9352 4.56280364,53.6018727 L4.78764,53.5262727 C5.79842182,53.1870545 6.17985818,52.6279091 5.95551273,51.9602727 C5.72478545,51.2739818 5.08954909,51.1193455 4.07876727,51.4590545 M5.07482182,54.3608182 L4.84998545,54.4359273 C3.49605818,54.891 2.41458545,54.4212 2.03707636,53.2984909 C1.65711273,52.1689091 2.23344,51.1556727 3.57509455,50.7045273 L3.79993091,50.6294182 C5.14158545,50.1782727 6.23091273,50.5896545 6.62314909,51.7565455 C7.00507636,52.8920182 6.41647636,53.9096727 5.07482182,54.3608182" id="Fill-51" fill="#000000"></path>
                                <polygon id="Fill-53" fill="#000000" points="1.34906727 46.55286 2.16888545 47.4340418 1.40748545 47.5498964 0.475249091 46.5857509 0.357430909 45.8110964 5.01124909 45.1041873 5.14428545 45.9765327"></polygon>
                                <g id="Group-57" transform="translate(0.000000, 39.632564)">
                                    <mask id="mask-6" fill="white">
                                        <use xlink:href="#path-5"></use>
                                    </mask>
                                    <g id="Clip-56"></g>
                                    <polygon id="Fill-55" fill="#000000" mask="url(#mask-6)" points="0.882114545 1.15476545 1.57527818 2.13707455 0.806023636 2.14934727 0.0127145455 1.06983818 -4.90909088e-05 0.287329091 4.70236909 0.21222 4.71660545 1.09389273"></polygon>
                                </g>
                                <path d="M3.17343273,32.9845255 L2.94663273,32.9462345 C1.96039636,32.7803073 1.30012364,33.0557073 1.18328727,33.7498527 C1.06497818,34.45038 1.55834182,34.9275436 2.58974182,35.1013255 L2.82341455,35.1405982 C3.87445091,35.3178164 4.47385091,35.0051073 4.59117818,34.3109618 C4.71145091,33.5976709 4.22446909,33.1617436 3.17343273,32.9845255 M2.68301455,36.01098 L2.44983273,35.9717073 C1.04239636,35.7341073 0.310450909,34.8102164 0.507305455,33.6423436 C0.705632727,32.46858 1.69088727,31.84758 3.08556,32.0827255 L3.31874182,32.1219982 C4.71390545,32.3571436 5.47972364,33.2334164 5.27550545,34.4464527 C5.07619636,35.6270891 4.07817818,36.2461255 2.68301455,36.01098" id="Fill-58" fill="#000000"></path>
                                <path d="M5.33289273,25.8522055 L5.11787455,25.7702236 C4.18318364,25.4138236 3.48118364,25.5547145 3.23032909,26.2125327 C2.97702,26.8767327 3.36778364,27.4412782 4.34567455,27.8143691 L4.56658364,27.8988055 C5.56312909,28.2782782 6.21309273,28.0892782 6.46394727,27.43146 C6.72167455,26.7549873 6.32943818,26.2316782 5.33289273,25.8522055 M4.25878364,28.7250055 L4.03738364,28.6405691 C2.70309273,28.1319873 2.16652909,27.0819327 2.58822,25.9749327 C3.01285636,24.8615509 4.10120182,24.4457509 5.42371091,24.9499145 L5.64462,25.03386 C6.96712909,25.5380236 7.54689273,26.5483145 7.10851091,27.6980236 C6.68191091,28.8177873 5.58080182,29.2291691 4.25878364,28.7250055" id="Fill-60" fill="#000000"></path>
                                <polygon id="Fill-62" fill="#000000" points="6.34254545 20.32614 6.41618182 21.5273945 5.75443636 21.1331945 5.64692727 19.7964491 6.04750909 19.1234127 10.0916182 21.5337764 9.63949091 22.2912491"></polygon>
                                <polygon id="Fill-64" fill="#000000" points="9.65495455 15.5555836 9.55284545 16.7538927 8.9559 16.2678927 9.04377273 14.9306564 9.53860909 14.3234018 13.1860636 17.2958564 12.6288818 17.9792018"></polygon>
                                <path d="M16.3750091,11.0094218 L16.2238091,10.83564 C15.5679545,10.0806218 14.8831364,9.87394909 14.3514818,10.3358945 C13.8154091,10.8017673 13.8934636,11.4831491 14.5792636,12.2730218 L14.7348818,12.4517127 C15.4334455,13.2563127 16.0956818,13.3962218 16.6268455,12.9342764 C17.1732273,12.4600582 17.0740636,11.8140218 16.3750091,11.0094218 M14.0736273,13.0349127 L13.9185,12.8562218 C12.9818455,11.7781855 13.0039364,10.6000036 13.8978818,9.82338545 C14.7967364,9.04284 15.9523364,9.18913091 16.8801545,10.2568582 L17.0352818,10.4355491 C17.9631,11.5032764 17.9979545,12.6667309 17.0691545,13.4737855 C16.1653909,14.25924 15.0014455,14.10264 14.0736273,13.0349127" id="Fill-66" fill="#000000"></path>
                                <polygon id="Fill-68" fill="#000000" points="19.8689073 6.61087636 19.3686709 7.70462182 18.9705436 7.04582182 19.5046527 5.81609455 20.1747436 5.41158545 22.6062164 9.43949455 21.8516891 9.89505818"></polygon>
                                <path d="M27.7153036,4.60408909 L27.6318491,4.38956182 C27.2700491,3.45683455 26.6947036,3.03072545 26.0383582,3.28550727 C25.3761218,3.54274364 25.21854,4.21087091 25.5975218,5.18630727 L25.6834309,5.40721636 C26.0692855,6.40130727 26.6451218,6.75623455 27.3014673,6.50145273 C27.9759764,6.23979818 28.1011582,5.59768909 27.7153036,4.60408909 M24.8636127,5.73268909 L24.7781945,5.51178 C24.2607764,4.18043455 24.6805036,3.07883455 25.7845582,2.64978 C26.8949945,2.21876182 27.9332673,2.74747091 28.4457764,4.06654364 L28.5311945,4.28745273 C29.0432127,5.60652545 28.6828855,6.71352545 27.5356309,7.15927091 C26.4188127,7.59274364 25.3756309,7.05176182 24.8636127,5.73268909" id="Fill-70" fill="#000000"></path>
                                <polygon id="Fill-72" fill="#000000" points="32.4992618 1.64930727 31.6563709 2.50790727 31.5061527 1.75239818 32.4270982 0.777943636 33.1953709 0.625270909 34.1114073 5.24178 33.2459345 5.41359818"></polygon>
                                <polygon id="Fill-74" fill="#000000" points="38.2674436 0.911274545 37.3072255 1.63732909 37.2699164 0.868074545 38.3234073 0.0384381818 39.1059164 0.000147272731 39.3366436 4.70256545 38.4549709 4.74576545"></polygon>
                            </g>
                        </g>
                    </g>
                </g>
            </g>
        </g>
    </g>
</svg>