<?xml version="1.0" encoding="utf-8"?>
<!-- Generator: Adobe Illustrator 16.0.0, SVG Export Plug-In . SVG Version: 6.00 Build 0)  -->
<!DOCTYPE svg PUBLIC "-//W3C//DTD SVG 1.1//EN" "http://www.w3.org/Graphics/SVG/1.1/DTD/svg11.dtd">
<svg version="1.1" id="Capa_1" xmlns="http://www.w3.org/2000/svg" xmlns:xlink="http://www.w3.org/1999/xlink" x="0px" y="0px"
	 width="512px" height="512px" viewBox="0 0 512 512" enable-background="new 0 0 512 512" xml:space="preserve">
<g>
	<g>
		<g>
			<g>
				<path fill="#231F20" d="M351.135,0h-190.27c-29.751,0-53.967,24.216-53.967,53.968v404.064
					c0,29.752,24.216,53.968,53.967,53.968h190.27c29.752,0,53.968-24.216,53.968-53.968V53.968C405.103,24.216,380.887,0,351.135,0
					z M386.422,458.032c0,19.373-15.914,35.979-35.979,35.979H160.865c-20.065,0-35.978-15.913-35.978-35.979v-16.605h261.535
					V458.032z M386.422,423.438H124.887V88.562h261.535V423.438z M386.422,70.573H124.887V53.968
					c0-20.065,15.913-35.979,35.978-35.979h190.27c19.373,0,35.287,16.605,35.287,35.979V70.573z"/>
				<path fill="#231F20" d="M292.324,211.027c0-20.065-16.605-36.67-36.67-36.67c-20.065,0-36.67,16.605-36.67,36.67
					s16.605,36.67,36.67,36.67C275.719,247.697,292.324,231.092,292.324,211.027z M236.973,211.027
					c0-10.378,8.303-18.681,18.682-18.681c10.378,0,18.681,8.303,18.681,18.681s-8.303,18.681-18.681,18.681
					C245.275,229.708,236.973,221.405,236.973,211.027z"/>
				<path fill="#ED2F59" d="M212.065,346.638c0,15.222,18.681,26.292,44.281,26.292c25.601,0,44.281-11.07,44.281-26.292
					c-0.691-11.07-11.762-20.757-27.676-24.216c18.682-25.6,55.352-80.26,55.352-111.395c0-39.438-32.52-71.957-71.957-71.957
					s-71.957,32.519-71.957,71.957c0,32.519,35.979,86.487,54.66,111.395C222.443,325.881,212.065,335.567,212.065,346.638z
					 M281.946,345.946c-0.692,2.768-9.687,8.994-26.292,8.994s-25.601-6.227-26.292-8.303c0.691-2.075,7.61-6.919,21.448-8.303
					l4.844,6.228l4.843-6.228C274.335,339.719,281.254,344.563,281.946,345.946z M201.687,211.027
					c0-29.751,24.216-53.967,53.968-53.967c29.751,0,53.967,24.216,53.967,53.967c0,24.908-34.594,77.493-53.967,104.476
					C235.589,289.211,201.687,237.319,201.687,211.027z"/>
				<path fill="#231F20" d="M227.979,471.179h55.352c4.843,0,8.994-4.151,8.994-8.995c0-4.843-4.151-8.994-8.994-8.994h-55.352
					c-4.843,0-8.995,4.151-8.995,8.994C218.984,467.027,223.135,471.179,227.979,471.179z"/>
			</g>
		</g>
	</g>
</g>
</svg>
