<?xml version="1.0" encoding="UTF-8" standalone="no"?>
<svg width="141px" height="81px" viewBox="0 0 141 81" version="1.1" xmlns="http://www.w3.org/2000/svg" xmlns:xlink="http://www.w3.org/1999/xlink">
    <!-- Generator: Sketch 40.1 (33804) - http://www.bohemiancoding.com/sketch -->
    <title>startup_attorneys</title>
    <desc>Created with Sketch.</desc>
    <defs></defs>
    <g id="Marketing-Site" stroke="none" stroke-width="1" fill="none" fill-rule="evenodd">
        <g id="Products---Formation" transform="translate(-125.000000, -3000.000000)">
            <g id="startup_attorneys" transform="translate(125.000000, 3000.000000)">
                <g id="Group-3">
                    <path d="M98.5208329,40.8965803 C98.5208329,40.0215671 97.7108329,39.3128171 96.7100566,39.3128171 C95.7103461,39.3128171 94.9003461,40.0215671 94.9003461,40.8965803 C94.9003461,41.7715934 95.7103461,42.4803434 96.7100566,42.4803434 C97.7108329,42.4803434 98.5208329,41.7715934 98.5208329,40.8965803" id="Fill-1" fill="#000000"></path>
                    <path d="M122.553213,40.8965803 C122.553213,40.0215671 121.743213,39.3128171 120.742437,39.3128171 C119.742726,39.3128171 118.932726,40.0215671 118.932726,40.8965803 C118.932726,41.7715934 119.742726,42.4803434 120.742437,42.4803434 C121.743213,42.4803434 122.553213,41.7715934 122.553213,40.8965803" id="Fill-3" fill="#000000"></path>
                    <path d="M102.353518,1.78967368 C102.353518,2.31297632 101.929334,2.73716053 101.406032,2.73716053 C100.882729,2.73716053 100.458545,2.31297632 100.458545,1.78967368 C100.458545,1.26637105 100.882729,0.842186842 101.406032,0.842186842 C101.929334,0.842186842 102.353518,1.26637105 102.353518,1.78967368" id="Fill-5" fill="#008FD5"></path>
                    <path d="M105.811259,1.78967368 C105.811259,2.31297632 105.387075,2.73716053 104.863772,2.73716053 C104.34047,2.73716053 103.916286,2.31297632 103.916286,1.78967368 C103.916286,1.26637105 104.34047,0.842186842 104.863772,0.842186842 C105.387075,0.842186842 105.811259,1.26637105 105.811259,1.78967368" id="Fill-7" fill="#008FD5"></path>
                    <path d="M109.269107,1.78967368 C109.269107,2.31297632 108.844922,2.73716053 108.32162,2.73716053 C107.798317,2.73716053 107.374133,2.31297632 107.374133,1.78967368 C107.374133,1.26637105 107.798317,0.842186842 108.32162,0.842186842 C108.844922,0.842186842 109.269107,1.26637105 109.269107,1.78967368" id="Fill-9" fill="#008FD5"></path>
                    <path d="M112.726847,1.78967368 C112.726847,2.31297632 112.302663,2.73716053 111.779361,2.73716053 C111.256058,2.73716053 110.831874,2.31297632 110.831874,1.78967368 C110.831874,1.26637105 111.256058,0.842186842 111.779361,0.842186842 C112.302663,0.842186842 112.726847,1.26637105 112.726847,1.78967368" id="Fill-11" fill="#008FD5"></path>
                    <path d="M116.184695,1.78967368 C116.184695,2.31297632 115.760511,2.73716053 115.237208,2.73716053 C114.713905,2.73716053 114.289721,2.31297632 114.289721,1.78967368 C114.289721,1.26637105 114.713905,0.842186842 115.237208,0.842186842 C115.760511,0.842186842 116.184695,1.26637105 116.184695,1.78967368" id="Fill-13" fill="#008FD5"></path>
                    <path d="M95.4378237,4.77676184 C95.4378237,5.30006447 95.0136395,5.72424868 94.4903368,5.72424868 C93.9670342,5.72424868 93.54285,5.30006447 93.54285,4.77676184 C93.54285,4.25345921 93.9670342,3.829275 94.4903368,3.829275 C95.0136395,3.829275 95.4378237,4.25345921 95.4378237,4.77676184" id="Fill-15" fill="#008FD5"></path>
                    <path d="M98.8956711,4.77676184 C98.8956711,5.30006447 98.4714868,5.72424868 97.9481842,5.72424868 C97.4248816,5.72424868 97.0006974,5.30006447 97.0006974,4.77676184 C97.0006974,4.25345921 97.4248816,3.829275 97.9481842,3.829275 C98.4714868,3.829275 98.8956711,4.25345921 98.8956711,4.77676184" id="Fill-17" fill="#008FD5"></path>
                    <path d="M102.353518,4.77676184 C102.353518,5.30006447 101.929334,5.72424868 101.406032,5.72424868 C100.882729,5.72424868 100.458545,5.30006447 100.458545,4.77676184 C100.458545,4.25345921 100.882729,3.829275 101.406032,3.829275 C101.929334,3.829275 102.353518,4.25345921 102.353518,4.77676184" id="Fill-19" fill="#008FD5"></path>
                    <path d="M105.811259,4.77676184 C105.811259,5.30006447 105.387075,5.72424868 104.863772,5.72424868 C104.34047,5.72424868 103.916286,5.30006447 103.916286,4.77676184 C103.916286,4.25345921 104.34047,3.829275 104.863772,3.829275 C105.387075,3.829275 105.811259,4.25345921 105.811259,4.77676184" id="Fill-21" fill="#008FD5"></path>
                    <path d="M109.269107,4.77676184 C109.269107,5.30006447 108.844922,5.72424868 108.32162,5.72424868 C107.798317,5.72424868 107.374133,5.30006447 107.374133,4.77676184 C107.374133,4.25345921 107.798317,3.829275 108.32162,3.829275 C108.844922,3.829275 109.269107,4.25345921 109.269107,4.77676184" id="Fill-23" fill="#008FD5"></path>
                    <path d="M112.726847,4.77676184 C112.726847,5.30006447 112.302663,5.72424868 111.779361,5.72424868 C111.256058,5.72424868 110.831874,5.30006447 110.831874,4.77676184 C110.831874,4.25345921 111.256058,3.829275 111.779361,3.829275 C112.302663,3.829275 112.726847,4.25345921 112.726847,4.77676184" id="Fill-25" fill="#008FD5"></path>
                    <path d="M116.184695,4.77676184 C116.184695,5.30006447 115.760511,5.72424868 115.237208,5.72424868 C114.713905,5.72424868 114.289721,5.30006447 114.289721,4.77676184 C114.289721,4.25345921 114.713905,3.829275 115.237208,3.829275 C115.760511,3.829275 116.184695,4.25345921 116.184695,4.77676184" id="Fill-27" fill="#008FD5"></path>
                    <path d="M119.642542,4.77676184 C119.642542,5.30006447 119.218358,5.72424868 118.695055,5.72424868 C118.171753,5.72424868 117.747568,5.30006447 117.747568,4.77676184 C117.747568,4.25345921 118.171753,3.829275 118.695055,3.829275 C119.218358,3.829275 119.642542,4.25345921 119.642542,4.77676184" id="Fill-29" fill="#008FD5"></path>
                    <path d="M123.100283,4.77676184 C123.100283,5.30006447 122.676099,5.72424868 122.152796,5.72424868 C121.629493,5.72424868 121.205309,5.30006447 121.205309,4.77676184 C121.205309,4.25345921 121.629493,3.829275 122.152796,3.829275 C122.676099,3.829275 123.100283,4.25345921 123.100283,4.77676184" id="Fill-31" fill="#008FD5"></path>
                    <path d="M91.9800829,7.76385 C91.9800829,8.28715263 91.5558987,8.71133684 91.0325961,8.71133684 C90.5092934,8.71133684 90.0851092,8.28715263 90.0851092,7.76385 C90.0851092,7.24054737 90.5092934,6.81636316 91.0325961,6.81636316 C91.5558987,6.81636316 91.9800829,7.24054737 91.9800829,7.76385" id="Fill-33" fill="#008FD5"></path>
                    <path d="M95.4378237,7.76385 C95.4378237,8.28715263 95.0136395,8.71133684 94.4903368,8.71133684 C93.9670342,8.71133684 93.54285,8.28715263 93.54285,7.76385 C93.54285,7.24054737 93.9670342,6.81636316 94.4903368,6.81636316 C95.0136395,6.81636316 95.4378237,7.24054737 95.4378237,7.76385" id="Fill-35" fill="#008FD5"></path>
                    <path d="M98.8956711,7.76385 C98.8956711,8.28715263 98.4714868,8.71133684 97.9481842,8.71133684 C97.4248816,8.71133684 97.0006974,8.28715263 97.0006974,7.76385 C97.0006974,7.24054737 97.4248816,6.81636316 97.9481842,6.81636316 C98.4714868,6.81636316 98.8956711,7.24054737 98.8956711,7.76385" id="Fill-37" fill="#008FD5"></path>
                    <path d="M119.642542,7.76385 C119.642542,8.28715263 119.218358,8.71133684 118.695055,8.71133684 C118.171753,8.71133684 117.747568,8.28715263 117.747568,7.76385 C117.747568,7.24054737 118.171753,6.81636316 118.695055,6.81636316 C119.218358,6.81636316 119.642542,7.24054737 119.642542,7.76385" id="Fill-39" fill="#008FD5"></path>
                    <path d="M123.100283,7.76385 C123.100283,8.28715263 122.676099,8.71133684 122.152796,8.71133684 C121.629493,8.71133684 121.205309,8.28715263 121.205309,7.76385 C121.205309,7.24054737 121.629493,6.81636316 122.152796,6.81636316 C122.676099,6.81636316 123.100283,7.24054737 123.100283,7.76385" id="Fill-41" fill="#008FD5"></path>
                    <path d="M126.55813,7.76385 C126.55813,8.28715263 126.133946,8.71133684 125.610643,8.71133684 C125.087341,8.71133684 124.663157,8.28715263 124.663157,7.76385 C124.663157,7.24054737 125.087341,6.81636316 125.610643,6.81636316 C126.133946,6.81636316 126.55813,7.24054737 126.55813,7.76385" id="Fill-43" fill="#008FD5"></path>
                    <path d="M88.5222355,10.7509382 C88.5222355,11.2742408 88.0980513,11.698425 87.5747487,11.698425 C87.0514461,11.698425 86.6272618,11.2742408 86.6272618,10.7509382 C86.6272618,10.2276355 87.0514461,9.80345132 87.5747487,9.80345132 C88.0980513,9.80345132 88.5222355,10.2276355 88.5222355,10.7509382" id="Fill-45" fill="#008FD5"></path>
                    <path d="M91.9800829,10.7509382 C91.9800829,11.2742408 91.5558987,11.698425 91.0325961,11.698425 C90.5092934,11.698425 90.0851092,11.2742408 90.0851092,10.7509382 C90.0851092,10.2276355 90.5092934,9.80345132 91.0325961,9.80345132 C91.5558987,9.80345132 91.9800829,10.2276355 91.9800829,10.7509382" id="Fill-47" fill="#008FD5"></path>
                    <path d="M126.55813,10.7509382 C126.55813,11.2742408 126.133946,11.698425 125.610643,11.698425 C125.087341,11.698425 124.663157,11.2742408 124.663157,10.7509382 C124.663157,10.2276355 125.087341,9.80345132 125.610643,9.80345132 C126.133946,9.80345132 126.55813,10.2276355 126.55813,10.7509382" id="Fill-49" fill="#008FD5"></path>
                    <path d="M130.015871,10.7509382 C130.015871,11.2742408 129.591687,11.698425 129.068384,11.698425 C128.545082,11.698425 128.120897,11.2742408 128.120897,10.7509382 C128.120897,10.2276355 128.545082,9.80345132 129.068384,9.80345132 C129.591687,9.80345132 130.015871,10.2276355 130.015871,10.7509382" id="Fill-51" fill="#008FD5"></path>
                    <path d="M88.5222355,13.7380263 C88.5222355,14.2613289 88.0980513,14.6855132 87.5747487,14.6855132 C87.0514461,14.6855132 86.6272618,14.2613289 86.6272618,13.7380263 C86.6272618,13.2147237 87.0514461,12.7905395 87.5747487,12.7905395 C88.0980513,12.7905395 88.5222355,13.2147237 88.5222355,13.7380263" id="Fill-53" fill="#008FD5"></path>
                    <path d="M130.015871,13.7380263 C130.015871,14.2613289 129.591687,14.6855132 129.068384,14.6855132 C128.545082,14.6855132 128.120897,14.2613289 128.120897,13.7380263 C128.120897,13.2147237 128.545082,12.7905395 129.068384,12.7905395 C129.591687,12.7905395 130.015871,13.2147237 130.015871,13.7380263" id="Fill-55" fill="#008FD5"></path>
                    <path d="M85.0644947,16.7251145 C85.0644947,17.2484171 84.6403105,17.6726013 84.1170079,17.6726013 C83.5937053,17.6726013 83.1695211,17.2484171 83.1695211,16.7251145 C83.1695211,16.2018118 83.5937053,15.7776276 84.1170079,15.7776276 C84.6403105,15.7776276 85.0644947,16.2018118 85.0644947,16.7251145" id="Fill-57" fill="#008FD5"></path>
                    <path d="M133.473718,16.7251145 C133.473718,17.2484171 133.049534,17.6726013 132.526232,17.6726013 C132.002929,17.6726013 131.578745,17.2484171 131.578745,16.7251145 C131.578745,16.2018118 132.002929,15.7776276 132.526232,15.7776276 C133.049534,15.7776276 133.473718,16.2018118 133.473718,16.7251145" id="Fill-59" fill="#008FD5"></path>
                    <path d="M85.0644947,19.7120961 C85.0644947,20.2353987 84.6403105,20.6595829 84.1170079,20.6595829 C83.5937053,20.6595829 83.1695211,20.2353987 83.1695211,19.7120961 C83.1695211,19.1887934 83.5937053,18.7646092 84.1170079,18.7646092 C84.6403105,18.7646092 85.0644947,19.1887934 85.0644947,19.7120961" id="Fill-61" fill="#008FD5"></path>
                    <path d="M133.473718,19.7120961 C133.473718,20.2353987 133.049534,20.6595829 132.526232,20.6595829 C132.002929,20.6595829 131.578745,20.2353987 131.578745,19.7120961 C131.578745,19.1887934 132.002929,18.7646092 132.526232,18.7646092 C133.049534,18.7646092 133.473718,19.1887934 133.473718,19.7120961" id="Fill-63" fill="#008FD5"></path>
                    <path d="M100.716572,61.1190829 C101.879349,61.6615697 104.899796,63.6364776 109.112862,63.6258197 C113.115967,63.6162276 116.00852,61.7500303 117.19048,61.2182013" id="Stroke-65" stroke="#000000"></path>
                    <path d="M135.717951,32.0778118 C138.008333,32.0778118 139.864938,34.7593382 139.864938,38.0675487 C139.864938,41.3757592 138.008333,44.0572855 135.717951,44.0572855" id="Stroke-67" stroke="#000000"></path>
                    <path d="M80.5256171,32.0778118 C78.2352355,32.0778118 76.3786303,34.7593382 76.3786303,38.0675487 C76.3786303,41.3757592 78.2352355,44.0572855 80.5256171,44.0572855" id="Stroke-69" stroke="#000000"></path>
                    <path d="M88.2436382,32.9161618 C89.3787039,32.3289118 92.2520724,31.0137276 96.5855724,30.7632671 C100.956375,30.5117408 104.354112,31.4848066 105.712993,31.9303066" id="Stroke-71" stroke="#000000"></path>
                    <path d="M130.454124,32.9161618 C129.319058,32.3289118 126.445689,31.0137276 122.112189,30.7632671 C117.741387,30.5117408 114.34365,31.4848066 112.984768,31.9303066" id="Stroke-73" stroke="#000000"></path>
                    <path d="M101.84162,49.4319553 C101.712659,49.5545211 100.852567,50.4082184 101.062528,51.8385079 C101.262896,53.2069816 102.289251,54.0617447 102.459778,54.2002974" id="Stroke-75" stroke="#000000"></path>
                    <path d="M116.164232,49.1975882 C116.293192,49.3201539 117.15435,50.1727855 116.945455,51.6041408 C116.745087,52.9715487 115.718732,53.8273776 115.548205,53.9659303" id="Stroke-77" stroke="#000000"></path>
                    <path d="M104.951061,53.0931553 C105.052311,53.2242474 106.260916,54.7184842 108.674929,54.8431816 C111.129442,54.9710763 112.601297,53.5674316 112.715337,53.4555237" id="Stroke-79" stroke="#000000"></path>
                    <path d="M105.226354,35.5932118 C105.465091,36.6121066 105.807209,38.4228829 105.829591,40.7697513 C105.853038,43.1795013 105.526907,45.054225 105.302025,46.0933697" id="Stroke-81" stroke="#000000"></path>
                    <path d="M81.1159579,29.9811908 L81.1159579,27.8655987 C81.1159579,12.7697566 93.3533526,0.532361842 108.448129,0.532361842 C123.543971,0.532361842 135.7803,12.7697566 135.7803,27.8655987 L135.7803,29.9811908 L135.718484,31.3688487 L135.718484,48.3415461 C135.718484,54.2385592 133.760629,59.9682434 130.151866,64.6321382 L123.391563,73.3716118 C116.261432,82.5885592 102.444537,82.8709934 94.9424447,73.9545987 L87.2964711,64.8676776 C83.2592605,60.0694934 81.0456158,53.9998224 81.0456158,47.7276513 L81.0456158,31.3688487 L81.1159579,29.9811908 L81.1159579,29.9811908 Z" id="Stroke-83" stroke="#000000"></path>
                    <path d="M25.9983355,9.64443553 C26.517375,9.62844868 29.5623355,9.58901447 31.9720855,11.9976987 C34.1409671,14.1655145 34.3040329,16.8246592 34.3264145,17.4289618" id="Stroke-85" stroke="#008FD5"></path>
                    <path d="M18.7569355,13.4235118 C19.518975,13.4927882 21.1251197,13.7421829 22.7696329,14.8569987 C24.4663697,16.0069855 25.2987513,17.4660513 25.6366066,18.1534855" id="Stroke-87" stroke="#008FD5"></path>
                    <path d="M5.23974079,40.7823276 C2.64028026,40.7823276 0.533214474,38.6752618 0.533214474,36.0758013 C0.533214474,33.4763408 2.64028026,31.3682092 5.23974079,31.3682092" id="Stroke-89" stroke="#000000"></path>
                    <path d="M60.0328303,31.3686355 C62.6322908,31.3686355 64.7393566,33.4757013 64.7393566,36.0751618 C64.7393566,38.6746224 62.6322908,40.7827539 60.0328303,40.7827539" id="Stroke-91" stroke="#000000"></path>
                    <path d="M14.7621434,33.5229158 C15.6137092,32.8845079 17.7719329,31.4414289 21.0641566,30.9959289 C24.3851566,30.5461658 26.9931434,31.3646921 28.0365513,31.7483763" id="Stroke-93" stroke="#000000"></path>
                    <path d="M52.6576737,33.5229158 C51.8061079,32.8845079 49.6478842,31.4414289 46.3556605,30.9959289 C43.0346605,30.5461658 40.4266737,31.3646921 39.3832658,31.7483763" id="Stroke-95" stroke="#000000"></path>
                    <path d="M24.8202118,51.9792987 C24.8052908,52.1157197 24.723225,53.040825 25.4234487,53.790075 C26.0938303,54.5052197 26.9699092,54.5148118 27.1137908,54.5137461" id="Stroke-97" stroke="#000000"></path>
                    <path d="M39.1219342,54.3877697 C39.2583553,54.4026908 40.1834605,54.4847566 40.9327105,53.7845329 C41.6478553,53.1141513 41.6574474,51.708375 41.6563816,51.5655592" id="Stroke-99" stroke="#000000"></path>
                    <path d="M29.2658329,53.6085711 C29.3670829,53.7396632 30.5756882,55.2339 32.9897013,55.3585974 C35.4431487,55.4854263 36.9160697,54.0828474 37.0301092,53.9709395" id="Stroke-101" stroke="#000000"></path>
                    <path d="M22.8288908,41.0705171 C22.8288908,40.0708066 22.017825,39.2597408 21.0181145,39.2597408 C20.0184039,39.2597408 19.2084039,40.0708066 19.2084039,41.0705171 C19.2084039,42.0702276 20.0184039,42.8812934 21.0181145,42.8812934 C22.017825,42.8812934 22.8288908,42.0702276 22.8288908,41.0705171" id="Fill-103" fill="#000000"></path>
                    <path d="M46.3166526,41.0705171 C46.3166526,40.0708066 45.5066526,39.2597408 44.5058763,39.2597408 C43.5061658,39.2597408 42.6961658,40.0708066 42.6961658,41.0705171 C42.6961658,42.0702276 43.5061658,42.8812934 44.5058763,42.8812934 C45.5066526,42.8812934 46.3166526,42.0702276 46.3166526,41.0705171" id="Fill-105" fill="#000000"></path>
                    <path d="M22.0442566,62.177625 C23.5907171,63.169875 27.6066118,65.4549276 33.2084013,65.4357434 C38.5309539,65.4186908 42.3773882,63.3308092 43.9494276,62.3588092" id="Stroke-109" stroke="#000000"></path>
                    <path d="M8.01036711,61.8543711 C6.29870921,59.8197789 5.36081447,57.2469632 5.36081447,54.5888842 L5.36081447,32.6357526 C5.36081447,26.0310553 7.70235395,19.9741737 11.6010118,15.2484632 L11.6287224,15.2111605 L10.1280908,11.6961868 C14.4871697,7.46500263 22.0446829,4.59802895 22.0446829,4.59802895 L21.6535382,2.64443684 C31.9394724,-0.237457895 38.9672882,4.66837105 38.9672882,4.66837105 L41.1265776,1.69908158 C51.7056039,4.45521316 53.4247224,14.4118184 53.4247224,14.4118184 L53.4534987,14.8477263 C57.5546566,19.6288579 60.0326171,25.8424105 60.0326171,32.6357526 L60.0326171,54.8489368 C60.0326171,57.3482132 59.2034329,59.7771474 57.674025,61.7541868 L50.0205908,71.6468447 C41.6999724,82.4017263 25.5767092,82.7331868 16.8223145,72.3278842 L8.01036711,61.8543711 L8.01036711,61.8543711 Z" id="Stroke-111" stroke="#000000"></path>
                    <path d="M60.0328303,35.3513842 L54.9873829,31.2065289 C53.7691855,30.1364763 52.9229487,28.6933974 52.5765671,27.0915158 L51.3349224,21.3511737 C47.5641592,19.7919237 41.1065408,17.6837921 32.8754487,17.7306868 L32.6985276,17.7306868 C32.3393566,17.7285553 31.9823171,17.7306868 31.6295408,17.7370816 C23.9089618,17.8671079 17.8456855,19.8601342 14.2390539,21.3511737 L12.9974092,27.0915158 C12.6510276,28.6933974 11.8058566,30.1364763 10.5876592,31.2065289 L5.54114605,35.3513842" id="Stroke-113" stroke="#000000"></path>
                    <path d="M88.4534921,38.7851447 L80.8597421,32.7900789" id="Stroke-115" stroke="#000000"></path>
                    <path d="M129.619611,38.7851447 L135.7479,33.3229737" id="Stroke-117" stroke="#000000"></path>
                    <path d="M105.474043,39.2956579 L105.84707,39.1560395 C108.095886,38.3119342 110.567451,38.2703684 112.843978,39.0388026 L113.102964,39.1261974" id="Stroke-119" stroke="#000000"></path>
                    <path d="M28.7372013,40.1271351 L29.1560195,39.9703775 C31.6808949,39.0226517 34.4558645,38.9759834 37.0118521,39.8387489 L37.3026316,39.936872" id="Stroke-121" stroke="#000000"></path>
                    <path d="M99.9107289,46.6453421 L93.3827684,46.6453421 C90.2919789,46.6453421 87.7873737,44.1396711 87.7873737,41.0499474 C87.7873737,37.9591579 90.2919789,35.4545526 93.3827684,35.4545526 L99.9107289,35.4545526 C103.000453,35.4545526 105.506124,37.9591579 105.506124,41.0499474 C105.506124,44.1396711 103.000453,46.6453421 99.9107289,46.6453421 L99.9107289,46.6453421 Z" id="Stroke-123" stroke="#000000"></path>
                    <path d="M124.756946,46.6453421 L118.228986,46.6453421 C115.138196,46.6453421 112.633591,44.1396711 112.633591,41.0499474 C112.633591,37.9591579 115.138196,35.4545526 118.228986,35.4545526 L124.756946,35.4545526 C127.84667,35.4545526 130.352341,37.9591579 130.352341,41.0499474 C130.352341,44.1396711 127.84667,46.6453421 124.756946,46.6453421 L124.756946,46.6453421 Z" id="Stroke-125" stroke="#000000"></path>
                    <path d="M25.3258224,47.0381921 L16.8069671,47.0381921 C15.2136118,47.0381921 13.8547303,45.8818105 13.6010724,44.3076395 L12.4532171,36.1202447 L28.5732829,36.1202447 L28.5732829,43.7907316 C28.5732829,45.5844553 27.1195461,47.0381921 25.3258224,47.0381921 L25.3258224,47.0381921 Z" id="Stroke-127" stroke="#000000"></path>
                    <path d="M15.1804658,36.1206711 L9.58507105,36.1206711" id="Stroke-129" stroke="#000000"></path>
                    <path d="M5.18868947,35.4545526 L9.91759737,36.1206711" id="Stroke-131" stroke="#000000"></path>
                    <path d="M40.2659526,47.0381921 L48.7848079,47.0381921 C50.3792289,47.0381921 51.7370447,45.8818105 51.9907026,44.3076395 L53.1385579,36.1202447 L37.0184921,36.1202447 L37.0184921,43.7907316 C37.0184921,45.5844553 38.4722289,47.0381921 40.2659526,47.0381921 L40.2659526,47.0381921 Z" id="Stroke-133" stroke="#000000"></path>
                    <path d="M50.4113092,36.1206711 L56.0067039,36.1206711" id="Stroke-135" stroke="#000000"></path>
                    <path d="M60.4030855,35.4545526 L55.6741776,36.1206711" id="Stroke-137" stroke="#000000"></path>
                </g>
            </g>
        </g>
    </g>
</svg>