<?xml version="1.0" encoding="UTF-8" standalone="no"?>
<svg width="74px" height="82px" viewBox="0 0 74 82" version="1.1" xmlns="http://www.w3.org/2000/svg" xmlns:xlink="http://www.w3.org/1999/xlink">
    <!-- Generator: Sketch 40.1 (33804) - http://www.bohemiancoding.com/sketch -->
    <title>three-way-backups</title>
    <desc>Created with Sketch.</desc>
    <defs></defs>
    <g id="Marketing-Site" stroke="none" stroke-width="1" fill="none" fill-rule="evenodd">
        <g id="Features" transform="translate(-125.000000, -7098.000000)">
            <g id="three-way-backups" transform="translate(126.000000, 7098.000000)">
                <g id="Group-3">
                    <path d="M17.7517358,72.8490566 L17.7517358,78.2113585 C17.7517358,79.7014528 13.7776415,80.9088113 8.87586792,80.9088113 C3.97409434,80.9088113 0,79.7014528 0,78.2113585 L0,72.8490566" id="Fill-1" fill="#FFFFFF"></path>
                    <path d="M17.7517358,72.8490566 L17.7517358,78.2113585 C17.7517358,79.7014528 13.7776415,80.9088113 8.87586792,80.9088113 C3.97409434,80.9088113 0,79.7014528 0,78.2113585 L0,72.8490566" id="Stroke-3" stroke="#008FD5" stroke-linejoin="round"></path>
                    <path d="M17.7517358,72.4899057 C17.7517358,73.9794906 13.7776415,75.1873585 8.87586792,75.1873585 C3.97409434,75.1873585 0,73.9794906 0,72.4899057 C0,71.0003208 3.97409434,69.7924528 8.87586792,69.7924528 C13.7776415,69.7924528 17.7517358,71.0003208 17.7517358,72.4899057" id="Fill-5" fill="#FFFFFF"></path>
                    <path d="M17.7517358,72.4899057 C17.7517358,73.9794906 13.7776415,75.1873585 8.87586792,75.1873585 C3.97409434,75.1873585 0,73.9794906 0,72.4899057 C0,71.0003208 3.97409434,69.7924528 8.87586792,69.7924528 C13.7776415,69.7924528 17.7517358,71.0003208 17.7517358,72.4899057 L17.7517358,72.4899057 Z" id="Stroke-7" stroke="#008FD5" stroke-linejoin="round"></path>
                    <path d="M17.7517358,67.245283 L17.7517358,72.6080943 C17.7517358,74.0976792 13.7776415,75.3050377 8.87586792,75.3050377 C3.97409434,75.3050377 0,74.0976792 0,72.6080943 L0,67.245283" id="Fill-9" fill="#FFFFFF"></path>
                    <path d="M17.7517358,67.245283 L17.7517358,72.6080943 C17.7517358,74.0976792 13.7776415,75.3050377 8.87586792,75.3050377 C3.97409434,75.3050377 0,74.0976792 0,72.6080943 L0,67.245283" id="Stroke-11" stroke="#008FD5" stroke-linejoin="round"></path>
                    <path d="M17.7517358,67.395566 C17.7517358,68.8851509 13.7776415,70.0930189 8.87586792,70.0930189 C3.97409434,70.0930189 0,68.8851509 0,67.395566 C0,65.9059811 3.97409434,64.6981132 8.87586792,64.6981132 C13.7776415,64.6981132 17.7517358,65.9059811 17.7517358,67.395566" id="Fill-13" fill="#FFFFFF"></path>
                    <path d="M17.7517358,67.395566 C17.7517358,68.8851509 13.7776415,70.0930189 8.87586792,70.0930189 C3.97409434,70.0930189 0,68.8851509 0,67.395566 C0,65.9059811 3.97409434,64.6981132 8.87586792,64.6981132 C13.7776415,64.6981132 17.7517358,65.9059811 17.7517358,67.395566 L17.7517358,67.395566 Z" id="Stroke-15" stroke="#008FD5" stroke-linejoin="round"></path>
                    <path d="M17.7517358,62.1509434 L17.7517358,67.5137547 C17.7517358,69.0033396 13.7776415,70.2106981 8.87586792,70.2106981 C3.97409434,70.2106981 0,69.0033396 0,67.5137547 L0,62.1509434" id="Fill-17" fill="#FFFFFF"></path>
                    <path d="M17.7517358,62.1509434 L17.7517358,67.5137547 C17.7517358,69.0033396 13.7776415,70.2106981 8.87586792,70.2106981 C3.97409434,70.2106981 0,69.0033396 0,67.5137547 L0,62.1509434" id="Stroke-19" stroke="#008FD5" stroke-linejoin="round"></path>
                    <path d="M17.7517358,61.7917925 C17.7517358,63.2813774 13.7776415,64.4892453 8.87586792,64.4892453 C3.97409434,64.4892453 0,63.2813774 0,61.7917925 C0,60.3022075 3.97409434,59.0943396 8.87586792,59.0943396 C13.7776415,59.0943396 17.7517358,60.3022075 17.7517358,61.7917925" id="Fill-21" fill="#FFFFFF"></path>
                    <path d="M17.7517358,61.7917925 C17.7517358,63.2813774 13.7776415,64.4892453 8.87586792,64.4892453 C3.97409434,64.4892453 0,63.2813774 0,61.7917925 C0,60.3022075 3.97409434,59.0943396 8.87586792,59.0943396 C13.7776415,59.0943396 17.7517358,60.3022075 17.7517358,61.7917925 L17.7517358,61.7917925 Z" id="Stroke-23" stroke="#008FD5" stroke-linejoin="round"></path>
                    <path d="M44.7517358,72.8490566 L44.7517358,78.2113585 C44.7517358,79.7014528 40.7781509,80.9088113 35.8758679,80.9088113 C30.9740943,80.9088113 27,79.7014528 27,78.2113585 L27,72.8490566" id="Fill-25" fill="#FFFFFF"></path>
                    <path d="M44.7517358,72.8490566 L44.7517358,78.2113585 C44.7517358,79.7014528 40.7781509,80.9088113 35.8758679,80.9088113 C30.9740943,80.9088113 27,79.7014528 27,78.2113585 L27,72.8490566" id="Stroke-27" stroke="#008FD5" stroke-linejoin="round"></path>
                    <path d="M44.7517358,72.4899057 C44.7517358,73.9794906 40.7781509,75.1873585 35.8758679,75.1873585 C30.9740943,75.1873585 27,73.9794906 27,72.4899057 C27,71.0003208 30.9740943,69.7924528 35.8758679,69.7924528 C40.7781509,69.7924528 44.7517358,71.0003208 44.7517358,72.4899057" id="Fill-29" fill="#FFFFFF"></path>
                    <path d="M44.7517358,72.4899057 C44.7517358,73.9794906 40.7781509,75.1873585 35.8758679,75.1873585 C30.9740943,75.1873585 27,73.9794906 27,72.4899057 C27,71.0003208 30.9740943,69.7924528 35.8758679,69.7924528 C40.7781509,69.7924528 44.7517358,71.0003208 44.7517358,72.4899057 L44.7517358,72.4899057 Z" id="Stroke-31" stroke="#008FD5" stroke-linejoin="round"></path>
                    <path d="M44.7517358,67.245283 L44.7517358,72.6080943 C44.7517358,74.0976792 40.7781509,75.3050377 35.8758679,75.3050377 C30.9740943,75.3050377 27,74.0976792 27,72.6080943 L27,67.245283" id="Fill-33" fill="#FFFFFF"></path>
                    <path d="M44.7517358,67.245283 L44.7517358,72.6080943 C44.7517358,74.0976792 40.7781509,75.3050377 35.8758679,75.3050377 C30.9740943,75.3050377 27,74.0976792 27,72.6080943 L27,67.245283" id="Stroke-35" stroke="#008FD5" stroke-linejoin="round"></path>
                    <path d="M44.7517358,67.395566 C44.7517358,68.8851509 40.7781509,70.0930189 35.8758679,70.0930189 C30.9740943,70.0930189 27,68.8851509 27,67.395566 C27,65.9059811 30.9740943,64.6981132 35.8758679,64.6981132 C40.7781509,64.6981132 44.7517358,65.9059811 44.7517358,67.395566" id="Fill-37" fill="#FFFFFF"></path>
                    <path d="M44.7517358,67.395566 C44.7517358,68.8851509 40.7781509,70.0930189 35.8758679,70.0930189 C30.9740943,70.0930189 27,68.8851509 27,67.395566 C27,65.9059811 30.9740943,64.6981132 35.8758679,64.6981132 C40.7781509,64.6981132 44.7517358,65.9059811 44.7517358,67.395566 L44.7517358,67.395566 Z" id="Stroke-39" stroke="#008FD5" stroke-linejoin="round"></path>
                    <path d="M44.7517358,62.1509434 L44.7517358,67.5137547 C44.7517358,69.0033396 40.7781509,70.2106981 35.8758679,70.2106981 C30.9740943,70.2106981 27,69.0033396 27,67.5137547 L27,62.1509434" id="Fill-41" fill="#FFFFFF"></path>
                    <path d="M44.7517358,62.1509434 L44.7517358,67.5137547 C44.7517358,69.0033396 40.7781509,70.2106981 35.8758679,70.2106981 C30.9740943,70.2106981 27,69.0033396 27,67.5137547 L27,62.1509434" id="Stroke-43" stroke="#008FD5" stroke-linejoin="round"></path>
                    <path d="M44.7517358,61.7917925 C44.7517358,63.2813774 40.7781509,64.4892453 35.8758679,64.4892453 C30.9740943,64.4892453 27,63.2813774 27,61.7917925 C27,60.3022075 30.9740943,59.0943396 35.8758679,59.0943396 C40.7781509,59.0943396 44.7517358,60.3022075 44.7517358,61.7917925" id="Fill-45" fill="#FFFFFF"></path>
                    <path d="M44.7517358,61.7917925 C44.7517358,63.2813774 40.7781509,64.4892453 35.8758679,64.4892453 C30.9740943,64.4892453 27,63.2813774 27,61.7917925 C27,60.3022075 30.9740943,59.0943396 35.8758679,59.0943396 C40.7781509,59.0943396 44.7517358,60.3022075 44.7517358,61.7917925 L44.7517358,61.7917925 Z" id="Stroke-47" stroke="#008FD5" stroke-linejoin="round"></path>
                    <path d="M71.7517358,72.8490566 L71.7517358,78.2113585 C71.7517358,79.7014528 67.7776415,80.9088113 62.8758679,80.9088113 C57.9740943,80.9088113 54,79.7014528 54,78.2113585 L54,72.8490566" id="Fill-49" fill="#FFFFFF"></path>
                    <path d="M71.7517358,72.8490566 L71.7517358,78.2113585 C71.7517358,79.7014528 67.7776415,80.9088113 62.8758679,80.9088113 C57.9740943,80.9088113 54,79.7014528 54,78.2113585 L54,72.8490566" id="Stroke-51" stroke="#008FD5" stroke-linejoin="round"></path>
                    <path d="M71.7517358,72.4899057 C71.7517358,73.9794906 67.7776415,75.1873585 62.8758679,75.1873585 C57.9740943,75.1873585 54,73.9794906 54,72.4899057 C54,71.0003208 57.9740943,69.7924528 62.8758679,69.7924528 C67.7776415,69.7924528 71.7517358,71.0003208 71.7517358,72.4899057" id="Fill-53" fill="#FFFFFF"></path>
                    <path d="M71.7517358,72.4899057 C71.7517358,73.9794906 67.7776415,75.1873585 62.8758679,75.1873585 C57.9740943,75.1873585 54,73.9794906 54,72.4899057 C54,71.0003208 57.9740943,69.7924528 62.8758679,69.7924528 C67.7776415,69.7924528 71.7517358,71.0003208 71.7517358,72.4899057 L71.7517358,72.4899057 Z" id="Stroke-55" stroke="#008FD5" stroke-linejoin="round"></path>
                    <path d="M71.7517358,67.245283 L71.7517358,72.6080943 C71.7517358,74.0976792 67.7776415,75.3050377 62.8758679,75.3050377 C57.9740943,75.3050377 54,74.0976792 54,72.6080943 L54,67.245283" id="Fill-57" fill="#FFFFFF"></path>
                    <path d="M71.7517358,67.245283 L71.7517358,72.6080943 C71.7517358,74.0976792 67.7776415,75.3050377 62.8758679,75.3050377 C57.9740943,75.3050377 54,74.0976792 54,72.6080943 L54,67.245283" id="Stroke-59" stroke="#008FD5" stroke-linejoin="round"></path>
                    <path d="M71.7517358,67.395566 C71.7517358,68.8851509 67.7776415,70.0930189 62.8758679,70.0930189 C57.9740943,70.0930189 54,68.8851509 54,67.395566 C54,65.9059811 57.9740943,64.6981132 62.8758679,64.6981132 C67.7776415,64.6981132 71.7517358,65.9059811 71.7517358,67.395566" id="Fill-61" fill="#FFFFFF"></path>
                    <path d="M71.7517358,67.395566 C71.7517358,68.8851509 67.7776415,70.0930189 62.8758679,70.0930189 C57.9740943,70.0930189 54,68.8851509 54,67.395566 C54,65.9059811 57.9740943,64.6981132 62.8758679,64.6981132 C67.7776415,64.6981132 71.7517358,65.9059811 71.7517358,67.395566 L71.7517358,67.395566 Z" id="Stroke-63" stroke="#008FD5" stroke-linejoin="round"></path>
                    <path d="M71.7517358,62.1509434 L71.7517358,67.5137547 C71.7517358,69.0033396 67.7776415,70.2106981 62.8758679,70.2106981 C57.9740943,70.2106981 54,69.0033396 54,67.5137547 L54,62.1509434" id="Fill-65" fill="#FFFFFF"></path>
                    <path d="M71.7517358,62.1509434 L71.7517358,67.5137547 C71.7517358,69.0033396 67.7776415,70.2106981 62.8758679,70.2106981 C57.9740943,70.2106981 54,69.0033396 54,67.5137547 L54,62.1509434" id="Stroke-67" stroke="#008FD5" stroke-linejoin="round"></path>
                    <path d="M71.7517358,61.7917925 C71.7517358,63.2813774 67.7776415,64.4892453 62.8758679,64.4892453 C57.9740943,64.4892453 54,63.2813774 54,61.7917925 C54,60.3022075 57.9740943,59.0943396 62.8758679,59.0943396 C67.7776415,59.0943396 71.7517358,60.3022075 71.7517358,61.7917925" id="Fill-69" fill="#FFFFFF"></path>
                    <path d="M71.7517358,61.7917925 C71.7517358,63.2813774 67.7776415,64.4892453 62.8758679,64.4892453 C57.9740943,64.4892453 54,63.2813774 54,61.7917925 C54,60.3022075 57.9740943,59.0943396 62.8758679,59.0943396 C67.7776415,59.0943396 71.7517358,60.3022075 71.7517358,61.7917925 L71.7517358,61.7917925 Z" id="Stroke-71" stroke="#008FD5" stroke-linejoin="round"></path>
                    <polyline id="Fill-73" fill="#FFFFFF" points="12.0557547 49.9245283 9.08422642 52.8960566 6.11320755 49.9245283"></polyline>
                    <polyline id="Stroke-75" stroke="#222222" stroke-linejoin="round" points="12.0557547 49.9245283 9.08422642 52.8960566 6.11320755 49.9245283"></polyline>
                    <polyline id="Fill-77" fill="#FFFFFF" points="39.0557547 49.9245283 36.0842264 52.8960566 33.1132075 49.9245283"></polyline>
                    <polyline id="Stroke-79" stroke="#222222" stroke-linejoin="round" points="39.0557547 49.9245283 36.0842264 52.8960566 33.1132075 49.9245283"></polyline>
                    <path d="M35.6603774,52.754434 L35.6603774,32.0943396" id="Stroke-81" stroke="#222222" stroke-linejoin="round"></path>
                    <polyline id="Fill-83" fill="#FFFFFF" points="66.0557547 49.9245283 63.0842264 52.8960566 60.1132075 49.9245283"></polyline>
                    <polyline id="Stroke-85" stroke="#222222" stroke-linejoin="round" points="66.0557547 49.9245283 63.0842264 52.8960566 60.1132075 49.9245283"></polyline>
                    <polyline id="Stroke-87" stroke="#222222" stroke-linejoin="round" points="62.7306792 53.0096604 62.7306792 40.754717 8.66037736 40.754717 8.66037736 53.0096604"></polyline>
                    <polygon id="Fill-89" fill="#FFFFFF" points="31.5849057 26.8813019 31.5849057 12.2498491 38.2309811 5.60377358 46.100717 5.60377358 46.100717 26.8813019"></polygon>
                    <polygon id="Stroke-91" stroke="#008FD5" points="31.5849057 26.8813019 31.5849057 12.2498491 38.2309811 5.60377358 46.100717 5.60377358 46.100717 26.8813019"></polygon>
                    <polyline id="Stroke-93" stroke="#008FD5" points="38.2309811 5.60377358 38.2309811 12.2498491 31.5849057 12.2498491"></polyline>
                    <polygon id="Fill-95" fill="#FFFFFF" points="28.5283019 24.3341321 28.5283019 9.70216981 35.1743774 3.05660377 43.0441132 3.05660377 43.0441132 24.3341321"></polygon>
                    <polygon id="Stroke-97" stroke="#008FD5" points="28.5283019 24.3341321 28.5283019 9.70216981 35.1743774 3.05660377 43.0441132 3.05660377 43.0441132 24.3341321"></polygon>
                    <polyline id="Stroke-99" stroke="#008FD5" points="35.1743774 3.05660377 35.1743774 9.70267925 28.5283019 9.70267925"></polyline>
                    <polygon id="Fill-101" fill="#FFFFFF" points="25.9811321 21.7869623 25.9811321 7.155 32.6272075 0.509433962 40.4969434 0.509433962 40.4969434 21.7869623"></polygon>
                    <polygon id="Stroke-103" stroke="#008FD5" points="25.9811321 21.7869623 25.9811321 7.155 32.6272075 0.509433962 40.4969434 0.509433962 40.4969434 21.7869623"></polygon>
                    <polyline id="Stroke-105" stroke="#008FD5" points="32.6271973 0.417602539 32.6271973 7.5444592 26.1068374 7.5444592"></polyline>
                </g>
            </g>
        </g>
    </g>
</svg>