<svg xmlns="http://www.w3.org/2000/svg" viewBox="0 0 140 30"><path fill="#222" d="M17.9 16.3c-.6 1.6-2.1 2.8-4 2.8-2.3 0-4.2-1.9-4.2-4.2 0-2.3 1.9-4.2 4.2-4.2 1.8 0 3.4 1.2 4 2.8h8.6c-.7-6.3-6-11.2-12.6-11.2C7 2.5 1.3 8.1 1.3 15c0 6.9 5.7 12.5 12.6 12.5 6.5 0 11.9-4.9 12.6-11.2h-8.6z"/><g fill="#222"><path d="M39 15.1V15c0-4.8 3.5-8 8.1-8 4.1 0 7 1.9 7.4 6h-4.7c-.2-1.6-1.1-2.5-2.7-2.5-2 0-3.3 1.6-3.3 4.4v.2c0 2.8 1.2 4.4 3.4 4.4 1.6 0 2.7-.8 3-2.6h4.5c-.3 4.1-3.3 6.2-7.4 6.2-5.6.1-8.3-3.1-8.3-8zM58.5 7.2H63v12.2h6v3.5H58.5V7.2zM73.5 7.2h11v3.5H78v2.7h5.1v3.2H78v2.9h6.8V23H73.5V7.2zM89.3 7.2h6.2c4.2 0 6.5 1.7 6.5 5v.1c0 2.2-1.2 3.5-2.9 4.1l3.8 6.5h-4.8l-3.2-5.6h-1.1v5.6h-4.5V7.2zm6 7.2c1.5 0 2.3-.6 2.3-1.9v-.1c0-1.3-.8-1.8-2.3-1.8h-1.5v3.8h1.5zM107 7.2h4.6v6.2l4.8-6.2h4.8l-5.8 7.3 6.1 8.4h-5.3l-4.6-6.6v6.6H107V7.2zM129.2 16.2l-5.2-9h5l2.7 5.3 2.7-5.3h4.4l-4.9 9v6.7h-4.6v-6.7z"/></g></svg>